<svg width="292" height="292" viewBox="0 0 292 292" fill="none" xmlns="http://www.w3.org/2000/svg">
<circle cx="146" cy="146" r="146" fill="white"/>
<path d="M97.1912 236.5L115.341 193.75L115.641 206.05L77.2412 122.35H104.391L121.191 162.4C122.091 164.4 122.941 166.55 123.741 168.85C124.541 171.15 125.141 173.35 125.541 175.45L122.241 177.4C122.841 175.9 123.491 174.05 124.191 171.85C124.991 169.55 125.841 167.1 126.741 164.5L141.441 122.35H168.741L134.841 202L121.041 236.5H97.1912Z" fill="#333333"/>
<path d="M208.174 132V64.2L213.934 64.8L185.374 99.72L184.054 97.56H237.454V111.12H175.654L169.174 98.64L210.934 47.76H223.174V132H208.174Z" fill="#333333"/>
</svg>
