<svg width="300" height="300" viewBox="0 0 300 300" fill="none" xmlns="http://www.w3.org/2000/svg">
<path d="M130.64 183.903C130.47 183.147 130.475 182.363 130.655 181.61C132.053 175.422 131.841 166.292 133.238 158.868C134.634 151.445 139.238 152.28 144.327 150.501C147.576 149.361 150.617 147.609 154.077 146.001C156.138 145.017 158.273 144.191 160.46 143.532C166.94 141.624 183.206 148.482 191.084 149.744C192.945 150.039 194.78 150.486 196.569 151.079L196.605 150.971C196.605 150.971 232.533 126.344 241.926 119.6C251.319 112.856 270.602 99.1621 270.602 99.1621L292.563 149.742C292.563 149.742 249.444 178.242 243.063 183.861C236.682 189.48 222.648 196.622 222.648 196.622L222.534 196.595C221.678 200.519 218.828 204.995 210.971 209.432L210.497 209.597C209.196 206.604 207.552 203.775 205.598 201.164C197.762 186.749 165.803 165.389 163.04 165.848C160.277 166.307 152.646 167.312 152.646 167.312C152.085 168.998 149.739 169.941 149.739 169.941H149.538C149.577 175.041 147.825 179.993 144.588 183.933C139.476 190.383 131.691 188.553 130.64 183.903Z" fill="#FFE8BB"/>
<path d="M219.532 57.0205C220.035 59.3201 220.228 61.6763 220.11 64.027C220.086 64.4384 219.975 64.8401 219.784 65.206C219.595 65.5718 219.33 65.8934 219.007 66.1502C218.685 66.4069 218.313 66.5927 217.914 66.6958C217.513 66.7988 217.098 66.8165 216.691 66.748L206.014 64.9855C205.36 64.8808 204.76 64.5563 204.316 64.0655C203.871 63.5747 203.605 62.947 203.565 62.2855C203.523 60.5284 202.888 58.837 201.765 57.4855C201.306 56.9522 200.791 56.47 200.229 56.047L197.157 74.6635L201.544 77.3185C207.58 80.8765 211.459 85.0045 213.18 89.7025C214.9 94.3952 215.358 99.4582 214.503 104.383C213.961 107.851 212.731 111.175 210.883 114.158C209.122 117.001 206.85 119.493 204.181 121.508C201.481 123.53 198.394 124.977 195.114 125.761C192.984 126.283 190.795 126.524 188.602 126.478L187.132 135.392C187.051 135.886 186.873 136.359 186.609 136.784C186.343 137.209 185.998 137.578 185.592 137.87C185.184 138.161 184.723 138.369 184.236 138.483C183.748 138.596 183.244 138.613 182.749 138.531C182.256 138.45 181.783 138.272 181.359 138.007C180.933 137.743 180.564 137.397 180.273 136.99C179.982 136.583 179.773 136.123 179.659 135.635C179.547 135.148 179.53 134.643 179.611 134.149L181.065 125.344C175.821 123.95 171.183 120.862 167.877 116.558C166.267 114.526 165.006 112.241 164.145 109.795C163.881 109.067 163.644 108.32 163.438 107.545C162.9 105.527 162.613 103.451 162.582 101.363C162.567 100.685 162.7 100.012 162.975 99.3911C163.249 98.7706 163.656 98.218 164.169 97.7726C164.68 97.3273 165.283 97.0003 165.937 96.8146C166.59 96.6289 167.275 96.5893 167.944 96.6985L172.455 97.4485L175.656 97.975C176.604 98.135 177.478 98.5864 178.158 99.2666C178.837 99.9469 179.287 100.822 179.446 101.77C179.67 103.082 180.051 104.363 180.58 105.584C181.21 107.027 182.355 108.184 183.792 108.827L187.257 87.8275L183.427 85.6525C178.677 83.063 174.757 79.1833 172.117 74.461C169.633 69.7162 168.843 64.2662 169.875 59.011C170.416 55.5362 171.678 52.2127 173.575 49.252C175.383 46.4326 177.739 44.0059 180.505 42.1165C183.147 40.2263 186.154 38.911 189.336 38.2555C191.37 37.831 193.447 37.6493 195.523 37.714L196.816 29.8735C196.981 28.876 197.535 27.9847 198.357 27.3958C198.763 27.1042 199.224 26.8957 199.711 26.782C200.199 26.6683 200.704 26.6518 201.198 26.7332C201.693 26.8148 202.165 26.9929 202.591 27.2572C203.016 27.5216 203.385 27.8671 203.676 28.274C203.968 28.681 204.177 29.1413 204.291 29.629C204.403 30.1165 204.42 30.6217 204.339 31.1155L203.05 38.9365C205.113 39.5548 207.085 40.4425 208.917 41.5765C211.638 43.2466 213.973 45.4747 215.769 48.1135C217.581 50.8145 218.859 53.8382 219.532 57.0205ZM198.153 102.032C198.571 99.8582 198.268 97.6069 197.292 95.62C196.542 94.2566 195.51 93.0685 194.265 92.134L191.389 109.549C192.321 109.287 193.215 108.906 194.049 108.415C195.178 107.74 196.137 106.812 196.849 105.705C197.56 104.598 198.007 103.341 198.153 102.032ZM190.135 70.3525L192.79 54.2725C191.533 54.4894 190.359 55.0436 189.393 55.876C187.672 57.3107 186.534 59.3234 186.192 61.537C185.932 63.1673 186.075 64.8364 186.609 66.3985C187.345 68.0512 188.577 69.4333 190.135 70.3525Z" fill="#A0D568"/>
<path d="M130.64 183.902C131.69 188.552 139.476 190.378 144.581 183.934C147.817 179.993 149.569 175.042 149.531 169.942H149.732C149.732 169.942 152.078 168.998 152.639 167.312C152.639 167.312 160.263 166.307 163.032 165.848C165.801 165.389 197.754 186.749 205.59 201.164C207.545 203.776 209.189 206.605 210.489 209.597C211.34 211.795 211.664 213.887 210.639 215.099C207.107 219.299 202.787 218.063 199.755 214.573C199.605 214.403 199.455 214.222 199.305 214.037C196.257 210.145 188.436 200.642 188.436 200.642L181.91 196.592C183.432 198.017 184.862 199.537 186.189 201.145C187.937 203.527 194.81 210.544 197.897 215.354C198.69 216.395 199.212 217.618 199.413 218.911C199.349 219.856 199.059 220.774 198.569 221.585C198.08 222.397 197.403 223.079 196.598 223.579C195.791 224.077 194.877 224.375 193.932 224.45C192.987 224.527 192.038 224.375 191.163 224.011C191.055 223.966 190.95 223.91 190.853 223.846C188.24 222.227 175.377 210.689 173.381 208.808C172.982 208.067 172.433 207.416 171.768 206.9C171.366 206.576 170.939 206.287 170.489 206.035L170.469 206.018C167.087 204.095 163.385 204.818 160.188 207.317C156.662 210.086 158.208 208.451 156.683 210.04C156.552 208.79 156.018 207.619 155.162 206.699C152.001 203.152 147.717 202.976 143.685 205.147C140.573 206.935 137.571 208.909 134.694 211.055L122.96 212.179L122.858 212.159C123.145 210.071 122.692 207.949 121.578 206.159C119.028 202.313 115.202 202.709 113.186 202.829C112.855 202.852 112.528 202.91 112.211 203.005L112.185 202.829C110.623 202.06 109.109 201.196 107.654 200.24C105.746 199.049 103.674 197.678 102.018 196.565C100.194 195.338 98.8845 194.431 98.8845 194.431C99.0077 179.555 100.091 164.705 102.126 149.969L104.772 150.995C109.061 152.66 117.165 155.795 118.202 156.161C118.697 156.422 119.25 156.559 119.81 156.559C120.371 156.559 120.923 156.422 121.419 156.161C122.888 155.605 140.159 146.51 143.649 145.681C147.14 144.851 154.068 145.994 154.068 145.994C150.603 147.608 147.563 149.36 144.318 150.494C139.235 152.273 134.621 151.432 133.229 158.861C131.837 166.291 132.044 175.415 130.646 181.603C130.468 182.359 130.466 183.145 130.64 183.902Z" fill="#FFE8BB"/>
<path d="M199.323 214.036C199.473 214.22 199.623 214.402 199.773 214.571C199.773 214.571 197.958 215.411 197.922 215.356C194.835 210.545 187.962 203.528 186.214 201.146C184.887 199.54 183.457 198.019 181.935 196.594L188.461 200.644C188.461 200.644 196.275 210.143 199.323 214.036Z" fill="#FFE8BB"/>
<path d="M190.87 223.844L190.514 224.365C190.381 225.065 190.085 225.724 189.653 226.289C189.22 226.856 188.66 227.312 188.02 227.624C187.109 228.196 186.091 228.572 185.027 228.731C183.964 228.889 182.879 228.824 181.843 228.541C180.913 228.091 180.016 227.575 179.158 227L177.785 226.85C178.478 226.21 179.092 225.487 179.611 224.699C181.561 221.411 181.493 219.374 179.342 217.663C178.534 216.898 177.539 216.359 176.458 216.1C175.375 215.84 174.244 215.869 173.177 216.184L172.949 216.044C173.065 215.852 173.165 215.651 173.249 215.444C173.762 214.418 174.043 213.292 174.068 212.146C174.094 211 173.866 209.861 173.399 208.814C175.394 210.688 188.251 222.226 190.87 223.844Z" fill="#FFE8BB"/>
<path d="M181.843 228.543C180.018 230.805 177.522 232.429 174.714 233.184C174.123 233.397 173.493 233.478 172.867 233.424C172.24 233.368 171.634 233.178 171.09 232.864L170.388 232.854C172.98 231.015 175.452 229.011 177.786 226.854L179.158 227.004C180.016 227.578 180.913 228.093 181.843 228.543Z" fill="#FFE8BB"/>
<path d="M179.343 217.653C181.494 219.365 181.556 221.403 179.612 224.69C179.093 225.477 178.479 226.2 177.786 226.841C175.452 228.998 172.98 231.002 170.388 232.841C169.527 233.465 168.977 233.846 168.977 233.846C160.49 238.832 156.726 239.939 153.69 238.511C152.75 238.136 151.907 237.551 151.223 236.804C150.54 236.055 150.035 235.161 149.747 234.191L149.597 233.85C153.003 232.358 156.305 230.634 159.476 228.69C159.476 228.69 170.576 220.055 172.946 216.029L173.174 216.168C174.242 215.853 175.374 215.825 176.457 216.086C177.54 216.347 178.535 216.887 179.343 217.653Z" fill="#FFE8BB"/>
<path d="M173.402 208.803C173.869 209.85 174.097 210.989 174.071 212.135C174.046 213.282 173.765 214.407 173.252 215.433C173.168 215.64 173.068 215.841 172.952 216.033C170.581 220.059 159.482 228.695 159.482 228.695C156.311 230.639 153.01 232.362 149.603 233.855C142.553 236.789 140.912 235.055 138.38 233.865C135.968 232.592 134.156 230.415 133.339 227.813V227.741C135.435 227.583 137.482 227.024 139.366 226.091C139.366 226.091 153.121 218.741 155.188 215.352C156.265 213.794 156.799 211.925 156.709 210.032C158.234 208.443 156.688 210.078 160.214 207.309C163.411 204.809 167.114 204.087 170.495 206.01L170.515 206.027C170.965 206.279 171.392 206.568 171.794 206.892C172.457 207.41 173.006 208.061 173.402 208.803Z" fill="#FFE8BB"/>
<path d="M134.702 211.051C137.583 208.905 140.588 206.932 143.702 205.143C147.734 202.972 152.018 203.148 155.179 206.695C156.035 207.615 156.569 208.786 156.7 210.036C156.79 211.927 156.256 213.798 155.179 215.357C153.112 218.744 139.357 226.095 139.357 226.095C137.473 227.028 135.426 227.587 133.33 227.745C129.344 227.877 125.365 227.319 121.57 226.095C117.431 225.022 115.456 217.279 115.456 217.279C117.04 217.021 118.583 216.553 120.044 215.887C120.791 215.553 121.441 215.035 121.935 214.383C122.429 213.73 122.751 212.965 122.87 212.155L122.972 212.175L134.702 211.051Z" fill="#FFE8BB"/>
<path d="M152.164 22.8601L153.138 27.5731L95.1238 39.5281L110.853 115.866L106.135 116.835L105.162 112.118L89.4373 35.7856L147.447 23.8306L152.164 22.8601Z" fill="#A0D568"/>
<path d="M147.446 23.8296L89.4364 35.7846L105.161 112.117L100.443 113.092L83.7439 32.0361L146.477 19.1121L147.446 23.8296Z" fill="#313553"/>
<path d="M112.226 203.002C112.543 202.907 112.87 202.849 113.201 202.826C115.217 202.712 119.036 202.31 121.593 206.156C122.707 207.946 123.16 210.068 122.873 212.156C122.753 212.966 122.432 213.731 121.938 214.384C121.444 215.036 120.793 215.554 120.047 215.888C118.586 216.554 117.043 217.022 115.458 217.28C111.938 217.873 108.276 217.553 106.668 215.971C103.968 213.305 101.064 207.181 107.37 200.711L107.67 200.236C109.126 201.191 110.639 202.055 112.202 202.825L112.226 203.002Z" fill="#FFE8BB"/>
<path d="M103.882 147.381L103.825 147.427C103.769 147.353 103.698 147.291 103.616 147.248C103.533 147.204 103.442 147.179 103.349 147.174C103.256 147.17 103.164 147.186 103.077 147.222C102.991 147.257 102.914 147.312 102.852 147.381C102.456 148.191 102.214 149.069 102.139 149.968C100.104 164.704 99.0208 179.554 98.8977 194.43C98.9637 197.857 99.2367 200.116 99.7887 200.421C100.133 200.659 100.557 200.751 100.969 200.677L100.99 200.745C99.4542 201.766 95.3547 202.281 94.2402 199.039C93.9649 196.411 93.9444 193.762 94.1787 191.13C94.7097 178.38 96.7872 154.38 97.9287 147.804C97.9897 147.231 98.1321 146.671 98.3517 146.139C99.5832 144.525 103.738 145.453 103.882 147.381Z" fill="#A0D568"/>
<path d="M97.6517 147.753L97.9352 147.805C96.7907 154.389 94.7132 178.387 94.1852 191.131H94.0352C94.0352 191.131 85.1477 187.141 80.6312 186.604C74.0837 185.832 7.56323 154.939 7.56323 154.939L33.0152 105.364L93.5147 145.695L97.6517 147.753Z" fill="#FFE8BB"/>
<path d="M270.596 99.1621L292.558 149.742" stroke="#FFE8BB" stroke-width="0.258738" stroke-linecap="round" stroke-linejoin="round"/>
<path d="M7.55737 154.933L33.0154 105.364" stroke="#FFE8BB" stroke-width="0.258738" stroke-linecap="round" stroke-linejoin="round"/>
<path d="M218.147 261.817C202.241 272.322 183.858 278.473 164.834 279.66C145.809 280.845 126.806 277.023 109.718 268.575C92.6311 260.127 78.0568 247.347 67.4485 231.51C56.8402 215.671 50.5686 197.331 49.2588 178.314" stroke="#313553" stroke-width="0.258738" stroke-linecap="round" stroke-linejoin="round"/>
<path d="M267 174.127C266.549 189.687 262.763 204.969 255.9 218.94C249.036 232.912 239.255 245.248 227.216 255.115" stroke="#313553" stroke-width="0.258738" stroke-linecap="round" stroke-linejoin="round"/>
<path d="M205.982 244.448C194.109 252.29 180.494 257.099 166.329 258.452C152.165 259.806 137.885 257.663 124.742 252.212C111.599 246.759 99.9943 238.167 90.9463 227.186C81.8983 216.204 75.6832 203.169 72.8464 189.227" stroke="#313553" stroke-width="0.258738" stroke-linecap="round" stroke-linejoin="round"/>
<path d="M243.472 188.102C239.679 208.124 228.969 226.176 213.214 239.102" stroke="#313553" stroke-width="0.258738" stroke-linecap="round" stroke-linejoin="round"/>
<path d="M216.493 107.895C221.639 112.539 226.213 117.779 230.119 123.506" stroke="#313553" stroke-width="0.258738" stroke-linecap="round" stroke-linejoin="round"/>
<path d="M80.3894 133.271C84.4003 125.215 89.6332 117.827 95.9024 111.371" stroke="#313553" stroke-width="0.258738" stroke-linecap="round" stroke-linejoin="round"/>
<path d="M211.359 75.7407C225.079 83.4599 236.977 94.0433 246.241 106.771" stroke="#313553" stroke-width="0.258738" stroke-linecap="round" stroke-linejoin="round"/>
<path d="M61.675 119.804C68.649 106.682 78.2206 95.1165 89.8075 85.8123" stroke="#313553" stroke-width="0.258738" stroke-linecap="round" stroke-linejoin="round"/>
<path d="M196.61 150.969C196.61 150.969 232.538 126.342 241.931 119.598C251.324 112.854 270.602 99.1621 270.602 99.1621" stroke="#313553" stroke-width="0.258738" stroke-linecap="round" stroke-linejoin="round"/>
<path d="M222.644 196.621C222.644 196.621 236.677 189.475 243.059 183.86C249.442 178.246 292.559 149.741 292.559 149.741" stroke="#313553" stroke-width="0.258738" stroke-linecap="round" stroke-linejoin="round"/>
<path d="M7.55737 154.931C7.55737 154.931 74.0794 185.831 80.6269 186.596C85.1434 187.133 94.0309 191.123 94.0309 191.123" stroke="#313553" stroke-width="0.258738" stroke-linecap="round" stroke-linejoin="round"/>
<path d="M97.6537 147.751L93.5137 145.695L33.0142 105.364" stroke="#313553" stroke-width="0.258738" stroke-linecap="round" stroke-linejoin="round"/>
<path d="M104.837 150.86C104.748 149.657 104.404 148.486 103.826 147.427C103.77 147.352 103.698 147.291 103.616 147.247C103.534 147.204 103.443 147.179 103.35 147.174C103.257 147.17 103.164 147.186 103.078 147.221C102.992 147.257 102.915 147.311 102.852 147.38C102.456 148.191 102.214 149.069 102.14 149.968C100.104 164.704 99.0213 179.554 98.8982 194.429C98.9642 197.857 99.2372 200.116 99.7892 200.42C100.133 200.659 100.558 200.75 100.97 200.677C102.32 200.327 101.883 197.002 101.883 197.002" stroke="#313553" stroke-width="0.258738" stroke-linecap="round" stroke-linejoin="round"/>
<path d="M103.883 147.382C103.733 145.454 99.5839 144.532 98.3614 146.14C98.1418 146.672 97.9995 147.233 97.9384 147.805C96.7939 154.388 94.7164 178.387 94.1884 191.131C93.9541 193.763 93.9747 196.412 94.2499 199.04C95.3584 202.282 99.4579 201.767 101 200.746" stroke="#313553" stroke-width="0.258738" stroke-linecap="round" stroke-linejoin="round"/>
<path d="M102.141 149.969L104.787 150.995C109.076 152.66 117.18 155.795 118.217 156.161C118.713 156.422 119.265 156.559 119.826 156.559C120.386 156.559 120.938 156.422 121.434 156.161C122.903 155.605 140.174 146.51 143.664 145.681C147.155 144.851 154.083 145.994 154.083 145.994" stroke="#313553" stroke-width="0.258738" stroke-linecap="round" stroke-linejoin="round"/>
<path d="M98.8982 194.429C98.8982 194.429 100.208 195.336 102.032 196.563C103.682 197.676 105.759 199.047 107.667 200.238C109.123 201.194 110.636 202.058 112.199 202.827" stroke="#313553" stroke-width="0.258738" stroke-linecap="round" stroke-linejoin="round"/>
<path d="M222.129 186.788C222.129 188.965 223.433 192.47 222.531 196.594C221.675 200.518 218.825 204.994 210.968 209.432" stroke="#313553" stroke-width="0.258738" stroke-linecap="round" stroke-linejoin="round"/>
<path d="M203.667 154.456C201.477 152.995 199.087 151.855 196.573 151.074C194.784 150.481 192.949 150.036 191.088 149.739C183.21 148.48 166.938 141.619 160.464 143.527C158.277 144.186 156.142 145.012 154.081 145.996C150.616 147.61 147.576 149.362 144.331 150.496C139.248 152.275 134.634 151.434 133.242 158.863C131.85 166.293 132.057 175.417 130.659 181.605C130.479 182.358 130.474 183.142 130.644 183.898C131.694 188.548 139.48 190.374 144.585 183.93C147.821 179.989 149.573 175.038 149.535 169.938C149.524 168.499 149.362 167.067 149.05 165.663" stroke="#313553" stroke-width="0.258738" stroke-linecap="round" stroke-linejoin="round"/>
<path d="M149.736 169.942C149.736 169.942 152.082 168.998 152.643 167.312C152.643 167.312 160.267 166.307 163.036 165.848C165.805 165.389 197.758 186.749 205.594 201.164" stroke="#313553" stroke-width="0.258738" stroke-linecap="round" stroke-linejoin="round"/>
<path d="M205.594 201.162C207.548 203.773 209.192 206.602 210.493 209.595C211.343 211.792 211.667 213.885 210.643 215.097C207.11 219.297 202.79 218.061 199.759 214.57C199.609 214.401 199.459 214.219 199.309 214.035C196.261 210.142 188.44 200.64 188.44 200.64L181.913 196.59" stroke="#313553" stroke-width="0.258738" stroke-linecap="round" stroke-linejoin="round"/>
<path d="M170.507 182.757C170.641 184.146 170.989 185.505 171.539 186.787C171.967 187.282 177.668 192.423 181.927 196.593C183.449 198.018 184.879 199.537 186.206 201.145C187.954 203.527 194.827 210.544 197.914 215.355C198.707 216.396 199.229 217.618 199.43 218.911C199.366 219.856 199.076 220.774 198.586 221.586C198.097 222.397 197.42 223.08 196.615 223.579C195.808 224.077 194.894 224.376 193.949 224.451C193.004 224.527 192.055 224.376 191.18 224.011C191.072 223.966 190.967 223.911 190.87 223.846C188.257 222.228 175.394 210.69 173.398 208.809L173.389 208.798" stroke="#313553" stroke-width="0.258738" stroke-linecap="round" stroke-linejoin="round"/>
<path d="M190.516 224.368C190.383 225.068 190.087 225.727 189.655 226.292C189.222 226.859 188.662 227.315 188.022 227.627C187.111 228.199 186.093 228.575 185.029 228.734C183.966 228.892 182.881 228.827 181.845 228.544C180.915 228.094 180.018 227.578 179.16 227.003" stroke="#313553" stroke-width="0.258738" stroke-linecap="round" stroke-linejoin="round"/>
<path d="M181.844 228.542C180.018 230.804 177.522 232.429 174.714 233.183C174.123 233.396 173.493 233.477 172.868 233.423C172.241 233.368 171.635 233.177 171.09 232.864" stroke="#313553" stroke-width="0.258738" stroke-linecap="round" stroke-linejoin="round"/>
<path d="M163.035 165.848C163.035 165.848 165.366 163.538 165.366 162.224" stroke="#313553" stroke-width="0.258738" stroke-linecap="round" stroke-linejoin="round"/>
<path d="M152.644 167.311C152.851 166.228 152.851 165.115 152.644 164.032" stroke="#313553" stroke-width="0.258738" stroke-linecap="round" stroke-linejoin="round"/>
<path d="M130.522 183.423C130.521 183.592 130.562 183.757 130.641 183.907C131.574 185.794 138.117 185.185 140.215 182.041C142.477 178.644 139.714 174.127 139.714 174.127" stroke="#313553" stroke-width="0.258738" stroke-linecap="round" stroke-linejoin="round"/>
<path d="M131.914 172.898C131.914 172.898 133.594 172.769 135.814 172.511" stroke="#313553" stroke-width="0.258738" stroke-linecap="round" stroke-linejoin="round"/>
<path d="M204.847 215.354C206.382 214.901 207.792 214.1 208.966 213.012" stroke="#313553" stroke-width="0.258738" stroke-linecap="round" stroke-linejoin="round"/>
<path d="M199.764 214.57C199.764 214.57 197.949 215.41 197.913 215.355" stroke="#313553" stroke-width="0.258738" stroke-linecap="round" stroke-linejoin="round"/>
<path d="M108.648 204.901C109.731 204.082 110.939 203.443 112.226 203.01C112.543 202.915 112.87 202.857 113.201 202.834C115.217 202.72 119.036 202.318 121.593 206.164C122.707 207.954 123.16 210.076 122.873 212.164C122.753 212.974 122.432 213.739 121.938 214.392C121.444 215.044 120.793 215.562 120.047 215.896C118.586 216.562 117.043 217.03 115.458 217.288C111.938 217.881 108.276 217.561 106.668 215.979C103.968 213.313 101.064 207.189 107.37 200.719" stroke="#313553" stroke-width="0.258738" stroke-linecap="round" stroke-linejoin="round"/>
<path d="M134.7 211.053C133.509 211.92 132.519 212.657 131.906 213.111" stroke="#313553" stroke-width="0.258738" stroke-linecap="round" stroke-linejoin="round"/>
<path d="M115.458 217.283C115.458 217.283 117.433 225.026 121.572 226.099C125.367 227.323 129.346 227.881 133.332 227.749C135.428 227.591 137.475 227.032 139.359 226.099C139.359 226.099 153.114 218.749 155.181 215.36C156.258 213.802 156.792 211.931 156.702 210.04C156.571 208.79 156.037 207.619 155.181 206.699C152.02 203.152 147.736 202.976 143.704 205.147C140.592 206.935 137.59 208.909 134.713 211.055" stroke="#313553" stroke-width="0.258738" stroke-linecap="round" stroke-linejoin="round"/>
<path d="M134.71 211.057H134.706L122.971 212.181" stroke="#313553" stroke-width="0.258738" stroke-linecap="round" stroke-linejoin="round"/>
<path d="M143.981 210.437C143.003 211.592 142.472 213.057 142.481 214.571C142.553 215.207 142.781 215.816 143.145 216.344C143.508 216.872 143.995 217.302 144.564 217.598C145.133 217.893 145.765 218.045 146.406 218.039C147.047 218.033 147.676 217.868 148.239 217.562C150.905 216.087 155.174 213.102 153.999 210.437" stroke="#313553" stroke-width="0.258738" stroke-linecap="round" stroke-linejoin="round"/>
<path d="M145.813 208.802C146.745 207.975 147.881 207.414 149.103 207.177C149.962 207.14 150.804 207.429 151.459 207.987" stroke="#313553" stroke-width="0.258738" stroke-linecap="round" stroke-linejoin="round"/>
<path d="M170.485 206.019C167.103 204.096 163.401 204.819 160.204 207.318C156.678 210.087 158.224 208.452 156.699 210.041C156.667 210.072 156.637 210.108 156.601 210.144" stroke="#313553" stroke-width="0.258738" stroke-linecap="round" stroke-linejoin="round"/>
<path d="M133.337 227.822C134.154 230.425 135.966 232.601 138.378 233.875C140.91 235.066 142.559 236.798 149.601 233.864C153.008 232.372 156.309 230.648 159.48 228.704C159.48 228.704 170.58 220.069 172.95 216.043C173.066 215.851 173.166 215.65 173.25 215.443C173.763 214.417 174.044 213.292 174.069 212.144C174.095 210.998 173.867 209.86 173.4 208.813C173.001 208.072 172.452 207.421 171.788 206.905C171.386 206.581 170.958 206.291 170.508 206.039" stroke="#313553" stroke-width="0.258738" stroke-linecap="round" stroke-linejoin="round"/>
<path d="M161.376 212.482C160.614 213.789 160.341 215.323 160.608 216.813C160.788 217.428 161.116 217.989 161.563 218.446C162.012 218.905 162.565 219.246 163.176 219.441C163.785 219.634 164.434 219.676 165.064 219.562C165.694 219.447 166.287 219.18 166.789 218.782C169.171 216.876 172.867 213.21 171.259 210.781" stroke="#313553" stroke-width="0.258738" stroke-linecap="round" stroke-linejoin="round"/>
<path d="M162.901 210.554C163.678 209.584 164.703 208.84 165.865 208.399C166.707 208.216 167.587 208.358 168.33 208.796" stroke="#313553" stroke-width="0.258738" stroke-linecap="round" stroke-linejoin="round"/>
<path d="M149.747 234.203C150.035 235.173 150.541 236.067 151.223 236.814C151.907 237.563 152.75 238.146 153.691 238.523C156.727 239.951 160.49 238.842 168.977 233.858C168.977 233.858 169.528 233.477 170.389 232.853C172.981 231.014 175.453 229.01 177.787 226.853C178.48 226.212 179.093 225.489 179.612 224.702C181.562 221.414 181.495 219.377 179.344 217.665C178.535 216.9 177.541 216.362 176.459 216.102C175.376 215.843 174.245 215.871 173.179 216.186" stroke="#313553" stroke-width="0.258738" stroke-linecap="round" stroke-linejoin="round"/>
<path d="M170.868 221.19C170.278 222.2 170.068 223.386 170.275 224.537C170.413 225.012 170.668 225.447 171.013 225.803C171.36 226.158 171.789 226.422 172.261 226.574C172.734 226.724 173.236 226.757 173.724 226.667C174.211 226.578 174.67 226.37 175.059 226.062C176.899 224.588 179.761 221.753 178.509 219.87" stroke="#313553" stroke-width="0.258738" stroke-linecap="round" stroke-linejoin="round"/>
<path d="M172.051 219.697C172.654 218.945 173.449 218.369 174.351 218.03C175.002 217.888 175.681 217.999 176.253 218.341" stroke="#313553" stroke-width="0.258738" stroke-linecap="round" stroke-linejoin="round"/>
<path d="M165.367 199.488L167.094 202.782L170.487 206.019L170.506 206.036" stroke="#313553" stroke-width="0.258738" stroke-linecap="round" stroke-linejoin="round"/>
<path d="M120.045 215.889C118.547 215.202 117.181 214.258 116.008 213.1C115.211 212.062 114.66 210.859 114.394 209.578C114.338 209.289 114.207 209.019 114.015 208.795C113.823 208.572 113.576 208.402 113.298 208.303C113.02 208.203 112.722 208.179 112.431 208.23C112.141 208.281 111.869 208.407 111.642 208.594C110.92 209.128 110.414 209.904 110.218 210.78C109.991 211.786 110.108 212.839 110.551 213.769C110.994 214.701 111.738 215.457 112.662 215.914" stroke="#313553" stroke-width="0.258738" stroke-linecap="round" stroke-linejoin="round"/>
<path d="M164.103 109.806L111.821 120.576L110.852 115.864L95.1228 39.5261L153.137 27.5711L157.85 26.6021L172.449 97.4381" stroke="#313553" stroke-width="0.258738" stroke-linecap="round" stroke-linejoin="round"/>
<path d="M110.853 115.866L106.135 116.835L105.162 112.118L89.4373 35.7856L147.447 23.8306L152.164 22.8601L153.138 27.5731V27.5776" stroke="#313553" stroke-width="0.258738" stroke-linecap="round" stroke-linejoin="round"/>
<path d="M105.161 112.117L100.443 113.092L83.7439 32.0361L146.477 19.1121L147.446 23.8296" stroke="#313553" stroke-width="0.258738" stroke-linecap="round" stroke-linejoin="round"/>
<path d="M107.326 48.2561L150.095 39.4451" stroke="#313553" stroke-width="0.258738" stroke-linecap="round" stroke-linejoin="round"/>
<path d="M111.626 57.2045L154.397 48.3875" stroke="#313553" stroke-width="0.258738" stroke-linecap="round" stroke-linejoin="round"/>
<path d="M107.882 62.8939L155.369 53.1079" stroke="#313553" stroke-width="0.258738" stroke-linecap="round" stroke-linejoin="round"/>
<path d="M108.851 67.6073L156.338 57.8228" stroke="#313553" stroke-width="0.258738" stroke-linecap="round" stroke-linejoin="round"/>
<path d="M109.827 72.3273L143.163 65.4558" stroke="#313553" stroke-width="0.258738" stroke-linecap="round" stroke-linejoin="round"/>
<path d="M115.513 76.0693L158.282 67.2583" stroke="#313553" stroke-width="0.258738" stroke-linecap="round" stroke-linejoin="round"/>
<path d="M111.771 81.757L159.258 71.9771" stroke="#313553" stroke-width="0.258738" stroke-linecap="round" stroke-linejoin="round"/>
<path d="M112.739 86.4725L160.226 76.688" stroke="#313553" stroke-width="0.258738" stroke-linecap="round" stroke-linejoin="round"/>
<path d="M118.427 90.2222L161.202 81.4067" stroke="#313553" stroke-width="0.258738" stroke-linecap="round" stroke-linejoin="round"/>
<path d="M114.683 95.908L162.17 86.1235" stroke="#313553" stroke-width="0.258738" stroke-linecap="round" stroke-linejoin="round"/>
<path d="M115.656 100.625L163.143 90.8403" stroke="#313553" stroke-width="0.258738" stroke-linecap="round" stroke-linejoin="round"/>
<path d="M130.818 109.793L135.66 108.798L141.412 107.612L153.363 105.147L155.632 104.678L159.442 103.895" stroke="#313553" stroke-width="0.258738" stroke-linecap="round" stroke-linejoin="round"/>
<path d="M144.901 102.517C144.751 103.065 143.823 106.509 145.102 106.545C146.484 106.585 149.634 98.6414 149.634 98.6414C149.634 98.6414 148.092 105.091 149.958 105.225C151.824 105.358 151.552 100.636 153.171 100.198C154.309 99.8878 153.366 103.26 153.366 105.148C153.366 105.958 153.541 106.498 154.125 106.348C154.851 106.168 155.289 105.483 155.635 104.677C156.202 103.327 156.526 101.646 157.537 101.394" stroke="#313553" stroke-width="0.258738" stroke-linecap="round" stroke-linejoin="round"/>
<path d="M138.901 104.837C139.561 106.44 140.551 107.687 141.385 107.492C143.282 107.033 144.695 103.1 144.896 102.516C144.9 102.499 144.905 102.482 144.911 102.465V102.45" stroke="#313553" stroke-width="0.258738" stroke-linecap="round" stroke-linejoin="round"/>
<path d="M138.901 104.837C140.431 101.949 141.277 98.5622 139.447 99.0317C137.671 99.4907 137.955 102.527 138.901 104.837Z" stroke="#313553" stroke-width="0.258738" stroke-linecap="round" stroke-linejoin="round"/>
<path d="M135.625 108.625C136.651 108.347 137.918 106.697 138.904 104.836" stroke="#313553" stroke-width="0.258738" stroke-linecap="round" stroke-linejoin="round"/>
<path d="M127.863 104.176L125.492 107.779L123.12 111.378" stroke="#313553" stroke-width="0.258738" stroke-linecap="round" stroke-linejoin="round"/>
<path d="M121.885 105.409L125.49 107.781L129.088 110.148" stroke="#313553" stroke-width="0.258738" stroke-linecap="round" stroke-linejoin="round"/>
<path d="M164.14 109.792C165.001 112.238 166.263 114.523 167.872 116.556C171.18 120.858 175.816 123.947 181.06 125.341L179.607 134.146C179.526 134.64 179.542 135.145 179.655 135.633C179.769 136.12 179.977 136.581 180.268 136.988C180.559 137.395 180.928 137.74 181.354 138.004C181.779 138.269 182.251 138.447 182.745 138.529C183.24 138.61 183.744 138.594 184.231 138.48C184.719 138.367 185.179 138.158 185.587 137.867C185.994 137.575 186.339 137.207 186.604 136.782C186.868 136.357 187.047 135.884 187.128 135.39L188.598 126.475C190.791 126.522 192.979 126.281 195.109 125.758C198.39 124.973 201.477 123.525 204.177 121.503C206.845 119.487 209.118 116.995 210.879 114.153C212.727 111.171 213.958 107.849 214.501 104.383C215.355 99.4579 214.899 94.3945 213.177 89.7014C211.455 85.0013 207.576 80.8733 201.541 77.3173L197.154 74.6623L200.226 56.0458C200.788 56.4688 201.303 56.9512 201.762 57.4843C202.885 58.8359 203.52 60.5272 203.562 62.2844C203.602 62.9458 203.868 63.5735 204.313 64.0643C204.757 64.5551 205.357 64.8796 206.011 64.9843L216.688 66.7468C217.095 66.8153 217.51 66.7976 217.911 66.6946C218.31 66.5915 218.682 66.4057 219.004 66.149C219.327 65.8922 219.592 65.5706 219.781 65.2048C219.972 64.8389 220.083 64.4372 220.107 64.0258C220.225 61.6751 220.032 59.3189 219.529 57.0194C218.854 53.8402 217.578 50.8196 215.766 48.1213C213.97 45.4825 211.635 43.2544 208.914 41.5844C207.082 40.4503 205.11 39.5626 203.047 38.9444L204.336 31.1234C204.417 30.6295 204.4 30.1243 204.288 29.6368C204.174 29.1491 203.965 28.6888 203.673 28.2818C203.382 27.8749 203.013 27.5294 202.588 27.2651C202.162 27.0007 201.69 26.8226 201.195 26.7412C200.701 26.6596 200.196 26.6761 199.708 26.7898C199.221 26.9035 198.76 27.112 198.354 27.4036C197.532 27.9925 196.978 28.8838 196.813 29.8814L195.52 37.7219C193.444 37.6571 191.367 37.8388 189.333 38.2634C186.151 38.9188 183.144 40.2341 180.502 42.1243C177.736 44.0137 175.38 46.4404 173.572 49.2599C171.675 52.2205 170.413 55.544 169.872 59.0189C168.84 64.274 169.63 69.724 172.114 74.4689C174.754 79.1911 178.674 83.0708 183.424 85.6603L187.251 87.8308L183.786 108.831C182.349 108.187 181.204 107.031 180.574 105.588C180.045 104.366 179.664 103.085 179.44 101.772C179.281 100.824 178.831 99.9493 178.152 99.2693C177.472 98.5894 176.598 98.1382 175.65 97.9784L172.449 97.4519L167.938 96.7019C167.269 96.5926 166.584 96.6322 165.931 96.8179C165.277 97.0036 164.674 97.3306 164.163 97.7759C163.65 98.2213 163.243 98.7739 162.969 99.3946C162.694 100.015 162.561 100.688 162.576 101.367C162.607 103.455 162.894 105.531 163.432 107.548C163.639 108.318 163.876 109.065 164.14 109.792Z" stroke="#313553" stroke-width="0.258738" stroke-linecap="round" stroke-linejoin="round"/>
<path d="M186.602 66.4024C186.068 64.8401 185.925 63.1711 186.185 61.5409C186.527 59.3273 187.665 57.3146 189.386 55.8799C190.352 55.0474 191.526 54.4931 192.783 54.2764L190.128 70.3564C188.57 69.437 187.338 68.0549 186.602 66.4024Z" stroke="#313553" stroke-width="0.258738" stroke-linecap="round" stroke-linejoin="round"/>
<path d="M194.051 108.415C193.217 108.906 192.323 109.287 191.392 109.549L194.267 92.1338C195.512 93.0681 196.544 94.2564 197.294 95.6198C198.271 97.6067 198.574 99.858 198.155 102.032C198.01 103.341 197.563 104.597 196.852 105.705C196.139 106.812 195.181 107.739 194.051 108.415Z" stroke="#313553" stroke-width="0.258738" stroke-linecap="round" stroke-linejoin="round"/>
</svg>
