<svg width="300" height="300" viewBox="0 0 300 300" fill="none" xmlns="http://www.w3.org/2000/svg">
<path d="M282.622 81.0418L270.555 144.175C268.867 143.189 267.114 142.323 265.305 141.583C266.035 136.224 265.771 133.248 264.636 131.559C264.801 131.279 264.916 130.971 264.975 130.651C265.117 129.899 264.957 129.12 264.526 128.487C264.094 127.853 263.43 127.417 262.678 127.274C261.925 127.131 261.147 127.292 260.514 127.723C259.879 128.154 259.443 128.819 259.3 129.571C259.285 129.658 259.27 129.75 259.26 129.835C257.025 130.839 255.559 134.262 254.083 138.369L254.053 138.669C244.956 137.585 235.75 139.446 227.788 143.979C227.175 133.132 230.962 118.894 227.62 114.129C227.791 113.849 227.908 113.539 227.965 113.217C228.045 112.803 228.033 112.378 227.929 111.97C227.827 111.561 227.637 111.181 227.371 110.854C227.106 110.527 226.773 110.262 226.395 110.078C226.015 109.893 225.601 109.794 225.181 109.786C224.76 109.779 224.343 109.863 223.959 110.034C223.573 110.205 223.231 110.458 222.954 110.775C222.678 111.092 222.474 111.465 222.355 111.87C222.238 112.274 222.211 112.699 222.276 113.115C214.701 117.658 213.465 145.981 203.602 144.39C193.674 142.782 208.389 102.447 201.021 93.3358C201.247 93.0104 201.4 92.6399 201.471 92.2498C201.541 91.8772 201.54 91.4944 201.462 91.123C201.385 90.7516 201.237 90.3989 201.024 90.0851C200.811 89.7715 200.538 89.5027 200.221 89.2945C199.903 89.0861 199.549 88.9421 199.177 88.871C198.804 88.7998 198.421 88.8026 198.049 88.8794C197.679 88.9561 197.326 89.1053 197.011 89.3183C196.698 89.5313 196.429 89.8042 196.221 90.121C196.012 90.4379 195.868 90.7927 195.798 91.1653C195.747 91.429 195.733 91.6987 195.757 91.9663C184.83 97.4923 184.227 156.508 168.478 153.867C153.013 151.275 170.136 104.577 162.561 95.3128C162.616 95.1667 162.658 95.0161 162.688 94.8628C162.759 94.4899 162.757 94.1066 162.679 93.7348C162.603 93.3631 162.453 93.0101 162.24 92.696C162.027 92.3821 161.754 92.1131 161.436 91.9046C161.119 91.6961 160.764 91.5521 160.392 91.481C160.018 91.4098 159.634 91.4128 159.264 91.4896C158.892 91.5665 158.538 91.7159 158.224 91.9292C157.911 92.1425 157.641 92.4157 157.432 92.7329C157.224 93.0502 157.08 93.4054 157.009 93.7783C156.984 93.9155 156.969 94.0543 156.963 94.1938C146.25 98.9008 140.316 137.461 134.064 136.63L149.55 55.6033L282.622 81.0418ZM184.839 69.4723C184.954 68.8684 184.888 68.2439 184.648 67.6778C184.41 67.1116 184.008 66.6292 183.493 66.2915C182.98 65.9537 182.377 65.776 181.762 65.7805C181.149 65.7851 180.549 65.9719 180.04 66.3172C179.532 66.6626 179.137 67.1509 178.906 67.7206C178.675 68.2903 178.618 68.9156 178.743 69.5177C178.867 70.1197 179.167 70.6712 179.605 71.1026C180.043 71.534 180.598 71.8259 181.203 71.9413C182.013 72.0931 182.848 71.9186 183.529 71.4562C184.21 70.9936 184.681 70.2805 184.839 69.4723ZM171.834 66.9823C171.949 66.3784 171.883 65.7539 171.643 65.1878C171.405 64.6216 171.003 64.1392 170.488 63.8015C169.975 63.4637 169.372 63.286 168.757 63.2905C168.144 63.2951 167.544 63.4819 167.035 63.8272C166.527 64.1726 166.132 64.6609 165.901 65.2306C165.67 65.8003 165.613 66.4256 165.738 67.0277C165.862 67.6297 166.162 68.1812 166.6 68.6126C167.038 69.044 167.593 69.3359 168.198 69.4513C169.008 69.6059 169.845 69.4327 170.527 68.9696C171.208 68.5067 171.679 67.7918 171.834 66.9823ZM158.832 64.4998C158.947 63.8962 158.88 63.2722 158.64 62.7067C158.401 62.141 157.998 61.6592 157.485 61.322C156.972 60.9848 156.369 60.8075 155.755 60.8125C155.14 60.8174 154.542 61.0043 154.033 61.3498C153.526 61.6951 153.132 62.1833 152.901 62.7527C152.67 63.3221 152.614 63.947 152.739 64.5487C152.863 65.1502 153.163 65.7013 153.6 66.1324C154.038 66.5635 154.594 66.8549 155.197 66.9703C156.007 67.1233 156.844 66.9491 157.525 66.4859C158.206 66.0229 158.676 65.3087 158.832 64.4998Z" fill="white"/>
<path d="M279.299 150.917C287.335 158.953 291.85 169.853 291.85 181.217C291.85 192.581 287.335 203.482 279.299 211.517C271.264 219.553 260.363 224.068 248.999 224.068C237.635 224.068 226.735 219.553 218.699 211.517L248.999 181.217L279.299 150.917Z" fill="#FFE8BB"/>
<path d="M279.299 150.919L248.999 181.216L218.699 150.916C224.683 144.939 232.3 140.864 240.592 139.203C248.885 137.542 257.483 138.37 265.307 141.581C267.116 142.321 268.87 143.188 270.557 144.173C273.751 146.034 276.689 148.302 279.299 150.919Z" fill="#313553"/>
<path d="M264.644 131.558C265.78 133.247 266.044 136.223 265.313 141.582C261.713 140.102 257.929 139.121 254.063 138.666L254.093 138.366C255.569 134.259 257.035 130.836 259.27 129.833C259.207 130.489 259.37 131.147 259.733 131.698C260.096 132.249 260.636 132.659 261.263 132.86C261.892 133.061 262.57 133.042 263.185 132.805C263.8 132.567 264.316 132.127 264.646 131.556L264.644 131.558Z" fill="white"/>
<path d="M262.686 127.274C263.439 127.417 264.103 127.853 264.534 128.487C264.964 129.12 265.125 129.898 264.982 130.65C264.924 130.971 264.808 131.278 264.643 131.558C263.931 130.568 262.864 129.889 261.666 129.662C260.871 129.438 260.022 129.499 259.266 129.835C259.276 129.749 259.291 129.657 259.308 129.57C259.378 129.197 259.521 128.842 259.729 128.525C259.938 128.207 260.206 127.934 260.52 127.721C260.833 127.507 261.187 127.358 261.558 127.281C261.93 127.205 262.314 127.202 262.686 127.274Z" fill="#313553"/>
<path d="M264.641 131.558C264.311 132.129 263.795 132.569 263.18 132.806C262.565 133.043 261.887 133.063 261.259 132.862C260.632 132.66 260.092 132.25 259.729 131.7C259.366 131.149 259.202 130.491 259.265 129.835C260.021 129.499 260.87 129.438 261.665 129.662C262.864 129.89 263.929 130.568 264.641 131.558Z" fill="#313553"/>
<path d="M249 181.213L218.7 211.513C214.719 207.535 211.562 202.812 209.406 197.613C207.252 192.414 206.142 186.841 206.142 181.213C206.142 175.585 207.252 170.013 209.406 164.814C211.562 159.615 214.719 154.891 218.7 150.913L249 181.213Z" fill="#ED5564"/>
<path d="M225.678 109.843C226.051 109.914 226.405 110.057 226.723 110.265C227.04 110.473 227.314 110.742 227.527 111.055C227.74 111.369 227.89 111.722 227.967 112.094C228.043 112.465 228.046 112.848 227.974 113.221C227.917 113.544 227.8 113.853 227.629 114.133C227.112 113.36 226.314 112.818 225.403 112.623C224.877 112.493 224.329 112.47 223.794 112.555C223.26 112.641 222.747 112.832 222.286 113.119C222.214 112.662 222.255 112.195 222.402 111.757C222.549 111.318 222.799 110.922 223.132 110.601C223.464 110.28 223.869 110.043 224.313 109.911C224.755 109.779 225.223 109.756 225.678 109.843Z" fill="#313553"/>
<path d="M227.629 114.133C230.971 118.894 227.179 133.132 227.797 143.983C222.256 147.144 217.489 151.5 213.844 156.735C210.199 161.968 207.766 167.95 206.723 174.243L180.038 169.143L129.688 159.519L133.562 139.242L134.065 136.636C140.317 137.467 146.249 98.9068 156.977 94.2013C156.947 94.8898 157.165 95.5662 157.591 96.1084C158.015 96.6505 158.621 97.0228 159.296 97.1581C159.973 97.2933 160.675 97.1826 161.275 96.8458C161.876 96.5092 162.338 95.9686 162.575 95.3218C170.15 104.586 153.028 151.284 168.493 153.876C184.243 156.517 184.843 97.5013 195.772 91.9753C195.826 92.566 196.061 93.1255 196.445 93.5778C196.828 94.03 197.342 94.353 197.917 94.5027C198.49 94.6525 199.096 94.6216 199.652 94.4145C200.207 94.2072 200.686 93.8338 201.022 93.3448C208.39 102.456 193.672 142.791 203.603 144.399C213.466 145.99 214.703 117.667 222.278 113.124C222.368 113.714 222.638 114.261 223.054 114.691C223.468 115.12 224.005 115.411 224.591 115.522C225.178 115.633 225.784 115.56 226.327 115.312C226.87 115.064 227.321 114.654 227.621 114.138L227.629 114.133Z" fill="white"/>
<path d="M225.402 112.622C226.313 112.817 227.111 113.359 227.628 114.132C227.328 114.648 226.877 115.059 226.334 115.306C225.791 115.554 225.185 115.628 224.598 115.517C224.012 115.405 223.475 115.115 223.061 114.685C222.645 114.256 222.375 113.708 222.285 113.118C222.746 112.832 223.259 112.64 223.794 112.555C224.328 112.469 224.876 112.492 225.402 112.622Z" fill="#313553"/>
<path d="M199.188 88.8726C199.941 89.0174 200.606 89.4545 201.036 90.0882C201.467 90.722 201.629 91.5006 201.486 92.2536C201.413 92.6442 201.257 93.0146 201.029 93.3396C200.321 92.4383 199.307 91.8281 198.179 91.6251C197.358 91.4633 196.508 91.5849 195.765 91.9701C195.741 91.7025 195.755 91.4328 195.806 91.1691C195.876 90.7959 196.02 90.4404 196.229 90.1229C196.437 89.8053 196.706 89.532 197.021 89.3186C197.334 89.1053 197.688 88.956 198.06 88.8795C198.432 88.803 198.815 88.8006 199.188 88.8726Z" fill="#313553"/>
<path d="M201.027 93.3407C200.691 93.8295 200.213 94.203 199.658 94.4103C199.101 94.6175 198.495 94.6482 197.922 94.4985C197.348 94.3488 196.833 94.0259 196.451 93.5736C196.067 93.1214 195.831 92.5619 195.777 91.9712C196.52 91.586 197.37 91.4643 198.191 91.6262C199.314 91.8323 200.322 92.4422 201.027 93.3407Z" fill="#313553"/>
<path d="M182.369 65.832C182.973 65.9468 183.53 66.2385 183.969 66.6701C184.409 67.1016 184.709 67.6538 184.835 68.2565C184.959 68.8592 184.902 69.4854 184.671 70.0559C184.44 70.6265 184.046 71.1156 183.536 71.4615C183.027 71.8074 182.427 71.9946 181.812 71.9993C181.196 72.0038 180.593 71.8259 180.078 71.4876C179.564 71.1494 179.162 70.6662 178.922 70.0992C178.683 69.5322 178.617 68.907 178.733 68.3025C178.89 67.494 179.36 66.7805 180.041 66.3176C180.723 65.8548 181.559 65.6802 182.369 65.832Z" fill="#FFE8BB"/>
<path d="M169.362 63.346C169.966 63.4611 170.521 63.7527 170.961 64.1839C171.399 64.6153 171.699 65.1667 171.823 65.7688C171.948 66.3708 171.891 66.9963 171.66 67.5661C171.43 68.136 171.034 68.6245 170.526 68.97C170.017 69.3154 169.419 69.5023 168.804 69.507C168.189 69.5116 167.586 69.3339 167.073 68.9961C166.558 68.6584 166.156 68.1759 165.918 67.6096C165.678 67.0434 165.612 66.4188 165.727 65.815C165.882 65.0058 166.351 64.2912 167.034 63.8281C167.715 63.3652 168.552 63.1917 169.362 63.346Z" fill="#FFE8BB"/>
<path d="M159.279 197.531L168.522 246.527L161.181 247.912L151.943 198.916L159.279 197.531Z" fill="#ED5564"/>
<path d="M160.402 91.4841C161.155 91.6287 161.82 92.0661 162.25 92.7002C162.681 93.3344 162.843 94.1135 162.7 94.8666C162.67 95.0201 162.628 95.1705 162.573 95.3166C161.919 94.4903 160.974 93.9443 159.931 93.7896C158.928 93.6336 157.899 93.7749 156.975 94.1961C156.981 94.0568 156.996 93.9179 157.021 93.7806C157.165 93.0279 157.603 92.3634 158.236 91.9328C158.871 91.5021 159.649 91.3409 160.402 91.4841Z" fill="#313553"/>
<path d="M159.932 93.7907C160.974 93.9454 161.919 94.4915 162.573 95.3177C162.336 95.9645 161.874 96.505 161.273 96.8417C160.673 97.1785 159.971 97.2892 159.294 97.1539C158.619 97.0187 158.013 96.6464 157.589 96.1042C157.163 95.5621 156.945 94.8857 156.975 94.1972C157.899 93.776 158.928 93.6347 159.932 93.7907Z" fill="#313553"/>
<path d="M154.269 170.97L146.93 172.355L151.944 198.929L159.282 197.544L154.269 170.97Z" fill="#FFE8BB"/>
<path d="M156.362 60.8616C156.967 60.9767 157.522 61.2683 157.961 61.6995C158.399 62.1308 158.699 62.6823 158.824 63.2844C158.948 63.8864 158.891 64.5119 158.66 65.0817C158.431 65.6514 158.035 66.14 157.526 66.4856C157.018 66.831 156.419 67.0179 155.804 67.0226C155.189 67.0272 154.586 66.8493 154.073 66.5117C153.559 66.1739 153.157 65.6915 152.918 65.1252C152.678 64.559 152.612 63.9344 152.728 63.3306C152.884 62.522 153.353 61.808 154.034 61.3452C154.717 60.8825 155.554 60.7085 156.362 60.8616Z" fill="#FFE8BB"/>
<path d="M143.876 229.891L147.753 250.441V250.446L140.417 251.826L136.538 231.274L143.876 229.891Z" fill="#ED5564"/>
<path d="M133.506 174.885L126.167 176.269L136.546 231.283L143.885 229.899L133.506 174.885Z" fill="#FFE8BB"/>
<path d="M120.013 217.387L126.985 254.36L119.647 255.745L112.67 218.771L120.007 217.387H120.013Z" fill="#ED5564"/>
<path d="M112.734 178.791L120.015 217.388H120.009L112.672 218.772L105.391 180.176L112.734 178.791Z" fill="#FFE8BB"/>
<path d="M110.366 59.9804C112.591 68.414 111.958 77.3474 108.566 85.3829C102.725 98.9601 101.18 114 104.139 128.481L104.297 129.243C104.695 131.129 104.357 133.095 103.354 134.74C102.35 136.385 100.755 137.584 98.8967 138.093L97.6532 138.417L97.6382 138.361L82.7117 81.3929C81.6272 87.2129 78.3407 87.1829 75.5567 85.1339C77.3732 81.0269 77.0027 74.3849 73.2242 75.3734C69.1937 76.4234 71.9477 82.4774 75.5567 85.1339C74.1422 88.3394 71.3942 90.0014 67.9067 85.2719L82.8302 142.248L82.8452 142.299L81.8822 142.552C81.2801 142.702 80.6621 142.779 80.0417 142.78C78.4344 142.777 76.8699 142.261 75.5754 141.309C74.2808 140.356 73.3233 139.016 72.8417 137.482C68.3306 123.154 59.5386 110.551 47.6492 101.37C42.6683 97.503 38.6807 92.5047 36.017 86.7893C33.3533 81.0738 32.0901 74.8058 32.3322 68.5047C32.5743 62.2037 34.3148 56.051 37.4091 50.5568C40.5036 45.0626 44.8629 40.385 50.1258 36.9117C55.3889 33.4385 61.4037 31.2695 67.6722 30.5847C73.9406 29.9 80.282 30.7191 86.1707 32.9742C92.0594 35.2293 97.3259 38.8554 101.534 43.5519C105.741 48.2484 108.769 53.8802 110.366 59.9804Z" fill="#FFE8BB"/>
<path d="M106.536 147.953C106.665 148.435 106.696 148.939 106.629 149.434C106.562 149.929 106.398 150.405 106.146 150.837C105.894 151.268 105.559 151.645 105.161 151.947C104.762 152.247 104.308 152.467 103.824 152.592L84.9662 157.53C84.483 157.656 83.9798 157.686 83.4852 157.619C82.9905 157.55 82.5141 157.384 82.0833 157.132C81.6524 156.88 81.2756 156.545 80.9741 156.147C80.6727 155.75 80.4527 155.295 80.3267 154.812C80.2431 154.499 80.2008 154.175 80.2007 153.849C80.2019 153.009 80.481 152.193 80.9946 151.527C81.5084 150.862 82.2275 150.385 83.0402 150.172L101.897 145.234C102.721 145.019 103.594 145.085 104.376 145.422C104.905 145.652 105.375 145.999 105.749 146.437C106.123 146.876 106.392 147.394 106.536 147.953Z" fill="#ED5564"/>
<path d="M104.661 250.034L97.322 251.417L98.8787 259.673L106.218 258.29L104.661 250.034Z" fill="#ED5564"/>
<path d="M104.665 152.434C104.828 153.066 104.912 153.714 104.912 154.366C104.91 156.046 104.351 157.678 103.324 159.009C102.297 160.338 100.858 161.29 99.2332 161.716L92.8702 163.38C91.904 163.633 90.8974 163.695 89.9077 163.56C88.9178 163.423 87.9646 163.095 87.1024 162.591C86.24 162.085 85.4857 161.416 84.8824 160.62C84.2791 159.823 83.8388 158.916 83.5867 157.95L104.665 152.434Z" fill="#ED5564"/>
<path d="M91.9626 182.711L104.659 250.027L97.3221 251.411L84.6201 184.096L91.9626 182.711Z" fill="#FFE8BB"/>
<path d="M104.6 140.534C104.68 140.849 104.721 141.173 104.722 141.499C104.722 142.34 104.443 143.157 103.93 143.823C103.416 144.489 102.696 144.966 101.882 145.18L83.0257 150.118C82.4513 150.269 81.8491 150.284 81.2683 150.158C80.6873 150.034 80.1443 149.773 79.6837 149.398C79.2416 149.04 78.8849 148.588 78.6392 148.075C78.3935 147.562 78.2651 147.001 78.2632 146.432C78.2644 145.592 78.5435 144.776 79.0571 144.111C79.5707 143.446 80.29 142.969 81.1027 142.756L81.8842 142.553L82.8472 142.3L97.6522 138.425L98.8957 138.101L99.9592 137.822C100.934 137.568 101.97 137.71 102.84 138.219C103.71 138.727 104.343 139.56 104.6 140.534Z" fill="#ED5564"/>
<path d="M97.6303 138.369L97.6454 138.424L82.8404 142.299L82.8254 142.248L67.9019 85.2718C71.3909 90.0013 74.1389 88.3393 75.5519 85.1338C78.3359 87.1828 81.6224 87.2128 82.7069 81.3928L97.6303 138.369Z" fill="#FFE8BB"/>
<path d="M73.222 75.3739C77.0005 74.3854 77.371 81.0274 75.5545 85.1344C71.9455 82.4779 69.1915 76.4284 73.222 75.3739Z" fill="#FFE8BB"/>
<path d="M65.9774 206.516C66.8894 211.356 65.8415 216.362 63.0641 220.431C60.2867 224.499 56.0072 227.298 51.1664 228.213L50.2034 223.097C52.6956 222.627 55.0031 221.459 56.8562 219.726C58.7091 217.995 60.0315 215.772 60.6689 213.317C61.3064 210.863 61.2324 208.277 60.4557 205.863C59.6792 203.448 58.2318 201.305 56.2829 199.682L59.7809 195.833C63.0107 198.578 65.1984 202.349 65.9774 206.516Z" fill="#ED5564"/>
<path d="M59.7806 195.833L56.2826 199.682C54.0689 197.833 51.3163 196.75 48.4358 196.594C45.5554 196.438 42.7019 197.218 40.3016 198.818C37.9013 200.417 36.083 202.751 35.1184 205.469C34.1537 208.189 34.0945 211.145 34.9496 213.901L34.8671 213.926L29.8181 214.88C29.6801 214.393 29.5691 213.901 29.4731 213.4C28.7593 209.623 29.2354 205.717 30.8359 202.22C32.4362 198.725 35.0821 195.812 38.4082 193.885C41.7344 191.956 45.5768 191.108 49.4056 191.456C53.2342 191.806 56.8603 193.333 59.7836 195.83L59.7806 195.833Z" fill="#FFE8BB"/>
<path d="M55.1924 259.36L56.7494 267.61L42.8414 270.236L41.2844 261.98L55.1924 259.36Z" fill="#313553"/>
<path d="M52.8759 247.057L54.4329 255.307L40.5189 257.934L38.9634 249.679L52.8759 247.057Z" fill="#313553"/>
<path d="M52.2407 163.097C52.3757 163.82 52.2937 164.567 52.0046 165.242C51.7156 165.919 51.2326 166.495 50.6168 166.897C50.0009 167.297 49.2799 167.509 48.5446 167.5C47.8093 167.492 47.0929 167.267 46.4857 166.852C45.8785 166.438 45.4079 165.853 45.1333 165.17C44.8586 164.488 44.7922 163.739 44.9426 163.019C45.0929 162.301 45.4532 161.641 45.9779 161.126C46.5026 160.61 47.1683 160.262 47.8907 160.126C48.3715 160.034 48.8654 160.04 49.3442 160.141C49.8232 160.24 50.2777 160.433 50.6816 160.709C51.0856 160.985 51.4312 161.339 51.6988 161.749C51.9663 162.158 52.1504 162.616 52.2407 163.097Z" fill="#FFE8BB"/>
<path d="M50.5526 234.76L52.1096 243.009L38.1956 245.635L36.6401 237.381L50.5526 234.76Z" fill="#313553"/>
<path d="M50.2034 223.096L51.1664 228.213C46.5839 229.077 41.8442 228.186 37.8887 225.715C33.9331 223.246 31.0513 219.379 29.8154 214.882L34.8644 213.928L34.9469 213.903C35.9171 217.041 38.0086 219.712 40.8223 221.409C43.636 223.104 46.9753 223.705 50.2034 223.096Z" fill="#313553"/>
<path d="M36.6647 166.034C36.8009 166.757 36.7199 167.504 36.4318 168.18C36.1436 168.857 35.6614 169.433 35.0458 169.836C34.4303 170.238 33.7093 170.45 32.9738 170.442C32.2384 170.436 31.5214 170.211 30.9137 169.797C30.3059 169.382 29.8346 168.797 29.5594 168.116C29.2841 167.433 29.2172 166.685 29.3672 165.965C29.5172 165.245 29.8772 164.585 30.4018 164.069C30.9265 163.554 31.5922 163.206 32.3147 163.068C32.795 162.977 33.2887 162.981 33.7673 163.082C34.246 163.181 34.7002 163.374 35.1041 163.65C35.5081 163.925 35.8538 164.277 36.1217 164.687C36.3895 165.096 36.574 165.554 36.6647 166.034Z" fill="#FFE8BB"/>
<path d="M21.0886 168.975C21.2238 169.698 21.1416 170.445 20.8525 171.12C20.5635 171.797 20.0805 172.373 19.4647 172.775C18.849 173.175 18.1278 173.387 17.3925 173.378C16.6573 173.37 15.9408 173.145 15.3336 172.73C14.7264 172.316 14.2558 171.731 13.9812 171.048C13.7065 170.366 13.6402 169.617 13.7905 168.897C13.9408 168.179 14.3011 167.519 14.8258 167.004C15.3505 166.488 16.0162 166.14 16.7386 166.004C17.2194 165.912 17.7135 165.917 18.1926 166.017C18.6715 166.118 19.1262 166.311 19.5303 166.587C19.9344 166.863 20.28 167.216 20.5474 167.625C20.8149 168.036 20.9988 168.494 21.0886 168.975Z" fill="#FFE8BB"/>
<path d="M98.8925 138.1C100.751 137.592 102.346 136.392 103.349 134.747C104.353 133.102 104.69 131.136 104.292 129.25L104.135 128.488C101.176 114.007 102.721 98.9675 108.561 85.3903C111.428 78.5636 112.328 71.071 111.158 63.7597C109.988 56.4485 106.795 49.6105 101.942 44.0192C97.088 38.4278 90.7665 34.3061 83.6924 32.1203C76.6181 29.9345 69.0734 29.7719 61.9115 31.6507C54.7497 33.5296 48.2564 37.3748 43.1661 42.7519C38.076 48.1288 34.5918 54.8228 33.108 62.0768C31.6241 69.3308 32.1995 76.8553 34.7694 83.7992C37.3392 90.7432 41.8007 96.8296 47.6495 101.37C59.5362 110.552 68.3253 123.155 72.8345 137.482C73.316 139.016 74.2736 140.356 75.5682 141.309C76.8627 142.261 78.4271 142.777 80.0345 142.78C80.6549 142.778 81.2729 142.702 81.875 142.552" stroke="#313553" stroke-width="0.254595" stroke-linecap="round" stroke-linejoin="round"/>
<path d="M79.6778 149.4C79.2358 149.042 78.8791 148.59 78.6334 148.077C78.3877 147.564 78.2593 147.003 78.2573 146.434C78.2585 145.594 78.5377 144.778 79.0513 144.113C79.5649 143.448 80.2841 142.971 81.0968 142.758L81.8783 142.555L82.8413 142.302L97.6463 138.427L98.8898 138.103L99.9533 137.824C100.437 137.697 100.94 137.666 101.436 137.733C101.931 137.801 102.408 137.965 102.84 138.217C103.272 138.469 103.65 138.803 103.952 139.201C104.255 139.599 104.476 140.053 104.603 140.536C104.684 140.852 104.724 141.175 104.725 141.501C104.725 142.342 104.447 143.16 103.933 143.826C103.419 144.492 102.699 144.969 101.885 145.182L83.0243 150.117C82.45 150.268 81.8477 150.283 81.2669 150.157C80.686 150.033 80.143 149.772 79.6823 149.397" stroke="#313553" stroke-width="0.254595" stroke-linecap="round" stroke-linejoin="round"/>
<path d="M82.7097 81.3928L97.6317 138.369" stroke="#313553" stroke-width="0.254595" stroke-linecap="round" stroke-linejoin="round"/>
<path d="M75.5544 85.1338C78.3384 87.1828 81.6249 87.2128 82.7094 81.3928" stroke="#313553" stroke-width="0.254595" stroke-linecap="round" stroke-linejoin="round"/>
<path d="M75.5545 85.1344C77.371 81.0274 77.0005 74.3854 73.222 75.3739C69.1915 76.4284 71.9455 82.4779 75.5545 85.1344Z" stroke="#313553" stroke-width="0.254595" stroke-linecap="round" stroke-linejoin="round"/>
<path d="M82.8254 142.249L67.9019 85.273C71.3909 90.0025 74.1389 88.3405 75.5519 85.135" stroke="#313553" stroke-width="0.254595" stroke-linecap="round" stroke-linejoin="round"/>
<path d="M104.376 145.422C105.101 145.738 105.71 146.271 106.118 146.949C106.526 147.627 106.712 148.415 106.652 149.204C106.591 149.992 106.286 150.743 105.779 151.35C105.273 151.958 104.589 152.391 103.824 152.592L84.9662 157.53C84.483 157.656 83.9798 157.686 83.4852 157.619C82.9905 157.55 82.5141 157.384 82.0833 157.132C81.6524 156.88 81.2756 156.545 80.9741 156.147C80.6727 155.75 80.4527 155.295 80.3267 154.812C80.2431 154.499 80.2008 154.175 80.2007 153.849C80.2019 153.009 80.481 152.193 80.9946 151.527C81.5084 150.862 82.2275 150.385 83.0402 150.172L101.897 145.234C102.721 145.019 103.594 145.085 104.376 145.422Z" stroke="#313553" stroke-width="0.254595" stroke-linecap="round" stroke-linejoin="round"/>
<path d="M99.2332 161.718L92.8702 163.381C91.904 163.635 90.8974 163.696 89.9077 163.561C88.9178 163.425 87.9646 163.096 87.1024 162.592C86.24 162.087 85.4857 161.418 84.8824 160.621C84.2791 159.825 83.8388 158.917 83.5867 157.951L104.665 152.434C104.828 153.066 104.912 153.714 104.912 154.366C104.91 156.046 104.352 157.68 103.325 159.009C102.297 160.339 100.859 161.292 99.2332 161.718Z" stroke="#313553" stroke-width="0.254595" stroke-linecap="round" stroke-linejoin="round"/>
<path d="M270.556 144.179C280.056 149.724 287.029 158.741 290.008 169.328C292.987 179.917 291.739 191.246 286.525 200.932C281.313 210.616 272.541 217.898 262.063 221.24C251.584 224.584 240.217 223.727 230.358 218.851C220.5 213.976 212.919 205.462 209.217 195.104C205.513 184.748 205.977 173.357 210.51 163.336C215.043 153.316 223.29 145.445 233.512 141.387C243.735 137.329 255.135 137.399 265.306 141.583C267.115 142.323 268.869 143.189 270.556 144.175" stroke="#313553" stroke-width="0.254595" stroke-linecap="round" stroke-linejoin="round"/>
<path d="M104.158 144.784L104.254 144.765L133.561 139.237" stroke="#313553" stroke-width="0.254595" stroke-linecap="round" stroke-linejoin="round"/>
<path d="M180.038 169.135L196.47 256.265L30.3227 287.611L6.84619 163.136L79.6787 149.395H79.6832" stroke="#313553" stroke-width="0.254595" stroke-linecap="round" stroke-linejoin="round"/>
<path d="M27.7371 178.405L126.554 159.762" stroke="#313553" stroke-width="0.254595" stroke-linecap="round" stroke-linejoin="round"/>
<path d="M21.0886 168.975C21.2238 169.698 21.1416 170.445 20.8525 171.12C20.5635 171.797 20.0805 172.373 19.4647 172.775C18.849 173.175 18.1278 173.387 17.3925 173.378C16.6573 173.37 15.9408 173.145 15.3336 172.73C14.7264 172.316 14.2558 171.731 13.9812 171.048C13.7065 170.366 13.6402 169.617 13.7905 168.897C13.9408 168.179 14.3011 167.519 14.8258 167.004C15.3505 166.488 16.0162 166.14 16.7386 166.004C17.2194 165.912 17.7135 165.917 18.1926 166.017C18.6715 166.118 19.1262 166.311 19.5303 166.587C19.9344 166.863 20.28 167.216 20.5474 167.625C20.8149 168.036 20.9988 168.494 21.0886 168.975Z" stroke="#313553" stroke-width="0.254595" stroke-linecap="round" stroke-linejoin="round"/>
<path d="M36.6647 166.034C36.8009 166.757 36.7199 167.504 36.4318 168.18C36.1436 168.857 35.6614 169.433 35.0458 169.836C34.4303 170.238 33.7093 170.45 32.9738 170.442C32.2384 170.436 31.5214 170.211 30.9137 169.797C30.3059 169.382 29.8346 168.797 29.5594 168.116C29.2841 167.433 29.2172 166.685 29.3672 165.965C29.5172 165.245 29.8772 164.585 30.4018 164.069C30.9265 163.554 31.5922 163.206 32.3147 163.068C32.795 162.977 33.2887 162.981 33.7673 163.082C34.246 163.181 34.7002 163.374 35.1041 163.65C35.5081 163.925 35.8538 164.277 36.1217 164.687C36.3895 165.096 36.574 165.554 36.6647 166.034Z" stroke="#313553" stroke-width="0.254595" stroke-linecap="round" stroke-linejoin="round"/>
<path d="M52.2407 163.097C52.3757 163.82 52.2937 164.567 52.0046 165.242C51.7156 165.919 51.2326 166.495 50.6168 166.897C50.0009 167.297 49.2799 167.509 48.5446 167.5C47.8093 167.492 47.0929 167.267 46.4857 166.852C45.8785 166.438 45.4079 165.853 45.1333 165.17C44.8586 164.488 44.7922 163.739 44.9426 163.019C45.0929 162.301 45.4532 161.641 45.9779 161.126C46.5026 160.61 47.1683 160.262 47.8907 160.126C48.3715 160.034 48.8654 160.04 49.3442 160.141C49.8232 160.24 50.2777 160.433 50.6816 160.709C51.0856 160.985 51.4312 161.339 51.6988 161.749C51.9663 162.158 52.1504 162.616 52.2407 163.097Z" stroke="#313553" stroke-width="0.254595" stroke-linecap="round" stroke-linejoin="round"/>
<path d="M206.723 174.237L180.038 169.137L129.688 159.513L133.562 139.236L134.065 136.63L149.549 55.6033L282.623 81.0418L270.556 144.175V144.18" stroke="#313553" stroke-width="0.254595" stroke-linecap="round" stroke-linejoin="round"/>
<path d="M161.572 72.6816L267.448 92.9181" stroke="#313553" stroke-width="0.254595" stroke-linecap="round" stroke-linejoin="round"/>
<path d="M158.83 64.5009C158.715 65.1043 158.424 65.6601 157.992 66.0978C157.561 66.5355 157.009 66.8355 156.408 66.96C155.806 67.0843 155.181 67.0276 154.612 66.7968C154.042 66.5661 153.555 66.1716 153.21 65.6634C152.865 65.1552 152.677 64.5561 152.673 63.9417C152.668 63.3274 152.845 62.7253 153.183 62.2119C153.52 61.6984 154.002 61.2966 154.567 61.057C155.134 60.8176 155.758 60.7512 156.361 60.8664C156.762 60.9429 157.144 61.0975 157.485 61.3216C157.825 61.5456 158.119 61.8346 158.349 62.1721C158.578 62.5096 158.739 62.889 158.821 63.2886C158.904 63.6882 158.907 64.1001 158.83 64.5009Z" stroke="#313553" stroke-width="0.254595" stroke-linecap="round" stroke-linejoin="round"/>
<path d="M171.833 66.982C171.717 67.5857 171.426 68.1418 170.994 68.5798C170.564 69.0178 170.012 69.3179 169.41 69.4426C168.807 69.5671 168.182 69.5104 167.613 69.2795C167.043 69.0487 166.554 68.6542 166.209 68.1457C165.864 67.6373 165.677 67.0378 165.672 66.4232C165.668 65.8085 165.845 65.2063 166.182 64.6925C166.52 64.1788 167.003 63.7766 167.568 63.5369C168.134 63.2974 168.758 63.2309 169.362 63.346C169.764 63.422 170.145 63.5764 170.487 63.8003C170.829 64.0243 171.123 64.3135 171.353 64.6513C171.582 64.9891 171.743 65.3687 171.825 65.7688C171.908 66.1687 171.909 66.581 171.833 66.982Z" stroke="#313553" stroke-width="0.254595" stroke-linecap="round" stroke-linejoin="round"/>
<path d="M184.839 69.4737C184.722 70.0769 184.429 70.6322 183.997 71.0693C183.565 71.5062 183.015 71.8055 182.412 71.9291C181.81 72.0527 181.185 71.9951 180.616 71.7636C180.048 71.5322 179.559 71.1371 179.215 70.6286C178.87 70.1199 178.683 69.5207 178.68 68.9063C178.675 68.2919 178.852 67.6899 179.19 67.1766C179.529 66.6633 180.01 66.2615 180.576 66.0221C181.143 65.7828 181.767 65.7165 182.37 65.8317C183.18 65.9879 183.895 66.4592 184.357 67.142C184.821 67.8248 184.993 68.6634 184.839 69.4737Z" stroke="#313553" stroke-width="0.254595" stroke-linecap="round" stroke-linejoin="round"/>
<path d="M264.644 131.561C265.78 133.25 266.044 136.226 265.313 141.586" stroke="#313553" stroke-width="0.254595" stroke-linecap="round" stroke-linejoin="round"/>
<path d="M254.091 138.368C255.567 134.261 257.033 130.838 259.268 129.835" stroke="#313553" stroke-width="0.254595" stroke-linecap="round" stroke-linejoin="round"/>
<path d="M227.628 114.132C230.97 118.893 227.178 133.131 227.796 143.982" stroke="#313553" stroke-width="0.254595" stroke-linecap="round" stroke-linejoin="round"/>
<path d="M201.028 93.3394C208.396 102.45 193.678 142.785 203.61 144.393C213.472 145.985 214.71 117.662 222.285 113.118" stroke="#313553" stroke-width="0.254595" stroke-linecap="round" stroke-linejoin="round"/>
<path d="M162.577 95.316C170.152 104.58 153.029 151.278 168.494 153.87C184.244 156.511 184.844 97.4955 195.773 91.9695" stroke="#313553" stroke-width="0.254595" stroke-linecap="round" stroke-linejoin="round"/>
<path d="M134.064 136.63C140.316 137.461 146.248 98.9003 156.976 94.1948" stroke="#313553" stroke-width="0.254595" stroke-linecap="round" stroke-linejoin="round"/>
<path d="M59.7817 195.834C61.9919 197.721 63.7288 200.099 64.8527 202.779C65.9765 205.458 66.4559 208.364 66.2525 211.263C66.049 214.161 65.1682 216.972 63.6809 219.468C62.1937 221.964 60.1415 224.076 57.6893 225.636C55.2373 227.195 52.4534 228.156 49.562 228.444C46.6705 228.731 43.7519 228.336 41.0408 227.291C38.3299 226.245 35.902 224.577 33.9524 222.423C32.003 220.268 30.5863 217.686 29.8162 214.884C29.6782 214.397 29.5672 213.905 29.4712 213.404C28.7573 209.627 29.2334 205.721 30.8339 202.224C32.4343 198.729 35.0801 195.816 38.4062 193.889C41.7325 191.96 45.5749 191.112 49.4036 191.46C53.2322 191.81 56.8585 193.337 59.7817 195.834Z" stroke="#313553" stroke-width="0.254595" stroke-linecap="round" stroke-linejoin="round"/>
<path d="M56.2827 199.682C58.6187 201.628 60.2223 204.31 60.8297 207.289C61.437 210.266 61.0118 213.364 59.6238 216.068C58.236 218.773 55.9683 220.924 53.1944 222.167C50.4206 223.409 47.306 223.672 44.3637 222.907C41.4215 222.143 38.8271 220.4 37.0079 217.966C35.1888 215.53 34.2534 212.548 34.356 209.51C34.4585 206.471 35.5928 203.56 37.572 201.253C39.5511 198.944 42.2571 197.381 45.2442 196.817C47.1815 196.447 49.1771 196.511 51.0863 197.006C52.9955 197.501 54.7704 198.416 56.2827 199.682Z" stroke="#313553" stroke-width="0.254595" stroke-linecap="round" stroke-linejoin="round"/>
<path d="M50.2034 223.098L51.1664 228.214" stroke="#313553" stroke-width="0.254595" stroke-linecap="round" stroke-linejoin="round"/>
<path d="M56.2842 199.682L59.7822 195.833" stroke="#313553" stroke-width="0.254595" stroke-linecap="round" stroke-linejoin="round"/>
<path d="M34.8634 213.928L29.8144 214.882L29.7529 214.893" stroke="#313553" stroke-width="0.254595" stroke-linecap="round" stroke-linejoin="round"/>
<path d="M168.522 246.528L183.829 243.639L169.881 169.69" stroke="#313553" stroke-width="0.254595" stroke-linecap="round" stroke-linejoin="round"/>
<path d="M147.754 250.441L161.182 247.911" stroke="#313553" stroke-width="0.254595" stroke-linecap="round" stroke-linejoin="round"/>
<path d="M140.417 251.827L147.753 250.447" stroke="#313553" stroke-width="0.254595" stroke-linecap="round" stroke-linejoin="round"/>
<path d="M126.987 254.361L140.418 251.831" stroke="#313553" stroke-width="0.254595" stroke-linecap="round" stroke-linejoin="round"/>
<path d="M106.217 258.282L119.648 255.747" stroke="#313553" stroke-width="0.254595" stroke-linecap="round" stroke-linejoin="round"/>
<path d="M84.988 262.286L98.881 259.665" stroke="#313553" stroke-width="0.254595" stroke-linecap="round" stroke-linejoin="round"/>
<path d="M52.1096 243.009L38.1956 245.635L36.6401 237.381L50.5526 234.76L52.1096 243.009Z" stroke="#313553" stroke-width="0.254595" stroke-linecap="round" stroke-linejoin="round"/>
<path d="M54.4329 255.307L40.5189 257.934L38.9634 249.679L52.8759 247.057L54.4329 255.307Z" stroke="#313553" stroke-width="0.254595" stroke-linecap="round" stroke-linejoin="round"/>
<path d="M56.7494 267.61L42.8414 270.236L41.2844 261.98L55.1924 259.36L56.7494 267.61Z" stroke="#313553" stroke-width="0.254595" stroke-linecap="round" stroke-linejoin="round"/>
<path d="M106.216 258.281L98.8791 259.666L97.3221 251.411L84.6201 184.096L91.9626 182.711L104.659 250.027L106.216 258.281Z" stroke="#313553" stroke-width="0.254595" stroke-linecap="round" stroke-linejoin="round"/>
<path d="M126.987 254.361L119.649 255.746L112.672 218.772L105.391 180.176L112.734 178.791L120.015 217.388L126.987 254.361Z" stroke="#313553" stroke-width="0.254595" stroke-linecap="round" stroke-linejoin="round"/>
<path d="M147.753 250.445L140.416 251.829V251.825L136.537 231.273L126.159 176.26L133.495 174.875L143.875 229.891L147.753 250.44V250.445Z" stroke="#313553" stroke-width="0.254595" stroke-linecap="round" stroke-linejoin="round"/>
<path d="M168.522 246.527L161.181 247.911L151.942 198.915L146.926 172.341L154.264 170.957L159.279 197.531L168.522 246.527Z" stroke="#313553" stroke-width="0.254595" stroke-linecap="round" stroke-linejoin="round"/>
<path d="M97.322 251.411L104.659 250.026" stroke="#313553" stroke-width="0.254595" stroke-linecap="round" stroke-linejoin="round"/>
<path d="M112.67 218.771L120.007 217.387" stroke="#313553" stroke-width="0.254595" stroke-linecap="round" stroke-linejoin="round"/>
<path d="M136.538 231.274L143.876 229.891" stroke="#313553" stroke-width="0.254595" stroke-linecap="round" stroke-linejoin="round"/>
<path d="M151.943 198.916L159.279 197.531" stroke="#313553" stroke-width="0.254595" stroke-linecap="round" stroke-linejoin="round"/>
<path d="M279.296 150.917L248.999 181.214L218.703 211.51" stroke="#313553" stroke-width="0.254595" stroke-linecap="round" stroke-linejoin="round"/>
<path d="M218.703 150.917L248.999 181.214" stroke="#313553" stroke-width="0.254595" stroke-linecap="round" stroke-linejoin="round"/>
<path d="M59.4375 25.0358L55.7715 11.4458" stroke="#313553" stroke-width="0.254595" stroke-linecap="round" stroke-linejoin="round"/>
<path d="M75.3235 25.0355L76.804 12.8511" stroke="#313553" stroke-width="0.254595" stroke-linecap="round" stroke-linejoin="round"/>
<path d="M45.4123 34.3859L37.3408 25.0364" stroke="#313553" stroke-width="0.254595" stroke-linecap="round" stroke-linejoin="round"/>
</svg>
