<svg width="301" height="301" viewBox="0 0 301 301" fill="none" xmlns="http://www.w3.org/2000/svg">
<path d="M226.398 293.226H168.364C172.233 286.254 176.359 277.336 177.783 271.117C178.695 267.643 178.201 263.949 176.409 260.836L183.244 250.194C186.447 248.98 178.057 243.622 178.057 243.622L189.667 219.172C192.168 217.132 194.527 214.927 196.732 212.572C198.054 211.203 198.991 209.509 199.447 207.661C199.677 206.794 199.74 205.893 199.633 205.002L199.689 204.99C199.689 204.99 229.122 206.106 240.612 218.095C259.221 237.513 253.177 293.22 253.177 293.22H226.398V293.226Z" fill="#4FC1E8"/>
<path d="M251.479 79.5791L200.479 115.381L212.929 46.8821L251.479 79.5791ZM208.596 102.694L242.133 79.1441L216.775 57.6491L208.596 102.694Z" fill="#313553"/>
<path d="M142.947 190.735C144.546 189.235 147.597 188.015 151.464 190.285C155.64 192.74 157.183 198.701 161.887 198.998C166.591 199.295 173.508 195.427 180.414 190.735C183.348 188.746 187.024 186.059 190.563 183.565C191.949 182.626 193.228 181.537 194.376 180.317C195.463 178.957 196.452 177.521 197.337 176.021C199.018 173.647 201.634 173.428 202.381 175.18C202.57 175.903 202.602 176.659 202.476 177.395C202.35 178.133 202.069 178.835 201.651 179.455C200.316 181.988 198.729 184.382 196.914 186.598L197.145 186.79C197.874 187.709 198.351 188.803 198.528 189.964C198.705 191.123 198.577 192.31 198.156 193.405L198.315 193.46C199 194.728 199.333 196.157 199.278 197.597C199.222 199.037 198.781 200.435 198.001 201.647C198.826 202.606 199.389 203.764 199.633 205.004C199.74 205.895 199.677 206.797 199.447 207.664C198.991 209.512 198.054 211.205 196.732 212.575C194.527 214.93 192.168 217.135 189.667 219.175L178.057 243.625L175.606 248.789L175.485 249.109C165.7 245.35 151.485 234.859 151.485 234.859L155.698 227.891L160.813 219.442C157.632 216.634 156.643 216.227 155.226 213.469C153.784 210.634 152.767 207.601 152.209 204.469C151.44 200.92 148.863 198.326 145.111 196.244C144.029 195.715 143.079 194.951 142.33 194.008C141.999 193.577 141.842 193.039 141.891 192.497C141.94 191.956 142.191 191.453 142.594 191.09C142.705 190.966 142.825 190.852 142.947 190.735Z" fill="#FFE8BB"/>
<path d="M195.925 75.7902L193.1 78.8292L190.325 76.2522L187.556 73.6752L190.381 70.6362L195.925 75.7902Z" fill="#313553"/>
<path d="M189.99 172.864C189.974 172.862 189.957 172.858 189.941 172.853C189.957 172.858 189.974 172.862 189.99 172.864ZM190.011 172.864C190.566 173.029 194.309 174.176 194.243 175.88C194.177 177.721 192.902 177.721 192.902 177.721C193.155 177.952 193.35 178.238 193.472 178.558C193.595 178.877 193.64 179.221 193.605 179.561L194.375 180.311C193.227 181.531 191.948 182.62 190.562 183.559C187.023 186.053 183.347 188.74 180.413 190.729C173.513 195.421 166.595 199.295 161.886 198.992C157.178 198.689 155.639 192.734 151.463 190.279C147.59 188.003 144.545 189.229 142.946 190.729C141.699 191.383 140.616 190.345 140.045 188.929C139.772 188.245 139.629 187.517 139.622 186.781C139.622 186.781 137.372 182.539 134.028 177.605C133.078 176.081 131.865 174.737 130.446 173.638C130.43 173.627 130.413 173.611 130.397 173.6C129.893 173.162 129.262 172.9 128.597 172.85C123.716 165.914 121.488 157.456 122.318 149.015C122.318 148.96 122.318 148.927 122.318 148.927C122.484 146.913 122.813 144.916 123.302 142.955C122.219 148.582 129.62 151.603 131.334 153.241C133.125 154.949 130.734 158.395 131.334 163.454C131.559 166.283 132.421 169.025 133.854 171.475C135.288 173.923 137.257 176.017 139.614 177.598C145.055 181.048 150.131 178.91 155.906 178.988C154.79 174.262 156.323 169.646 162.323 166.642C166.73 164.21 171.636 162.824 176.664 162.592C178.577 162.497 180.465 163.043 182.033 164.144C183.599 165.245 184.754 166.837 185.312 168.668C185.312 168.668 186.647 163.477 186.279 161.977C185.411 158.401 184.154 154.93 182.529 151.627C185.144 154.817 187.215 158.414 188.661 162.277C188.661 162.277 191.282 164.189 191.282 165.893C191.286 166.352 191.111 166.795 190.793 167.126C190.475 167.458 190.038 167.65 189.579 167.662C189.579 167.662 192.279 169.222 191.991 171.277C191.994 171.521 191.942 171.764 191.838 171.985C191.733 172.207 191.58 172.402 191.39 172.555C191.198 172.709 190.976 172.817 190.736 172.871C190.497 172.925 190.25 172.925 190.011 172.87V172.864ZM181.407 178.187C184.628 177.847 184.644 173.687 182.94 169.579C179.001 161.815 171.819 165.995 166.166 168.122C160.512 170.249 157.232 172.672 159.941 178.969C160.991 181.369 164.66 185.446 168.446 183.863C172.232 182.281 170.837 178.6 174.146 177.436C177.99 176.078 178.473 178.507 181.407 178.193V178.187Z" fill="#313553"/>
<path d="M190.325 76.2525L193.1 78.8295L169.017 104.741L168.819 101.889L166.242 102.164L166.176 99.4335L163.473 99.5865L187.556 73.6755L190.325 76.2525Z" fill="#FFE8BB"/>
<path d="M163.374 147.667C164.901 148.678 165.489 146.167 167.484 143.854C169.176 141.806 171.473 140.345 174.044 139.678C172.832 139.361 171.563 139.328 170.336 139.58C169.107 139.833 167.955 140.365 166.967 141.135C163.583 143.782 161.853 146.662 163.374 147.667ZM139.224 155.058C144.108 149.658 142.604 148.288 148.899 146.887C151.883 146.223 153.822 147.985 153.653 146.161C153.483 144.337 150.131 143.409 146.196 145.146C142.325 146.859 139.308 154.81 139.224 155.058ZM186.29 161.986C186.657 163.486 185.322 168.678 185.322 168.678C184.764 166.846 183.609 165.253 182.043 164.154C180.476 163.053 178.587 162.507 176.675 162.601C171.647 162.834 166.74 164.22 162.333 166.651C156.333 169.651 154.8 174.271 155.916 178.998C150.141 178.92 145.065 181.057 139.625 177.607C137.268 176.026 135.299 173.932 133.865 171.484C132.431 169.035 131.57 166.293 131.345 163.464C130.745 158.404 133.136 154.959 131.345 153.25C129.63 151.612 122.229 148.591 123.312 142.965C123.693 141.377 124.215 139.827 124.872 138.333C130.532 125.772 145.707 122.338 153.663 122.344C160.817 122.344 171.57 128.916 175.701 135.118C178.043 138.624 176.954 139.596 178.031 142.903V142.915C178.301 143.731 178.629 144.526 179.015 145.294C179.498 146.278 180.948 148.414 182.525 151.635C184.154 154.938 185.415 158.409 186.287 161.986H186.29ZM172.905 149.32C173.856 149.14 174.432 148.57 174.191 147.277C173.949 145.984 172.982 145.101 172.031 145.278C171.518 145.47 171.098 145.852 170.858 146.344C170.619 146.837 170.579 147.403 170.745 147.925C170.774 148.169 170.855 148.404 170.985 148.613C171.114 148.821 171.288 148.999 171.494 149.132C171.701 149.265 171.933 149.352 172.178 149.384C172.421 149.417 172.668 149.395 172.902 149.32H172.905ZM150.185 158.118C151.212 157.92 151.835 157.293 151.575 155.904C151.316 154.515 150.267 153.546 149.235 153.744C148.68 153.951 148.225 154.363 147.966 154.897C147.707 155.43 147.664 156.043 147.845 156.607C147.875 156.871 147.963 157.126 148.104 157.353C148.244 157.578 148.432 157.771 148.656 157.915C148.88 158.059 149.132 158.152 149.396 158.188C149.66 158.223 149.928 158.199 150.182 158.118H150.185Z" fill="#FFE8BB"/>
<path d="M183.242 250.193L176.407 260.835C178.199 263.948 178.693 267.642 177.781 271.116C176.357 277.335 172.231 286.253 168.362 293.225H112.27C116.44 287.105 133.177 256.925 137.17 252.291C140.818 248.055 143.966 247.286 143.966 247.286L151.489 234.852C151.489 234.852 165.703 245.352 175.489 249.102C177.142 249.795 178.891 250.236 180.676 250.41C181.537 250.502 182.408 250.428 183.242 250.193Z" fill="#4FC1E8"/>
<path d="M142.355 159.541C145.078 159.416 147.791 159.134 150.481 158.699C152.86 158.156 153.008 154.831 153.008 154.831C153.008 154.831 152.179 152.431 148.799 153.442C146.185 154.222 142.355 159.541 142.355 159.541Z" fill="white"/>
<path d="M164.875 150.751C167.602 150.694 170.32 150.412 173 149.909C176.386 148.937 175.265 145.085 175.265 145.085C175.265 145.085 174.787 144.008 171.325 144.652C169.534 144.982 164.875 150.751 164.875 150.751Z" fill="white"/>
<path d="M182.941 169.588C184.645 173.696 184.629 177.856 181.408 178.196C178.474 178.51 177.991 176.081 174.139 177.446C170.839 178.61 172.233 182.297 168.439 183.874C164.646 185.45 160.978 181.385 159.934 178.979C157.225 172.679 160.5 170.258 166.159 168.133C171.819 166.007 179.002 161.824 182.941 169.588Z" fill="#FFE8BB"/>
<path d="M166.976 141.137C167.964 140.367 169.116 139.835 170.345 139.582C171.572 139.33 172.841 139.363 174.053 139.68C171.482 140.347 169.185 141.808 167.493 143.856C165.498 146.175 164.91 148.68 163.383 147.669C161.856 146.658 163.584 143.784 166.976 141.137Z" fill="#313553"/>
<path d="M161.286 105.587C162.561 105.269 163.825 106.104 163.192 107.361L160.132 108.741L161.281 105.591L161.286 105.587Z" fill="#313553"/>
<path d="M138.857 209.515L142.472 208.285L138.857 189.251C139.111 189.191 139.363 189.115 139.621 189.032L140.044 188.927C140.615 190.351 141.694 191.389 142.945 190.727C142.819 190.843 142.703 190.958 142.594 191.08C142.19 191.443 141.939 191.945 141.89 192.487C141.841 193.028 141.998 193.567 142.33 193.997C143.078 194.941 144.028 195.706 145.111 196.234C148.861 198.316 151.439 200.909 152.209 204.458C152.767 207.59 153.782 210.623 155.225 213.458C156.643 216.217 157.625 216.623 160.813 219.431L155.698 227.881C138.857 221.81 136.171 208.277 136.171 208.277C136.692 208.162 137.237 208.219 137.723 208.442C138.208 208.666 138.607 209.042 138.857 209.515Z" fill="#FFE8BB"/>
<path d="M155.7 227.887L151.486 234.855L143.964 247.288C143.964 247.288 140.814 248.058 137.167 252.294C133.179 256.926 116.442 287.107 112.267 293.227H77.1253C77.1253 293.227 75.0103 260.283 83.4658 240.112C91.9213 219.942 136.18 208.284 136.18 208.284C136.18 208.284 138.859 221.817 155.7 227.887Z" fill="#4FC1E8"/>
<path d="M153.65 146.162C153.82 147.986 151.88 146.224 148.897 146.888C142.597 148.289 144.106 149.657 139.222 155.059C139.309 154.811 142.325 146.86 146.194 145.147C150.128 143.41 153.485 144.338 153.65 146.162Z" fill="#313553"/>
<path d="M140.044 188.926L139.621 189.031C139.363 189.113 139.111 189.19 138.858 189.25C127.71 192.13 124.308 177.25 125.896 174.431C127.386 171.772 130 173.344 130.396 173.597C130.413 173.608 130.429 173.624 130.446 173.635C131.865 174.734 133.078 176.078 134.028 177.602C137.374 182.536 139.621 186.778 139.621 186.778C139.629 187.514 139.772 188.242 140.044 188.926Z" fill="#FFE8BB"/>
<path d="M110.102 121.333C111.612 123.84 104.058 131.175 93.2281 137.713C82.3981 144.252 72.3871 147.52 70.8781 145.009C69.3691 142.498 76.9171 135.169 87.7456 128.635C98.5741 122.101 108.585 118.828 110.102 121.333Z" fill="#4FC1E8"/>
<path d="M90.2218 88.4014L110.101 121.334C108.585 118.829 98.5798 122.097 87.7513 128.636C76.9228 135.174 69.3598 142.505 70.8763 145.01L50.9968 112.088C52.5133 114.593 62.5198 111.323 73.3468 104.784C84.1738 98.2459 91.7338 90.9169 90.2218 88.4014Z" fill="#4FC1E8"/>
<path d="M90.2219 88.4007C91.7339 90.9117 84.1844 98.2407 73.3484 104.779C62.5124 111.318 52.5134 114.588 50.9984 112.083C49.4834 109.578 57.0434 102.241 67.8719 95.7027C78.7004 89.1642 88.7114 85.9002 90.2219 88.4007Z" fill="#4FC1E8"/>
<path d="M160.813 175.564L162.555 175.674C163.533 174.307 164.673 173.065 165.951 171.976C166.866 171.352 167.911 170.941 169.006 170.776" stroke="#313553" stroke-width="0.276063" stroke-linecap="round" stroke-linejoin="round"/>
<path d="M170.629 170.135C172.201 169.644 173.812 169.281 175.442 169.052C176.653 169.269 177.844 169.578 179.008 169.976L179.839 168.678" stroke="#313553" stroke-width="0.276063" stroke-linecap="round" stroke-linejoin="round"/>
<path d="M167.66 177.035C169.364 177.007 171.056 176.743 172.688 176.249C174.264 175.603 175.781 174.823 177.221 173.914" stroke="#313553" stroke-width="0.276063" stroke-linecap="round" stroke-linejoin="round"/>
<path d="M161.365 162.603C161.394 162.144 161.566 161.706 161.859 161.35C162.058 161.092 162.348 160.92 162.669 160.864C162.99 160.809 163.321 160.875 163.596 161.05C164.634 161.562 165.796 161.769 166.947 161.65C168.288 161.5 169.128 160.177 169.647 159.387C169.767 159.214 169.935 159.082 170.131 159.009C170.328 158.935 170.542 158.923 170.745 158.974C170.949 159.025 171.132 159.138 171.268 159.297C171.406 159.454 171.493 159.651 171.516 159.859" stroke="#313553" stroke-width="0.276063" stroke-linecap="round" stroke-linejoin="round"/>
<path d="M158.666 160.274C157.897 161.956 158.398 164.713 160.453 164.434" stroke="#313553" stroke-width="0.276063" stroke-linecap="round" stroke-linejoin="round"/>
<path d="M171.864 156.102C171.864 156.102 175.78 158.502 173.265 160.887" stroke="#313553" stroke-width="0.276063" stroke-linecap="round" stroke-linejoin="round"/>
<path d="M139.226 155.059C139.313 154.811 142.329 146.86 146.198 145.147C150.132 143.41 153.489 144.338 153.654 146.162C153.819 147.986 151.884 146.224 148.901 146.888C142.602 148.289 144.107 149.657 139.226 155.059Z" stroke="#313553" stroke-width="0.276063" stroke-linecap="round" stroke-linejoin="round"/>
<path d="M163.374 147.669C164.901 148.68 165.489 146.169 167.484 143.856C169.176 141.808 171.472 140.347 174.043 139.68C172.831 139.363 171.562 139.33 170.335 139.582C169.107 139.835 167.955 140.367 166.966 141.137C163.582 143.784 161.853 146.664 163.374 147.669Z" stroke="#313553" stroke-width="0.276063" stroke-linecap="round" stroke-linejoin="round"/>
<path d="M142.355 158.965C142.355 158.965 145.085 154.752 147.41 153.838C148.968 153.292 150.631 153.12 152.267 153.333" stroke="#313553" stroke-width="0.276063" stroke-linecap="round" stroke-linejoin="round"/>
<path d="M149.906 156.031C149.763 155.213 149.365 154.462 148.769 153.883C148.148 153.305 147.593 154.003 146.863 154.147C145.402 154.421 144.335 155.152 144.676 157.015C144.748 157.633 145.05 158.201 145.523 158.605C145.996 159.01 146.604 159.22 147.226 159.196C147.46 159.194 147.693 159.172 147.923 159.13C148.275 159.094 148.614 158.978 148.915 158.792C149.216 158.606 149.471 158.356 149.661 158.057C149.852 157.76 149.973 157.423 150.015 157.072C150.058 156.721 150.02 156.365 149.906 156.031Z" fill="#313553"/>
<path d="M165.513 150.587C165.513 150.587 167.694 146.372 170.023 145.466C171.58 144.916 173.245 144.743 174.882 144.96" stroke="#313553" stroke-width="0.276063" stroke-linecap="round" stroke-linejoin="round"/>
<path d="M172.083 147.778C172.053 147.45 171.955 147.132 171.795 146.844C171.634 146.557 171.417 146.306 171.154 146.107C170.892 145.908 170.59 145.767 170.269 145.692C169.948 145.616 169.615 145.609 169.293 145.67C168.969 145.73 168.661 145.858 168.39 146.045C168.118 146.231 167.889 146.472 167.716 146.752C167.544 147.033 167.431 147.346 167.386 147.672C167.341 147.998 167.365 148.33 167.457 148.647C167.5 148.956 167.605 149.254 167.767 149.521C167.928 149.788 168.142 150.02 168.396 150.202C168.783 150.459 169.239 150.591 169.704 150.58C169.911 150.579 170.116 150.559 170.319 150.52C170.629 150.486 170.928 150.382 171.193 150.218C171.459 150.054 171.684 149.832 171.853 149.569C172.023 149.307 172.131 149.01 172.17 148.7C172.21 148.39 172.18 148.075 172.083 147.778Z" fill="#313553"/>
<path d="M163.375 147.668C163.614 148.515 164.023 149.303 164.58 149.984C165.135 150.665 165.825 151.226 166.606 151.63" stroke="#313553" stroke-width="0.276063" stroke-linecap="round" stroke-linejoin="round"/>
<path d="M130.399 173.599C130.003 173.346 127.388 171.774 125.899 174.433C124.316 177.247 127.712 192.133 138.86 189.252C139.114 189.192 139.366 189.115 139.624 189.033" stroke="#313553" stroke-width="0.276063" stroke-linecap="round" stroke-linejoin="round"/>
<path d="M131.427 177.603C129.378 177.603 128.625 180.944 130.677 183.966C131.277 184.823 132.13 185.471 133.116 185.817C134.103 186.165 135.173 186.197 136.178 185.906" stroke="#313553" stroke-width="0.276063" stroke-linecap="round" stroke-linejoin="round"/>
<path d="M143.063 190.674C143.026 190.696 142.987 190.716 142.947 190.734C141.701 191.388 140.618 190.35 140.046 188.934C139.774 188.25 139.631 187.522 139.623 186.786C139.623 186.786 137.373 182.544 134.03 177.61C133.08 176.086 131.867 174.742 130.448 173.643C130.431 173.632 130.415 173.616 130.398 173.604C129.893 173.17 129.262 172.911 128.598 172.863" stroke="#313553" stroke-width="0.276063" stroke-linecap="round" stroke-linejoin="round"/>
<path d="M122.321 149.021C121.493 157.46 123.722 165.915 128.601 172.851" stroke="#313553" stroke-width="0.276063" stroke-linecap="round" stroke-linejoin="round"/>
<path d="M178.028 142.9C176.951 139.6 178.04 138.62 175.699 135.115C171.568 128.912 160.814 122.341 153.661 122.341C145.711 122.341 130.529 125.768 124.87 138.329C124.212 139.823 123.69 141.374 123.31 142.961C122.821 144.922 122.492 146.919 122.326 148.933" stroke="#313553" stroke-width="0.276063" stroke-linecap="round" stroke-linejoin="round"/>
<path d="M182.529 151.63C180.952 148.409 179.502 146.273 179.019 145.289C178.633 144.521 178.305 143.726 178.035 142.91" stroke="#313553" stroke-width="0.276063" stroke-linecap="round" stroke-linejoin="round"/>
<path d="M123.5 142.2C123.419 142.448 123.355 142.702 123.308 142.959C122.225 148.585 129.626 151.606 131.341 153.244C133.132 154.953 130.741 158.398 131.341 163.458C131.566 166.287 132.427 169.029 133.861 171.478C135.295 173.926 137.264 176.02 139.621 177.601C145.061 181.051 150.137 178.914 155.912 178.992C154.796 174.265 156.329 169.65 162.329 166.645C166.736 164.214 171.643 162.828 176.671 162.595C178.583 162.501 180.472 163.047 182.039 164.148C183.605 165.249 184.76 166.84 185.318 168.672C185.318 168.672 186.653 163.48 186.286 161.98C185.417 158.404 184.16 154.933 182.536 151.63" stroke="#313553" stroke-width="0.276063" stroke-linecap="round" stroke-linejoin="round"/>
<path d="M190.012 172.872C190.25 172.928 190.498 172.929 190.738 172.875C190.976 172.821 191.2 172.715 191.39 172.562C191.582 172.409 191.737 172.214 191.84 171.992C191.945 171.771 191.999 171.528 191.996 171.284C192.275 169.229 189.584 167.669 189.584 167.669C190.043 167.657 190.48 167.465 190.798 167.133C191.116 166.802 191.293 166.359 191.287 165.9C191.287 164.196 188.666 162.284 188.666 162.284C187.22 158.421 185.149 154.824 182.534 151.634" stroke="#313553" stroke-width="0.276063" stroke-linecap="round" stroke-linejoin="round"/>
<path d="M189.993 172.866C189.976 172.864 189.959 172.86 189.942 172.855C189.959 172.86 189.976 172.864 189.993 172.866Z" stroke="#313553" stroke-width="0.276063" stroke-linecap="round" stroke-linejoin="round"/>
<path d="M189.991 172.865C189.991 172.865 190.002 172.865 190.012 172.865" stroke="#313553" stroke-width="0.276063" stroke-linecap="round" stroke-linejoin="round"/>
<path d="M193.606 179.57C193.641 179.23 193.596 178.886 193.473 178.567C193.351 178.247 193.156 177.961 192.903 177.73C192.903 177.73 194.178 177.73 194.244 175.889C194.31 174.185 190.567 173.039 190.012 172.873" stroke="#313553" stroke-width="0.276063" stroke-linecap="round" stroke-linejoin="round"/>
<path d="M188.286 193.958C189.928 192.573 191.725 191.258 194.187 189.332C195.187 188.519 196.101 187.604 196.912 186.602C198.727 184.386 200.314 181.992 201.649 179.459C202.068 178.839 202.348 178.137 202.474 177.399C202.6 176.663 202.569 175.907 202.38 175.184C201.63 173.432 199.017 173.651 197.335 176.025C196.45 177.525 195.46 178.961 194.374 180.321C193.227 181.541 191.947 182.63 190.561 183.569C187.023 186.063 183.346 188.75 180.412 190.739C173.512 195.431 166.594 199.305 161.886 199.002C157.177 198.699 155.638 192.744 151.462 190.289C147.588 188.013 144.544 189.239 142.945 190.739C142.819 190.854 142.704 190.97 142.594 191.091C142.191 191.454 141.939 191.957 141.891 192.498C141.842 193.04 141.999 193.578 142.33 194.009C143.078 194.952 144.028 195.716 145.11 196.245C148.86 198.327 151.44 200.921 152.209 204.47C152.767 207.602 153.784 210.635 155.226 213.47C156.643 216.228 157.626 216.635 160.813 219.443" stroke="#313553" stroke-width="0.276063" stroke-linecap="round" stroke-linejoin="round"/>
<path d="M198.315 193.464C199.001 194.731 199.332 196.161 199.278 197.601C199.223 199.041 198.782 200.439 198.002 201.651C197.318 202.863 196.488 203.986 195.53 204.996" stroke="#313553" stroke-width="0.276063" stroke-linecap="round" stroke-linejoin="round"/>
<path d="M198.001 201.649C198.826 202.607 199.389 203.765 199.633 205.006C199.74 205.897 199.677 206.798 199.447 207.665C198.991 209.513 198.054 211.207 196.732 212.576C194.527 214.931 192.168 217.136 189.667 219.176C188.484 220.136 187.239 221.02 185.941 221.819" stroke="#313553" stroke-width="0.276063" stroke-linecap="round" stroke-linejoin="round"/>
<path d="M189.667 219.173L178.057 243.623L175.606 248.788" stroke="#313553" stroke-width="0.276063" stroke-linecap="round" stroke-linejoin="round"/>
<path d="M160.813 219.439L155.698 227.889L151.485 234.856L143.962 247.29C143.962 247.29 140.812 248.059 137.166 252.295C133.177 256.927 116.44 287.109 112.266 293.229" stroke="#313553" stroke-width="0.276063" stroke-linecap="round" stroke-linejoin="round"/>
<path d="M151.486 234.852C151.486 234.852 165.7 245.352 175.486 249.102C177.139 249.795 178.888 250.236 180.673 250.41C181.537 250.502 182.41 250.427 183.245 250.19C186.448 248.975 178.058 243.618 178.058 243.618" stroke="#313553" stroke-width="0.276063" stroke-linecap="round" stroke-linejoin="round"/>
<path d="M183.244 250.194L176.409 260.837C178.201 263.949 178.695 267.644 177.783 271.118C176.359 277.337 172.233 286.254 168.364 293.226" stroke="#313553" stroke-width="0.276063" stroke-linecap="round" stroke-linejoin="round"/>
<path d="M77.1253 293.227C77.1253 293.227 75.0103 260.283 83.4658 240.112C91.9213 219.942 136.18 208.284 136.18 208.284C136.18 208.284 138.867 221.817 155.707 227.887" stroke="#313553" stroke-width="0.276063" stroke-linecap="round" stroke-linejoin="round"/>
<path d="M138.858 189.25L142.473 208.284L143.061 211.377" stroke="#313553" stroke-width="0.276063" stroke-linecap="round" stroke-linejoin="round"/>
<path d="M136.975 210.157L138.859 209.514L142.474 208.284H142.48" stroke="#313553" stroke-width="0.276063" stroke-linecap="round" stroke-linejoin="round"/>
<path d="M199.689 204.996C199.689 204.996 229.122 206.112 240.612 218.101C259.221 237.519 253.177 293.226 253.177 293.226" stroke="#313553" stroke-width="0.276063" stroke-linecap="round" stroke-linejoin="round"/>
<path d="M228.37 284.938C227.287 289.636 226.398 293.229 226.398 293.229" stroke="#313553" stroke-width="0.276063" stroke-linecap="round" stroke-linejoin="round"/>
<path d="M232.194 264.787C232.051 268.402 229.996 277.901 228.375 284.929" stroke="#313553" stroke-width="0.276063" stroke-linecap="round" stroke-linejoin="round"/>
<path d="M159.942 178.976C160.992 181.376 164.661 185.453 168.447 183.871C172.233 182.288 170.838 178.607 174.147 177.443C177.999 176.08 178.482 178.508 181.416 178.193C184.637 177.853 184.653 173.693 182.949 169.585C179.01 161.821 171.828 166.001 166.175 168.128C160.521 170.255 157.233 172.679 159.942 178.976Z" stroke="#313553" stroke-width="0.276063" stroke-linecap="round" stroke-linejoin="round"/>
<path d="M241.038 119.734L241.055 119.75C241.395 120.272 249.467 132.74 238.005 140.036C226.298 147.493 217.622 131.009 217.622 131.009C217.622 131.009 215.93 145.259 202.583 146.309C200.217 146.442 197.858 145.98 195.716 144.967C193.575 143.953 191.721 142.42 190.325 140.507C188.645 138.43 187.302 136.102 186.347 133.607" stroke="#313553" stroke-width="0.276063" stroke-linecap="round" stroke-linejoin="round"/>
<path d="M204.626 31.2621C204.776 30.9981 209.834 22.2846 219.884 24.3231C230.954 26.5731 229.373 38.2026 229.373 38.2026C229.373 38.2026 252.746 21.2796 269.24 43.8396C286.955 68.0691 264.037 85.4766 264.037 85.4766C264.037 85.4766 285.373 99.6411 271.493 116.987C257.888 133.993 241.697 120.287 241.064 119.75" stroke="#313553" stroke-width="0.276063" stroke-linecap="round" stroke-linejoin="round"/>
<path d="M79.6294 51.0503C79.5034 50.7503 75.3829 40.7648 82.7509 35.9408C90.7729 30.6908 98.6014 40.1168 98.6014 40.1168C98.6014 40.1168 101.865 14.7848 127.217 9.14785C152.568 3.51085 164.969 25.6253 164.969 25.6253C164.969 25.6253 174.486 9.42535 191.739 14.4113C204.563 18.1148 204.618 31.0433 204.618 31.2578" stroke="#313553" stroke-width="0.276063" stroke-linecap="round" stroke-linejoin="round"/>
<path d="M113.666 153.405C113.666 153.405 112.876 160.838 103.057 163.58C93.2378 166.322 88.2158 157.492 88.2158 157.492C88.2158 157.492 64.3268 176.711 41.5853 164.451C22.0418 153.907 21.4973 128.5 37.2278 110.331C37.2278 110.331 22.2773 108.738 24.7493 95.1445C27.4088 80.5345 44.8373 82.4455 44.8373 82.4455C44.8373 82.4455 33.2438 66.5815 46.7498 52.114C60.1178 37.795 79.2383 50.773 79.6238 51.037" stroke="#313553" stroke-width="0.276063" stroke-linecap="round" stroke-linejoin="round"/>
<path d="M113.763 182.976C115.973 182.976 117.764 181.185 117.764 178.975C117.764 176.766 115.973 174.975 113.763 174.975C111.554 174.975 109.763 176.766 109.763 178.975C109.763 181.185 111.554 182.976 113.763 182.976Z" stroke="#313553" stroke-width="0.276063" stroke-linecap="round" stroke-linejoin="round"/>
<path d="M98.0131 187.46C101.157 187.46 103.706 184.419 103.706 180.669C103.706 176.919 101.157 173.879 98.0131 173.879C94.8691 173.879 92.3206 176.919 92.3206 180.669C92.3206 184.419 94.8691 187.46 98.0131 187.46Z" stroke="#313553" stroke-width="0.276063" stroke-linecap="round" stroke-linejoin="round"/>
<path d="M85.5469 178.32C84.2059 181.76 79.8664 184.665 76.4269 183.33C72.9874 181.995 71.7499 176.913 73.0909 173.474C74.4319 170.034 78.7729 167.127 82.2124 168.468C85.6519 169.809 86.8879 174.881 85.5469 178.32Z" stroke="#313553" stroke-width="0.276063" stroke-linecap="round" stroke-linejoin="round"/>
<path d="M90.2219 88.4007C91.7339 90.9117 84.1844 98.2407 73.3484 104.779C62.5124 111.318 52.5134 114.588 50.9984 112.083C49.4834 109.578 57.0434 102.241 67.8719 95.7027C78.7004 89.1642 88.7114 85.9002 90.2219 88.4007Z" stroke="#313553" stroke-width="0.276063" stroke-linecap="round" stroke-linejoin="round" stroke-dasharray="1.66 1.66"/>
<path d="M110.102 121.333C111.612 123.84 104.058 131.175 93.2281 137.713C82.3981 144.252 72.3871 147.52 70.8781 145.009C69.3691 142.498 76.9171 135.169 87.7456 128.635C98.5741 122.101 108.585 118.828 110.102 121.333Z" stroke="#313553" stroke-width="0.276063" stroke-linecap="round" stroke-linejoin="round" stroke-dasharray="1.66 1.66"/>
<path d="M50.9968 112.087L70.8763 145.009" stroke="#313553" stroke-width="0.276063" stroke-linecap="round" stroke-linejoin="round" stroke-dasharray="1.66 1.66"/>
<path d="M90.2224 88.4072L110.102 121.335" stroke="#313553" stroke-width="0.276063" stroke-linecap="round" stroke-linejoin="round" stroke-dasharray="1.66 1.66"/>
<path d="M43.54 99.729L55.507 92.5095" stroke="#313553" stroke-width="0.276063" stroke-linecap="round" stroke-linejoin="round"/>
<path d="M70.7976 83.2752L82.7646 76.0557" stroke="#313553" stroke-width="0.276063" stroke-linecap="round" stroke-linejoin="round"/>
<path d="M62.7876 90.9062C63.091 91.0493 63.4252 91.1147 63.7602 91.0964C64.0951 91.078 64.4202 90.9766 64.7061 90.8012C64.9384 90.6632 65.1411 90.4808 65.3026 90.2642C65.464 90.0475 65.581 89.8012 65.6467 89.5391C65.7126 89.2771 65.7258 89.0045 65.6857 88.7374C65.6458 88.4702 65.5533 88.2136 65.4136 87.9823C65.274 87.7511 65.0899 87.5497 64.8721 87.3899C64.6543 87.23 64.4071 87.115 64.1446 87.0511C63.8821 86.9873 63.6096 86.9761 63.3426 87.0179C63.0757 87.0599 62.8198 87.1544 62.5896 87.2957L62.5296 87.1967C62.9824 86.9105 63.3049 86.4583 63.4282 85.937C63.5514 85.4158 63.4654 84.8669 63.1887 84.4082C62.9121 83.9497 62.4666 83.6177 61.948 83.4836C61.4293 83.3495 60.879 83.4241 60.4146 83.6912C60.1257 83.8625 59.8839 84.1031 59.7111 84.3911C59.5383 84.6791 59.4399 85.0057 59.4246 85.3412" stroke="#313553" stroke-width="0.276063" stroke-linecap="round" stroke-linejoin="round"/>
<path d="M173.26 64.337C174.257 70.7275 172.723 77.255 168.979 82.5299C165.236 87.8048 159.583 91.4104 153.221 92.579C153.007 92.612 152.792 92.651 152.578 92.684C146.085 93.6815 139.462 92.0632 134.16 88.1843C128.858 84.3053 125.311 78.4823 124.297 71.992C123.283 65.5018 124.883 58.874 128.748 53.5622C132.613 48.2504 138.427 44.6882 144.914 43.6565C145.129 43.6235 145.337 43.5905 145.552 43.568C151.966 42.7345 158.453 44.4391 163.628 48.3188C168.805 52.1984 172.261 57.9463 173.26 64.337Z" stroke="#313553" stroke-width="0.276063" stroke-linecap="round" stroke-linejoin="round"/>
<path d="M144.909 39.4507L145.553 43.5712L149.387 68.0767L153.222 92.5822L153.866 96.6982" stroke="#313553" stroke-width="0.276063" stroke-linecap="round" stroke-linejoin="round" stroke-dasharray="1.66 1.66"/>
<path d="M120.768 72.5467L124.234 72.0022L149.388 68.0737L173.262 64.3372L178.009 63.5962" stroke="#313553" stroke-width="0.276063" stroke-linecap="round" stroke-linejoin="round" stroke-dasharray="1.66 1.66"/>
<path d="M100.958 64.7744C96.6727 75.7574 101.128 96.7514 118.018 98.9489C134.908 101.146 133.123 108.037 138.718 112.422C144.313 116.806 151.018 114.933 156.13 110.856" stroke="#313553" stroke-width="0.276063" stroke-linecap="round" stroke-linejoin="round"/>
<path d="M193.1 78.8295L169.017 104.741L168.819 101.889L166.242 102.164L166.176 99.4335L163.473 99.5865L187.556 73.6755" stroke="#313553" stroke-width="0.276063" stroke-linecap="round" stroke-linejoin="round"/>
<path d="M161.281 105.586L160.132 108.74L163.192 107.36L169.017 104.74" stroke="#313553" stroke-width="0.276063" stroke-linecap="round" stroke-linejoin="round"/>
<path d="M163.472 99.5864L161.285 105.586" stroke="#313553" stroke-width="0.276063" stroke-linecap="round" stroke-linejoin="round"/>
<path d="M161.283 105.587C162.558 105.269 163.823 106.104 163.19 107.361" stroke="#313553" stroke-width="0.276063" stroke-linecap="round" stroke-linejoin="round"/>
<path d="M190.326 76.2512L169.194 98.9867" stroke="#313553" stroke-width="0.276063" stroke-linecap="round" stroke-linejoin="round"/>
<path d="M195.925 75.7902L193.1 78.8292L190.325 76.2522L187.556 73.6752L190.381 70.6362" stroke="#313553" stroke-width="0.276063" stroke-linecap="round" stroke-linejoin="round"/>
<path d="M195.925 75.7898L197.183 74.4323C197.522 74.068 197.785 73.6405 197.959 73.1743C198.131 72.7081 198.211 72.2123 198.193 71.7154C198.175 71.2184 198.058 70.7299 197.851 70.2778C197.644 69.8257 197.35 69.4189 196.985 69.0803C196.621 68.7419 196.193 68.4787 195.727 68.3054C195.26 68.1323 194.765 68.0525 194.269 68.071C193.771 68.0893 193.283 68.2054 192.83 68.4127C192.379 68.6198 191.972 68.914 191.633 69.2783L190.375 70.6358L195.925 75.7898Z" stroke="#313553" stroke-width="0.276063" stroke-linecap="round" stroke-linejoin="round"/>
<path d="M197.145 186.8C197.874 187.719 198.351 188.813 198.528 189.974C198.705 191.133 198.578 192.32 198.156 193.415C197.337 195.608 196.002 197.571 194.265 199.14" stroke="#313553" stroke-width="0.276063" stroke-linecap="round" stroke-linejoin="round"/>
<path d="M142.332 193.999C142.332 193.999 144.074 191.719 145.848 192.636C147.623 193.552 148.421 193.999 148.421 193.999" stroke="#313553" stroke-width="0.276063" stroke-linecap="round" stroke-linejoin="round"/>
<path d="M136.171 208.282C136.691 208.165 137.236 208.222 137.721 208.444C138.206 208.666 138.605 209.041 138.857 209.512" stroke="#313553" stroke-width="0.276063" stroke-linecap="round" stroke-linejoin="round"/>
<path d="M199.507 178.262C199.507 178.262 199.649 174.851 202.381 175.186" stroke="#313553" stroke-width="0.276063" stroke-linecap="round" stroke-linejoin="round"/>
<path d="M109.244 147.312C109.244 147.312 109.364 152.586 113.683 153.323C114.396 153.437 115.123 153.437 115.837 153.323C121.672 152.504 122.26 149.559 122.32 149.015C122.32 148.959 122.32 148.926 122.32 148.926" stroke="#313553" stroke-width="0.276063" stroke-linecap="round" stroke-linejoin="round"/>
<path d="M178.029 142.899V142.911C178.672 144.085 179.682 145.017 180.904 145.565C182.125 146.113 183.493 146.248 184.798 145.948C188.848 145.251 190.32 140.509 190.32 140.509" stroke="#313553" stroke-width="0.276063" stroke-linecap="round" stroke-linejoin="round"/>
<path d="M251.48 79.5791L212.919 46.8821L200.475 115.381L251.48 79.5791Z" stroke="#313553" stroke-width="0.276063" stroke-linecap="round" stroke-linejoin="round"/>
<path d="M242.131 79.1514L208.594 102.694L216.775 57.6504L242.131 79.1514Z" stroke="#313553" stroke-width="0.276063" stroke-linecap="round" stroke-linejoin="round"/>
<path d="M205.417 119.778L256.423 83.9761" stroke="#313553" stroke-width="0.276063" stroke-linecap="round" stroke-linejoin="round" stroke-dasharray="1.66 1.66"/>
<path d="M236.321 277.495C233.822 280.13 231.167 282.611 228.371 284.929" stroke="#313553" stroke-width="0.276063" stroke-linecap="round" stroke-linejoin="round"/>
</svg>
