<svg width="154" height="154" viewBox="0 0 154 154" fill="none" xmlns="http://www.w3.org/2000/svg">
<path fill-rule="evenodd" clip-rule="evenodd" d="M63.9985 9.36188C77.4744 8.76098 84.6478 13.1058 91.2217 17.7317C82.8878 27.1983 81.9894 40.0095 85.4121 49.6311C92.9725 70.8829 120.816 78.7431 138.401 61.938C143.395 57.1649 146.104 51.0228 147.269 46.8223C150.044 54.6686 150.228 63.2293 147.747 71.2278C146.58 75.1196 144.912 78.3299 143.251 81.5257C141.468 84.9583 139.694 88.374 138.557 92.6C137.185 97.7014 138.256 102.206 139.381 106.94C140.973 113.635 142.674 120.788 137.728 130.737C133.455 139.334 122.873 143.265 113.339 143.52C104.282 143.761 95.1595 138.975 88.21 135.328C85.7892 134.058 83.6329 132.927 81.8338 132.194C73.488 128.794 67.9639 133.331 62.0403 138.195L62.0399 138.196H62.0394L62.0382 138.197H62.0374L62.0371 138.198H62.0364L62.0361 138.199C61.1766 138.905 60.3084 139.618 59.4222 140.314C54.5377 144.152 27.7445 158.914 10.4013 130.597C6.38074 124.04 -0.474511 106.838 7.56506 89.8933C11.3996 81.8124 16.0649 77.8347 20.2141 74.2973C25.0604 70.1656 29.2027 66.6341 30.4949 57.8646C30.9898 54.5051 30.8548 51.1018 30.7173 47.6373C30.4446 40.7603 30.1623 33.6426 34.7776 26.1493C37.8953 21.1668 42.1921 17.0289 47.2885 14.1011C52.3849 11.1732 58.1238 9.54555 63.9985 9.36188ZM49.7217 61.6783C50.9883 61.0682 52.9836 60.1072 53.5228 59.8837C53.5826 59.8652 53.6468 59.8666 53.7058 59.8878C53.7647 59.909 53.8152 59.9487 53.8496 60.0009C53.8839 60.0532 53.9005 60.1153 53.8966 60.1778C53.8927 60.2403 53.8685 60.2998 53.8279 60.3474C53.499 60.677 49.9806 62.6402 49.444 62.9368C49.574 63.1022 49.9827 63.3859 50.4456 63.7072C50.8369 63.9789 51.267 64.2775 51.6003 64.5542C52.4773 65.2798 52.487 65.3929 52.5056 65.6124C52.5072 65.6306 52.5088 65.6495 52.511 65.6696C52.5144 65.6974 52.5118 65.7256 52.5033 65.7523C52.4947 65.779 52.4805 65.8036 52.4615 65.8242C52.4426 65.8448 52.4194 65.8611 52.3935 65.8719C52.3675 65.8826 52.3396 65.8876 52.3117 65.8865C52.217 65.8821 52.1236 65.8627 52.0349 65.829C51.3595 65.4328 50.7297 64.9909 50.1987 64.6182C49.5214 64.1429 49.0045 63.7801 48.7579 63.7685C48.597 65.0178 48.5011 66.2746 48.4705 67.5338C48.4406 68.0175 48.413 68.3203 48.229 68.4537C48.1498 68.5201 48.0516 68.5598 47.9485 68.5671C47.6027 68.5671 47.5813 68.0842 47.5728 67.74C47.5437 66.545 47.7085 64.3925 47.7538 63.8306C47.638 63.8812 47.4517 63.974 47.1451 64.1372C46.0115 64.7371 45.378 65.1062 45.003 65.3248L45.0025 65.325C44.4734 65.6334 44.4592 65.6417 44.2797 65.5753C44.2203 65.5554 44.168 65.5185 44.1293 65.4692C44.0906 65.4198 44.0672 65.3603 44.062 65.2978C44.0124 64.6985 45.6906 63.8049 46.8516 63.1869C47.0522 63.0801 47.2376 62.9813 47.3958 62.8939L46.8354 62.5013C44.2098 60.6622 43.8553 60.4139 43.869 60.1877C43.8711 60.1525 43.8822 60.1178 43.895 60.0776L43.8965 60.073C44.152 59.2708 45.5699 60.3327 46.728 61.1999C47.2065 61.5583 47.6407 61.8834 47.9301 62.03C47.9255 61.764 47.96 61.0067 48.1662 58.7177C48.2721 57.5407 48.259 56.6374 48.2493 55.9701C48.234 54.9087 48.2273 54.4444 48.7219 54.4251C48.8324 54.434 48.9375 54.4766 49.0229 54.5472C49.1083 54.6178 49.17 54.713 49.1995 54.8198C49.2257 57.2425 49.1233 59.6649 48.8928 62.0768C49.0834 61.9857 49.3701 61.8476 49.7102 61.6838L49.7157 61.6812L49.7203 61.6789L49.7217 61.6783ZM131.486 86.0974C131.53 86.0498 131.556 85.9893 131.561 85.9249C131.567 85.8605 131.551 85.7969 131.515 85.7425C131.481 85.688 131.429 85.6474 131.367 85.6259C131.307 85.6045 131.241 85.6045 131.18 85.6244C130.57 85.8766 128.113 87.0632 126.937 87.6305L126.935 87.6312L126.55 87.8175C126.78 85.4052 126.882 82.9829 126.856 80.5598C126.826 80.4533 126.764 80.3582 126.679 80.2877C126.594 80.2172 126.489 80.175 126.379 80.1658C125.884 80.185 125.891 80.6495 125.907 81.7089C125.917 82.3765 125.93 83.2803 125.824 84.4585C125.618 86.7459 125.584 87.504 125.588 87.77C125.299 87.6243 124.863 87.2978 124.383 86.9383C123.227 86.0713 121.81 85.0096 121.554 85.8137L121.552 85.8199C121.54 85.8597 121.528 85.8942 121.527 85.9295C121.512 86.1556 121.868 86.4048 124.531 88.2682L125.053 88.6339C124.909 88.7136 124.739 88.8033 124.553 88.9022C123.407 89.5108 121.669 90.4337 121.72 91.0386C121.732 91.1045 121.762 91.1666 121.806 91.2172C121.85 91.2678 121.908 91.3053 121.971 91.3268C122.035 91.3482 122.103 91.3521 122.169 91.3375C122.235 91.3237 122.295 91.2923 122.345 91.2471C122.538 91.0937 125.105 89.7032 125.488 89.52C125.485 89.5568 125.481 89.6013 125.477 89.6511L125.476 89.6565C125.388 90.643 125.093 93.9323 125.811 93.9323C126.016 93.9323 126.025 93.8081 126.091 92.9059V92.9051V92.9043H126.091C126.127 92.403 126.181 91.6633 126.295 90.5725C126.33 90.2452 126.363 89.474 126.363 89.474C126.5 89.5422 126.642 89.6365 126.854 89.7768C127.135 89.9623 127.536 90.2291 128.211 90.6238C128.346 90.6737 128.54 90.7243 128.638 90.6193C128.698 90.5541 128.692 90.4989 128.685 90.4368C128.684 90.4253 128.682 90.4138 128.682 90.4023C128.662 90.1425 128.58 90.0137 127.776 89.3475C127.514 89.1306 127.326 88.9873 127.168 88.8662C127.108 88.8202 127.051 88.7765 126.997 88.7343C127.344 88.5588 131.149 86.4347 131.486 86.0974ZM66.5125 23.3168C66.5263 23.3443 66.5345 23.3743 66.5365 23.405C66.548 23.8795 62.6271 27.8257 60.953 29.289C61.1619 29.5432 62.4525 30.7129 63.5784 31.7332L63.5844 31.7386C63.7744 31.9109 63.9597 32.0787 64.1342 32.2372C65.2648 33.2628 65.2426 33.3564 65.2119 33.4844C65.2018 33.5202 65.183 33.5529 65.1572 33.5796C65.1314 33.6064 65.0994 33.6263 65.064 33.6377C64.637 33.758 61.255 31.0621 60.2347 30.0349C60.0636 30.7859 59.7985 33.6102 59.62 35.5112C59.525 36.5228 59.4546 37.2733 59.436 37.3103C59.4229 37.3368 59.4039 37.3599 59.3802 37.3778C59.3567 37.3957 59.3293 37.4079 59.3003 37.4134C59.2712 37.4189 59.2413 37.4176 59.2128 37.4095C59.1843 37.4014 59.1581 37.3869 59.1363 37.3669C58.5437 36.8302 58.8432 34.0943 59.0571 32.1412L59.0573 32.1392C59.1166 31.597 59.1694 31.1152 59.1945 30.7578C59.037 30.8763 58.8084 31.0642 58.3933 31.4054C58.1883 31.5739 57.9377 31.7799 57.6277 32.0333C57.0014 32.5479 56.9662 32.6231 56.8782 32.8107C56.8592 32.8511 56.8378 32.8968 56.8075 32.9531C56.4717 33.5963 55.6737 32.9502 56.0409 32.1928C56.2654 31.7307 56.3848 31.633 58.0715 30.2524C58.3605 30.016 58.6955 29.7418 59.0849 29.4217C59.1807 29.3427 59.2727 29.2668 59.3271 29.2162C59.2466 29.1465 55.21 25.3329 55.1839 25.224C55.0927 24.8837 55.2107 24.7442 55.3227 24.6874C55.9949 24.344 59.0443 27.4417 59.551 27.9982C59.5579 27.9215 59.564 27.828 59.5694 27.7406C59.5881 27.4361 59.6537 26.8372 59.7432 26.0195L59.7434 26.0175C59.8335 25.1951 59.9478 24.1516 60.063 22.9635L60.0632 22.9616C60.2309 21.2426 60.241 21.1391 60.605 21.0816C61.2139 20.9814 60.9603 23.3385 60.6576 26.1512C60.5807 26.8652 60.5008 27.6086 60.431 28.3485C63.1276 26.1016 64.508 24.7319 65.2759 23.9699C66.054 23.1979 66.2034 23.0496 66.456 23.2448C66.4795 23.2648 66.4987 23.2893 66.5125 23.3168ZM96.9003 92.4873C96.0594 92.9419 96.015 92.9611 95.8632 93.0247C95.7566 93.0699 95.5964 93.1381 95.0675 93.3965C94.7479 93.5528 94.3316 93.7667 93.9606 93.956C93.5451 94.1691 93.1872 94.3523 93.0883 94.393C93.1128 93.9836 93.247 91.4211 93.1818 91.1942C93.224 91.0209 93.2485 90.8439 93.2531 90.6652C93.2554 90.5411 93.2102 90.4199 93.1266 90.328C93.0431 90.236 92.9273 90.1792 92.8031 90.1693C92.2481 90.1333 92.2267 90.7825 92.229 91.336C92.2321 92.009 92.2045 92.3961 92.1792 92.7618C92.1539 93.1197 92.1301 93.4563 92.1378 94.0189C92.0987 93.9982 92.0542 93.9744 92.0052 93.9484L91.9262 93.9062L91.9247 93.9054C91.1435 93.4854 89.4456 92.574 88.8922 92.9235C88.8347 92.9664 88.7895 93.0247 88.7626 93.0914C88.735 93.1581 88.7274 93.2309 88.7389 93.3022C88.7504 93.3735 88.781 93.4402 88.8278 93.4946C88.8738 93.5498 88.9351 93.5904 89.0033 93.6134C90.8285 94.4581 91.3314 94.7011 91.5851 94.8238C91.7323 94.8951 91.7951 94.9257 91.9852 95.01C91.8833 95.0775 91.7675 95.1488 91.6272 95.2354C91.3176 95.4263 90.886 95.6915 90.2145 96.1599C89.3897 96.7394 89.9079 97.7397 90.3517 97.3304C90.8868 96.8735 91.4724 96.4803 92.0979 96.1583C92.1232 98.9555 92.4007 99.2054 92.5072 99.3012C92.5348 99.328 92.567 99.3495 92.6031 99.3633C92.6391 99.3771 92.6774 99.3832 92.7157 99.3809C92.7548 99.3794 92.7924 99.3694 92.8269 99.3526C92.8614 99.3357 92.892 99.3112 92.9166 99.282C93.0124 99.1609 92.994 99.0114 92.938 98.5607C92.9311 98.5063 92.9242 98.448 92.9166 98.3852C92.9449 98.2771 92.9664 97.673 92.9879 97.0537C93.0124 96.3584 93.0377 95.6432 93.0745 95.5896C93.1166 95.5934 93.1573 95.6064 93.1933 95.6287C93.9024 95.9782 94.4389 96.248 94.8483 96.4542C95.8854 96.9755 96.0978 97.082 96.1928 97.0169C96.2173 97.0008 96.2334 96.9724 96.2549 96.9364L96.2672 96.9157C96.5838 96.3615 95.1994 95.6302 94.3539 95.1825C94.2389 95.122 94.1339 95.066 94.0442 95.017C95.0767 94.4604 96.0763 93.8464 97.0399 93.1772C97.6048 92.6958 97.1495 92.3509 96.9003 92.4873ZM117.307 114.51C117.32 114.538 117.329 114.569 117.33 114.599C117.347 115.074 113.429 119.015 111.748 120.485C111.948 120.725 113.197 121.857 114.406 122.952L114.407 122.953L114.409 122.955C114.584 123.114 114.758 123.272 114.928 123.426C116.058 124.452 116.036 124.544 116.005 124.673C115.995 124.709 115.977 124.742 115.951 124.768C115.925 124.795 115.892 124.815 115.857 124.827C115.434 124.939 112.049 122.252 111.028 121.224C110.854 121.981 110.582 124.88 110.403 126.783V126.784C110.312 127.756 110.245 128.466 110.228 128.5C110.215 128.526 110.196 128.549 110.172 128.567C110.149 128.584 110.122 128.596 110.093 128.602C109.252 128.733 109.661 124.999 109.883 122.975L109.883 122.974V122.969C109.932 122.527 109.972 122.167 109.987 121.947C109.814 122.078 109.515 122.323 109.099 122.665L109.098 122.666L108.818 122.896C108.694 122.998 108.561 123.107 108.42 123.222C107.793 123.735 107.759 123.807 107.67 123.999C107.651 124.039 107.63 124.083 107.601 124.138C107.264 124.781 106.465 124.136 106.834 123.378C107.065 122.904 107.093 122.88 109.178 121.179L109.498 120.918L109.9 120.589L109.922 120.571C109.969 120.532 110.015 120.495 110.054 120.462C110.08 120.44 110.103 120.42 110.122 120.402C110.045 120.341 106.004 116.519 105.978 116.408C105.887 116.069 106.005 115.928 106.117 115.872C106.791 115.529 109.824 118.618 110.345 119.183C110.448 118.006 110.516 117.384 110.599 116.615C110.666 116.004 110.743 115.299 110.856 114.147C111.025 112.427 111.036 112.324 111.399 112.266C112.008 112.171 111.755 114.529 111.452 117.339C111.375 118.053 111.295 118.795 111.225 119.534C111.272 119.488 111.417 119.366 111.643 119.176C112.434 118.513 114.214 117.02 116.24 115L116.241 114.999C116.821 114.421 116.996 114.245 117.249 114.439C117.273 114.459 117.293 114.483 117.307 114.51ZM34.8428 96.1254C35.0186 96.1139 35.1999 96.0234 35.4435 95.9023C36.212 95.5198 37.6013 94.8291 41.4006 95.3128C41.7392 95.3259 41.9786 95.3703 42.1665 95.4056C42.5431 95.4761 42.7135 95.5075 43.0632 95.1695C43.5508 94.7096 46.9136 90.2636 46.9611 90.1953C47.2439 89.8044 47.6917 89.3084 48.145 88.8056C49.1576 87.6826 50.1974 86.5305 49.4846 86.4607C48.1055 86.2262 46.6968 86.2262 45.3177 86.4607C44.1943 86.6524 43.0967 86.9735 42.0468 87.4166C39.5689 88.6852 37.4475 90.5533 35.8753 92.8507C35.3387 93.7054 34.8742 94.5992 34.4265 95.5029C34.3914 95.5712 34.3752 95.6471 34.3795 95.7237C34.3838 95.7996 34.4085 95.8732 34.451 95.9368C34.4935 96.0004 34.5523 96.0518 34.6211 96.0848C34.6901 96.1177 34.7666 96.1315 34.8428 96.1254ZM48.8064 108.154C48.8759 108.192 48.9325 108.25 48.9687 108.32C49.1854 108.799 48.2901 109.9 44.0816 115.081C41.2309 118.589 36.8599 123.97 30.2848 132.294C29.853 132.84 29.5109 133.281 29.2367 133.633L29.2363 133.634C28.245 134.911 28.1422 135.044 27.8978 134.893C27.8196 134.842 27.7399 134.74 27.8089 134.51C28.5042 132.231 47.8618 108.107 48.5786 108.107C48.6574 108.1 48.7368 108.116 48.8064 108.154ZM34.5361 132.167C33.7949 133.074 34.5637 133.883 35.0942 133.107C35.4399 132.486 37.8814 131.135 40.6233 131.233C40.9545 131.245 41.0395 131.362 40.9062 131.709C40.5604 132.602 38.6785 133.766 37.9135 134.239C37.7441 134.344 37.6295 134.415 37.5985 134.441C37.4604 134.536 37.3482 134.664 37.272 134.813C37.1959 134.963 37.1582 135.128 37.1624 135.296C37.1665 135.463 37.2125 135.627 37.296 135.773C37.3796 135.918 37.498 136.04 37.6407 136.128C37.8167 136.257 37.996 136.382 38.168 136.503C38.7823 136.933 39.3058 137.299 39.2734 137.544C39.2106 138.018 37.4743 138.739 34.2908 139.906C33.7642 140.099 33.8432 140.749 35.0919 140.749C36.4602 140.654 37.7843 140.225 38.9492 139.501C42.2817 137.649 40.0655 136.28 38.8952 135.557C38.6528 135.406 38.4553 135.285 38.3612 135.192C38.3839 135.176 38.4512 135.14 38.5529 135.085C39.2558 134.707 41.6003 133.447 42.1595 131.89C43.2894 128.741 36.4111 129.877 34.5361 132.167ZM22.5013 124.017C23.4058 120.487 26.1501 117.967 27.7138 121.146C28.8039 123.361 27.9568 126.111 27.0063 126.031C26.9413 126.029 26.8777 126.012 26.8206 125.981C26.7635 125.95 26.7144 125.906 26.6775 125.852C26.6292 125.727 26.6084 125.593 26.6166 125.459C26.6248 125.326 26.6617 125.194 26.725 125.076C27.4164 123.035 26.413 120.397 25.4832 121.221C24.2506 122.317 23.2786 124.882 23.714 125.873C23.8995 126.297 23.8918 126.925 23.448 127.063C22.8577 127.25 22.6592 126.787 22.486 126.381C21.9754 125.198 20.9897 125.053 20.4163 125.538C19.7388 126.239 19.3335 127.158 19.2734 128.131C19.2734 128.485 19.5282 128.701 19.7455 128.886C19.9578 129.067 20.1342 129.217 20.0016 129.434C19.9568 129.503 19.8902 129.554 19.8126 129.579C19.735 129.604 19.6511 129.603 19.5746 129.575C19.1473 129.481 18.7679 129.237 18.506 128.886C18.2442 128.536 18.1173 128.103 18.1488 127.667C18.1332 127.159 18.2383 126.655 18.4554 126.196C18.9483 124.877 19.5968 124.213 20.624 123.973C21.2195 123.845 21.8415 123.957 22.3541 124.286L22.4246 124.318C22.445 124.216 22.4706 124.116 22.5013 124.017ZM54.6128 113.526C54.2163 112.565 53.5718 113.205 52.6334 114.137C52.2549 114.513 51.8284 114.937 51.3512 115.322C49.7805 116.586 45.0747 121.143 43.6274 122.548C38.6809 127.348 38.7798 127.475 38.93 127.668C38.9485 127.694 38.9731 127.715 39.0015 127.729C39.0299 127.744 39.0614 127.752 39.0933 127.751C39.9587 127.751 54.0977 114.474 54.5967 113.703C54.6136 113.677 54.6239 113.647 54.6266 113.617C54.6295 113.586 54.6247 113.554 54.6128 113.526ZM42.0128 107.736L42.0122 107.736C38.8967 112.183 34.1309 118.985 33.4154 120.289C33.2207 120.65 32.724 120.552 32.8505 120.024C33.2499 118.379 42.5711 104.531 43.99 103.402C44.0554 103.327 44.1447 103.277 44.2428 103.259C44.341 103.242 44.4421 103.259 44.5293 103.307C44.6166 103.355 44.6846 103.432 44.722 103.524C44.7595 103.617 44.7641 103.72 44.7351 103.815C44.7151 103.878 43.5702 105.513 42.0128 107.736ZM82.1741 82.2616C80.7031 81.6629 79.3011 80.9071 77.9926 80.0079C75.7242 78.3598 73.7527 76.338 72.1622 74.0289C71.9116 73.6175 71.7163 73.2853 71.5603 73.0198C71.1599 72.3388 71.0182 72.0978 70.8642 72.0897C70.7798 72.0852 70.6918 72.1507 70.5555 72.252L70.5287 72.2719C62.8748 76.842 56.0392 82.6609 50.3048 89.4863C49.1696 90.8661 49.1788 90.9006 49.408 91.2938C52.7241 97.0023 60.7828 103.297 66.4875 106.527C66.9037 106.766 67.0325 106.764 71.1734 101.732C75.9209 95.9644 79.8208 89.5484 82.7544 82.6786C82.7537 82.3244 82.6187 82.3183 82.4432 82.3114C82.3597 82.3075 82.2669 82.3037 82.1741 82.2616ZM69.011 92.4712C66.5634 92.1401 65.1514 91.5322 63.7609 89.474C60.3482 84.4148 65.9164 77.6278 71.8334 80.339C77.5312 82.9499 76.4419 92.1079 69.011 92.4712ZM64.3112 107.647C65.1544 108.118 65.3232 108.212 65.0701 108.492L65.0024 108.566C64.3315 109.295 61.669 112.189 60.664 112.472C56.5829 111.801 48.7863 105.063 46.131 101.312C45.2918 100.276 44.6364 99.1034 44.1931 97.8463L44.1554 97.7589L44.1225 97.6822C43.9287 97.2338 43.8891 97.1426 44.0015 96.9908C45.0409 95.5926 47.2578 92.8783 47.2754 92.8614C47.677 92.3953 47.9135 92.7449 48.6152 93.782C49.7072 95.3949 51.9256 98.6734 57.6453 103.133C61.2075 105.913 63.2718 107.066 64.3112 107.647ZM86.7183 67.4403C86.7098 67.2804 86.6677 67.1241 86.5933 66.9821C86.519 66.8402 86.4155 66.7159 86.289 66.6178C86.1625 66.5197 86.0161 66.4501 85.8597 66.4137C85.7041 66.3773 85.5424 66.375 85.3852 66.4071C81.4045 66.867 78.4955 67.7163 72.8905 70.6023C72.5838 70.7611 72.5999 70.8768 73.1342 71.6756C75.4147 75.0791 77.6461 77.9489 82.3558 79.9972C82.5766 80.093 82.769 80.1781 82.9369 80.2517C84.0131 80.7246 84.0913 80.7591 84.1955 80.5721C86.22 76.8443 86.9881 69.7784 86.7183 67.4403ZM65.817 90.2406C65.1424 89.7032 64.6096 89.0087 64.2652 88.2184C63.8508 87.2495 63.7351 86.1786 63.9328 85.143C64.1305 84.1074 64.6326 83.1546 65.375 82.4064C66.1173 81.6575 67.0661 81.1478 68.0998 80.9416C69.1336 80.7354 70.2054 80.8427 71.178 81.2489C71.9714 81.587 72.67 82.1144 73.2128 82.7843C73.7556 83.4543 74.126 84.2469 74.2918 85.0932C74.4575 85.9395 74.4135 86.8141 74.1637 87.6389C73.9138 88.4645 73.4657 89.2165 72.8583 89.8289C72.251 90.4406 71.503 90.8952 70.6797 91.152C69.8564 91.4088 68.9827 91.4594 68.1351 91.3007C67.2874 91.142 66.4916 90.7779 65.817 90.2406ZM72.9167 87.2955C73.1772 86.5895 73.2366 85.8245 73.0882 85.0871C72.9611 84.4662 72.6908 83.8828 72.2987 83.3846C71.9066 82.8863 71.4036 82.4869 70.8297 82.2171C70.2558 81.9473 69.6269 81.8154 68.9932 81.8323C68.3593 81.8484 67.7381 82.0124 67.1789 82.3114C66.5164 82.6686 65.966 83.2021 65.5891 83.8529C65.2122 84.5045 65.0234 85.248 65.0441 86C65.0648 86.752 65.2939 87.4841 65.706 88.1134C66.1181 88.7427 66.697 89.2456 67.378 89.566C68.0591 89.8857 68.8157 90.0098 69.5634 89.9255C70.311 89.8404 71.0205 89.5491 71.6125 89.0854C72.2046 88.6209 72.6561 88.0007 72.9167 87.2955ZM71.1197 105.391C70.7571 105.32 70.2655 105.94 69.5278 106.869C69.0694 107.447 68.5161 108.143 67.8397 108.869C67.8167 108.894 67.8229 108.887 67.8305 108.878C67.8647 108.84 67.9279 108.77 65.55 111.322C65.2791 111.612 65.0668 111.818 64.8648 112.014C64.5269 112.343 64.2173 112.643 63.7103 113.259C63.3397 113.701 63.5152 114.173 63.7399 114.779C63.8443 115.06 63.9594 115.37 64.0353 115.718C64.1431 116.211 64.2192 116.551 64.2733 116.792C64.3721 117.232 64.3965 117.34 64.4033 117.449C64.4055 117.485 64.4058 117.521 64.4064 117.569C64.408 117.734 64.4111 118.043 64.4998 118.985C64.5165 120.138 64.2692 120.739 64.1125 121.12C63.9682 121.47 63.9011 121.633 64.1894 121.867C64.5555 122.166 64.5895 122.139 66.6389 120.538L66.7098 120.483C72.9694 115.582 72.4497 105.648 71.1197 105.391ZM68.4782 84.5305C69.206 84.158 69.9736 83.8698 70.7664 83.6697C70.9066 83.6429 71.0011 83.5992 71.076 83.5639C71.229 83.4919 71.2999 83.4589 71.5114 83.6927C71.9453 84.191 72.5915 85.1898 71.9645 85.3875C69.7186 86.0974 69.7191 86.0981 69.9132 86.3994C69.9678 86.4837 70.0377 86.5926 70.0772 86.7474C70.1092 86.8647 70.1062 86.9881 70.0688 87.1038C70.0313 87.2188 69.961 87.3208 69.8664 87.3967C69.208 87.8252 68.5008 88.1747 67.7599 88.4361C67.1697 88.5856 66.5419 88.4147 66.0636 87.0962C65.9661 86.8287 66.0997 86.798 66.4927 86.7075C66.8137 86.634 67.3079 86.5213 67.9907 86.2062C68.8133 85.8283 68.631 85.5447 68.4456 85.2572C68.3016 85.0334 68.1557 84.8065 68.4782 84.5305Z" fill="#333333"/>
<path d="M142.945 19.2067C132.504 4.69052 113.36 2.09882 98.5683 10.3998C76.5108 22.7773 76.4633 58.7307 103.202 69.5951C113.174 73.647 126.907 72.8445 136.053 65.5806C141.031 61.6268 144.402 56.2456 146.375 52.3661C151.217 41.0104 148.799 27.3451 142.945 19.2067ZM147.972 42.9414C147.896 45.9232 145.38 55.2675 138.401 61.938C120.816 78.7431 92.9725 70.8829 85.412 49.631C81.0143 37.2689 83.7501 19.6413 100.225 10.6075C118.407 0.637775 143.028 9.75971 147.304 31.7474C148.114 35.4204 148.34 39.1981 147.972 42.9414Z" fill="#333333"/>
<path d="M118.939 48.8936C116.67 48.0765 114.503 49.7046 113.316 51.5651C110.839 55.4476 111.691 60.9936 116.335 60.7131C117.684 60.7131 120.305 58.5123 121.138 55.3656C121.953 52.291 120.725 49.5368 118.939 48.8936ZM120.832 53.7543C120.561 57.0505 118.149 59.6675 116.644 59.9634C115.668 60.1543 118.1 58.2386 118.496 54.2296C118.972 49.3566 115.94 50.0657 116.561 49.5015C116.935 49.286 117.371 49.2049 117.797 49.2715C119.093 48.991 121.067 50.8989 120.832 53.7543Z" fill="#333333"/>
<path d="M99.84 40.1204C97.847 37.9212 94.0441 38.2148 92.1262 43.1199C90.37 47.6104 94.4872 53.9283 99.4583 48.4743C101.171 46.5962 101.66 42.1319 99.84 40.1204ZM98.5054 39.9273C97.8937 40.1402 97.351 40.5144 96.9348 41.0104C96.1307 41.895 95.5711 42.9736 95.3104 44.1402C95.2706 44.4277 95.0805 44.6768 95.0606 44.9735C95.0038 45.6733 94.7792 47.4877 95.2752 48.4229C95.5052 48.856 95.6531 49.3527 96.1261 49.6164C96.2978 49.7123 96.2556 49.9139 96.1261 49.91C95.5511 49.9812 94.9678 49.8923 94.4396 49.6532C91.9583 48.183 92.058 43.924 93.5872 41.7999C95.8432 38.1282 99.0098 39.613 98.5054 39.9273Z" fill="#333333"/>
<path d="M114.007 21.7501C112.463 20.772 108.947 21.1453 107.041 21.8099C102.493 23.3936 100.112 26.8829 102.832 28.8484C105.147 30.5217 110.677 28.9817 113.065 27.3528C115.835 25.4617 115.872 22.9321 114.007 21.7501ZM103.215 27.234C102.909 27.7116 103.021 27.9845 102.728 27.6548C102.172 27.0301 102.438 26.0803 103.289 25.0823C106.208 21.6627 112.096 21.2304 113.757 22.3718C114.188 22.677 114.483 23.1367 114.584 23.655C114.683 24.1732 114.579 24.7101 114.293 25.1536C114.172 25.3345 113.618 24.8707 113.334 24.6392C111.32 22.9965 104.82 24.732 103.215 27.234Z" fill="#333333"/>
<path d="M127.692 37.9588C129.597 37.4721 129.733 35.5963 129.875 33.6408C129.675 31.624 129.508 29.7084 127.83 28.5364C124.538 26.2375 122.986 37.1087 127.692 37.9588ZM126.649 28.9572C127.394 28.6468 128.29 29.5291 128.548 30.2144C130.196 34.5837 128.689 37.4966 127.574 37.331C127.368 37.2996 127.312 37.2229 127.411 37.0382C128.147 35.6584 128.373 32.4918 127.15 30.071C126.872 29.5206 126.427 29.4639 126.453 29.0967C126.452 28.9588 126.568 28.9909 126.649 28.9572Z" fill="#333333"/>
<path d="M95.9344 21.123C96.0716 19.6666 95.0644 19.0127 93.9629 19.3055C91.5866 19.9372 89.234 23.8082 89.4739 25.9745C89.8879 29.7107 94.8574 26.8706 95.9344 21.123ZM91.1581 25.7124C91.0331 26.1054 90.9871 26.5195 91.0231 26.9304C90.9764 27.2033 90.4007 27.0071 90.2114 26.5356C89.1988 24.0328 93.7467 18.5727 95.0652 20.0414C95.9965 21.0778 93.9491 19.6857 91.4961 24.6875C91.3819 24.9205 91.2516 25.474 91.1581 25.7124Z" fill="#333333"/>
<path d="M134.822 47.7192C133.737 49.2914 133.314 51.6194 134.785 52.5301C136.556 53.6255 139.532 51.3205 139.757 48.2374C139.961 45.4357 136.734 44.9466 134.822 47.7192ZM138.232 50.6781C136.981 52.1637 135.861 52.317 135.69 52.2572C135.349 52.1369 135.406 51.9199 135.613 51.8233C136.283 51.3863 136.826 50.783 137.192 50.0725C138.827 47.3735 137.354 46.5311 138.122 46.5027C139.153 46.4652 139.665 48.9825 138.232 50.6781Z" fill="#333333"/>
<path d="M142.885 31.1825C141.364 31.4891 139.629 34.7324 140.569 37.482C141.821 41.1454 145.462 38.3942 145.251 34.3859C145.115 31.7352 143.822 30.9924 142.885 31.1825ZM142.097 38.5575C141.299 38.2754 142.262 37.8339 142.518 36.8711C142.548 36.7561 143.571 34.0724 142.532 32.5784C142.211 32.1185 142.19 32.1453 142.532 31.9291C142.712 31.8455 142.909 31.8032 143.107 31.8053C143.305 31.8073 143.5 31.8537 143.679 31.941C143.857 32.0283 144.013 32.1543 144.136 32.3098C144.259 32.4653 144.346 32.6464 144.39 32.8398C145.368 36.6319 143.268 38.9668 142.097 38.5575Z" fill="#333333"/>
<path d="M126.523 13.8117C124.466 15.1148 130.351 20.0537 132.587 18.4301C133.633 17.6705 132.296 15.9841 131.062 15.0121C129.987 14.1643 127.772 13.0206 126.523 13.8117ZM132.014 18.0499C131.707 18.2262 131.567 18.2699 131.025 17.5195C129.991 16.3727 128.695 15.4939 127.247 14.9584C126.979 14.894 126.619 14.9921 126.711 14.6334C126.83 14.1574 127.069 14.2072 127.567 14.1949C129.788 14.1405 133.265 17.3393 132.014 18.0499Z" fill="#333333"/>
<path d="M125.057 62.3305C124.928 62.5311 124.855 62.7612 124.841 62.9986C124.828 63.236 124.876 63.4729 124.98 63.6866C125.58 64.5696 127.348 64.6332 128.699 64.4255C129.66 64.2783 129.849 64.0507 130.055 63.5394C131.092 61.0213 126.417 60.7422 125.057 62.3305ZM129.537 62.6832C129.409 64.2538 128.873 62.1849 126.205 63.0273C126.042 63.0787 125.768 63.2688 125.592 63.3056C125.017 63.4229 125.592 61.3892 128.664 62.0078C128.917 62.0592 129.584 62.4279 129.537 62.6832Z" fill="#333333"/>
<path d="M99.5817 59.0144C98.8236 60.1282 101.435 63.6827 103.317 63.3899C106.235 62.9338 101.261 56.5477 99.5817 59.0144ZM102.626 62.5015C102.506 62.2616 102.371 62.0299 102.221 61.8077C101.864 61.2068 101.41 60.6692 100.878 60.2164C100.476 59.8285 100.102 59.9435 100.126 59.4835C100.138 59.2367 100.183 59.1838 100.443 59.1769C101.882 59.1302 102.984 60.7606 103.6 62.2201C103.838 62.7805 102.85 63.1392 102.626 62.5015Z" fill="#333333"/>
<path d="M114.329 12.1062C119.562 12.4818 117.286 6.97643 112.777 9.72072C111.474 10.5141 111.548 11.9069 114.329 12.1062ZM116.585 10.0365C116.868 10.2849 116.714 10.5647 116.475 10.8031C116.034 11.2423 116.192 10.7832 115.348 10.7057C113.365 10.5233 113.732 11.5014 113.224 11.319C110.945 10.5018 115.239 8.84838 116.585 10.0342V10.0365Z" fill="#333333"/>
<path d="M115.146 36.6665C113.618 37.3725 113.58 37.9175 113.34 38.7308C113.207 39.1823 113.501 39.5441 113.805 39.8675C114.012 40.0875 114.333 40.0929 114.757 40.1665C115.207 40.1777 115.654 40.0888 116.066 39.9063C116.477 39.7237 116.844 39.4521 117.137 39.111C117.693 38.671 118.049 37.5687 117.625 37.0659C117.316 36.7321 116.903 36.5116 116.454 36.4392C116.005 36.3668 115.545 36.4468 115.146 36.6665ZM117.102 37.6929C117.102 38.6526 116.314 37.676 115.146 38.5161C114.499 38.9829 114.411 39.4361 114.207 39.328C113.824 39.1302 113.824 37.9949 115.146 37.3065C116.334 36.6879 117.231 37.1533 117.102 37.6929Z" fill="#333333"/>
</svg>
