<svg width="154" height="154" viewBox="0 0 154 154" fill="none" xmlns="http://www.w3.org/2000/svg">
<path d="M88.0612 32.8237C87.9769 30.1714 87.2947 33.0766 87.678 33.8585C87.6915 33.8822 87.7096 33.9031 87.7312 33.9198C87.7528 33.9365 87.7775 33.9488 87.8038 33.9559C87.8302 33.963 87.8577 33.9649 87.8848 33.9613C87.9119 33.9577 87.938 33.9489 87.9616 33.9352C87.9925 33.9157 88.0187 33.8895 88.0383 33.8585C88.1033 33.5166 88.1033 33.1655 88.0383 32.8237H88.0612ZM80.8097 43.6167C80.2961 43.6167 74.7616 43.3331 74.7923 43.7547C74.4473 43.655 74.7923 46.131 74.7923 46.4223C74.7923 46.7136 75.3825 46.6676 75.5588 46.6829C77.0919 46.7979 81.3386 46.7672 81.6912 46.7672C82.0438 46.7672 81.8369 43.8543 81.8292 43.8467C81.8215 43.5247 80.9937 43.6244 80.8097 43.6167ZM81.4766 46.3993C80.1658 46.3993 76.425 46.3073 75.1832 46.3993C75.0912 45.5561 74.9992 44.7129 74.9149 43.8697L81.4996 44C81.4459 44.7972 81.4766 45.6021 81.4766 46.3993ZM71.1818 47.4264C71.2112 47.4232 71.2385 47.41 71.2594 47.3891C71.2803 47.3682 71.2935 47.3408 71.2968 47.3115V45.3568C71.2968 45.0655 70.8292 45.0118 70.8445 45.3108C70.8445 45.9853 70.9289 46.6522 70.9825 47.3191C70.9831 47.3421 70.9897 47.3645 71.0017 47.3841C71.0138 47.4037 71.0308 47.4198 71.051 47.4307C71.0712 47.4416 71.094 47.4469 71.117 47.4462C71.14 47.4454 71.1623 47.4386 71.1818 47.4264ZM87.77 42.7735C87.7401 42.7776 87.7123 42.7909 87.6904 42.8115C87.6684 42.8321 87.6534 42.859 87.6473 42.8885C87.6473 43.2104 87.4403 45.0501 87.8236 45.0885C88.2989 45.0885 87.9769 43.3024 87.9309 42.8731C87.9219 42.8391 87.9002 42.8099 87.8702 42.7913C87.8403 42.7728 87.8044 42.7664 87.77 42.7735ZM87.9769 47.0355C87.9003 46.5066 87.632 46.5449 87.6013 47.2655V48.124C87.6013 48.6759 88.2605 49.1129 87.9769 47.0355ZM87.8083 50.4773C87.3944 50.5156 87.7163 52.4243 87.77 52.777C87.77 52.9073 88.0076 52.9379 88.0153 52.777C88.0153 52.0871 88.0153 51.3972 88.0612 50.7073C88.0627 50.6747 88.0569 50.6422 88.0444 50.612C88.0319 50.5819 88.0128 50.5549 87.9887 50.533C87.9646 50.511 87.9359 50.4947 87.9047 50.485C87.8735 50.4754 87.8406 50.4728 87.8083 50.4773ZM88.0153 35.5756C88.0153 35.4146 87.7316 35.4376 87.701 35.5756C87.6703 35.7136 87.4403 38.1819 87.9769 37.5686C88.0921 36.9067 88.0921 36.2298 87.9769 35.5679L88.0153 35.5756ZM87.5937 39.6843V41.2174C87.5937 41.524 88.0766 41.478 88.0612 41.2174C88.0612 40.7115 88.0612 40.2055 87.9846 39.6843C87.9386 38.8717 87.609 38.8258 87.5937 39.6843ZM87.701 54.6627C87.5858 55.3272 87.5858 56.0065 87.701 56.671C87.701 56.8397 87.9846 56.809 88.0153 56.671C88.0459 56.5331 88.2376 54.0494 87.701 54.6627ZM108.229 33.4829C108.664 33.554 109.065 33.7637 109.371 34.0808C109.54 34.2571 109.755 33.9505 109.126 33.4446C108.084 32.6244 107.647 33.3756 108.229 33.4829ZM107.67 36.4494C108.352 36.2578 107.785 34.8397 107.578 35.9359C107.555 36.0278 107.486 36.5031 107.67 36.4494ZM108.191 41.271C110.491 41.317 109.808 37.7449 109.371 38.5115C108.359 40.2362 106.642 39.8683 106.52 40.0446C106.397 40.2209 107.11 41.2557 108.191 41.271ZM109.486 38.9101C110 41.0258 107.723 41.6773 106.819 40.2362C107.339 40.2601 107.858 40.1509 108.324 39.9189C108.791 39.6868 109.191 39.3396 109.486 38.9101ZM87.9233 30.2634C87.9534 30.2494 87.9797 30.2284 87.9999 30.2021C88.1264 29.5334 88.1264 28.847 87.9999 28.1784C87.9999 28.0557 87.7776 28.0174 87.7393 28.1784C87.6195 28.8464 87.6014 29.5287 87.6856 30.2021C87.7108 30.2397 87.7489 30.2668 87.7927 30.2781C87.8366 30.2895 87.8831 30.2842 87.9233 30.2634ZM104.772 38.2508C104.925 38.9407 106.734 38.1895 105.148 38.1129C105.247 37.1221 105.456 36.1453 105.769 35.2C105.891 34.786 105.224 34.97 104.833 37.7219C104.782 37.8933 104.761 38.0723 104.772 38.2508ZM70.8675 49.3352C70.8837 50.0128 70.9426 50.6887 71.0438 51.3588C71.0438 51.3914 71.0568 51.4226 71.0798 51.4456C71.1028 51.4686 71.134 51.4815 71.1665 51.4815C71.199 51.4815 71.2302 51.4686 71.2532 51.4456C71.2762 51.4226 71.2891 51.3914 71.2891 51.3588C71.5498 47.9477 70.8675 49.2892 70.8675 49.3352ZM103.707 35.0007C103.431 35.3686 103.484 36.0355 103.791 35.7672C104.097 35.4989 103.898 34.74 103.707 35.0007ZM70.9135 57.3379C70.5379 58.1658 71.3811 61.1707 71.3428 57.8669C71.3351 57.3379 71.0898 56.9623 70.9135 57.3379ZM70.9289 55.2759C70.9289 55.4369 71.2201 55.4139 71.2508 55.2759C71.2815 55.1379 71.5038 52.6696 70.9748 53.2752C70.8444 53.9371 70.8289 54.6164 70.9289 55.2836V55.2759Z" fill="#333333"/>
<path d="M100.916 29.5045C101.416 29.9579 101.982 30.3327 102.595 30.616C101.629 33.8125 99.5749 44.0766 105.01 44.6899C105.01 45.1805 104.964 45.6711 104.941 46.1693C103.262 46.6889 101.649 47.4014 100.134 48.2927C99.5136 49.3045 98.8926 50.324 98.3101 51.3589C97.5425 52.7866 96.8541 54.2555 96.248 55.7589C97.3257 56.153 98.3307 56.7228 99.2223 57.4453C100.142 58.1352 98.5017 59.1854 97.8425 60.0209C99.7086 63.4442 102.148 66.5219 105.056 69.1198C105.232 68.062 105.439 67.1575 105.523 66.8202C103.76 63.754 101.461 52.2557 101.729 47.9631C102.189 47.7331 102.649 47.5261 103.109 47.3345C103.109 48.2084 103.944 50.3164 104.833 50.531C104.933 50.8376 105.332 50.2244 105.6 49.9561C105.746 50.485 105.945 51.0293 106.037 51.4279C106.674 51.2915 107.337 51.3421 107.946 51.5735C108.268 51.1289 108.812 50.4927 109.08 50.1937C109.21 50.37 109.425 50.7456 109.655 50.7073C111.487 50.3624 114.254 48.6146 115.197 46.9129C115.764 47.0585 116.316 47.2195 116.868 47.4035C111.863 52.892 106.903 62.2669 105.615 69.4341C108.927 67.0425 114.377 63.0564 116.96 60.5958C114.96 57.4759 113.288 57.7059 117.305 56.9164C118.072 56.7707 118.8 56.6251 119.551 56.5178C119.352 53.5231 119.015 50.5438 118.539 47.5798C116.828 46.8444 115.022 46.3516 113.173 46.1157C113.127 44.9275 113.173 43.7317 113.173 42.5436C113.173 42.5436 118.639 36.0202 117.995 31.7045C117.742 29.9798 116.393 29.8495 114.99 30.3017C116.071 29.2669 117.366 29.4279 117.29 28.7686C117.175 27.7951 114.714 28.3777 113.917 29.8035C111.656 25.1352 106.252 23.8091 109.226 27.3199C107.271 26.0321 105.086 24.9052 102.679 24.9052C99.0843 24.8516 98.655 27.4502 100.916 29.5045ZM104.948 50.2014C104.489 49.8344 104.108 49.3797 103.826 48.8638C103.545 48.3479 103.368 47.7811 103.308 47.1965C103.868 46.9665 104.427 46.7596 105.002 46.5679C105.663 47.1651 106.353 47.7279 107.072 48.2543C106.233 48.7534 105.509 49.4248 104.948 50.2244V50.2014ZM113.189 46.43C113.741 46.5449 114.285 46.6599 114.829 46.7979C113.487 48.439 111.721 49.6821 109.724 50.393C109.151 49.6305 108.493 48.9361 107.762 48.3233C109.69 48.1235 111.547 47.4836 113.189 46.453V46.43ZM102.856 30.731C104.573 31.4516 109.862 32.2181 111.771 32.1415C110.652 34.9777 111.947 37.7449 112.744 36.4341C112.967 36.0585 113.35 35.4683 113.971 35.9589C114.331 36.2502 114.469 36.9554 113.84 38.0746C113.176 39.1769 112.836 40.4442 112.859 41.731C112.758 43.2236 112.738 44.7205 112.798 46.2153C111.155 47.1371 109.362 47.76 107.501 48.055L105.201 46.3533C105.278 45.3798 105.546 44.2836 105.201 44.2836C104.764 44.2576 104.337 44.1381 103.949 43.9331C103.562 43.7282 103.223 43.4425 102.955 43.0955C100.817 40.5275 102.081 33.7666 102.856 30.731Z" fill="#333333"/>
<path d="M103.323 33.9199C103.508 33.7754 103.72 33.6703 103.947 33.611C104.174 33.5517 104.41 33.5394 104.642 33.5749C104.675 33.5709 104.706 33.5562 104.73 33.5331C104.754 33.5099 104.769 33.4796 104.775 33.4466C104.78 33.4137 104.774 33.38 104.759 33.3506C104.743 33.3211 104.718 33.2976 104.688 33.2836C103.308 32.9617 102.871 34.2955 103.323 33.9199ZM106.075 51.8265C105.462 54.8518 104.851 57.8822 104.243 60.9178C104.595 62.5961 105.109 64.2364 105.776 65.816C106.38 63.9923 107.079 62.2013 107.869 60.4502C107.685 58.3192 107.578 53.1143 107.662 52.1408C107.189 51.8473 106.625 51.7356 106.075 51.8265ZM50.5923 32.816C51.2362 32.7317 50.1093 28.9833 50.3087 32.2488C50.3316 32.4481 50.3087 32.8544 50.5923 32.816ZM50.3163 64.5282C50.3163 64.7582 50.255 65.5401 50.6229 65.4941C51.2668 65.4097 50.1937 61.9526 50.3163 64.5282ZM50.7073 41.3937C50.7 41.3636 50.6828 41.3368 50.6585 41.3176C50.6342 41.2985 50.6041 41.288 50.5731 41.288C50.5421 41.288 50.5121 41.2985 50.4877 41.3176C50.4634 41.3368 50.4462 41.3636 50.439 41.3937C50.3176 42.0591 50.3021 42.7395 50.393 43.4098C50.4144 43.4534 50.4523 43.4867 50.4982 43.5025C50.5442 43.5183 50.5945 43.5153 50.6383 43.4941C50.667 43.478 50.6929 43.4573 50.7149 43.4327C50.8371 42.7583 50.8345 42.0672 50.7073 41.3937ZM50.3393 68.9895C50.3853 69.3038 50.8222 69.2808 50.8069 68.7136C50.7379 66.9198 50.3317 66.8892 50.324 67.7784C50.2933 68.1815 50.2933 68.5864 50.324 68.9895H50.3393ZM50.3163 46.062C50.2843 46.3961 50.3102 46.7333 50.393 47.0585C50.423 47.1055 50.4697 47.1395 50.5237 47.1537C50.5776 47.1679 50.635 47.1613 50.6843 47.1352L50.7609 47.0585C50.7609 46.9819 50.7609 44.5672 50.416 45.0655C50.2397 45.3031 50.3163 45.7784 50.3163 46.062ZM50.6536 56.1115C50.6508 56.0933 50.6444 56.0758 50.6348 56.0601C50.6251 56.0443 50.6124 56.0307 50.5974 56.02C50.5824 56.0093 50.5654 56.0017 50.5474 55.9976C50.5294 55.9936 50.5108 55.9932 50.4926 55.9965C50.4633 55.9998 50.4359 56.013 50.415 56.0339C50.3941 56.0548 50.3809 56.0821 50.3776 56.1115C50.3776 56.4334 50.163 58.2732 50.5463 58.3115C51.0215 58.3728 50.6996 56.5484 50.6536 56.1115ZM50.6306 52.4014C50.6306 52.3689 50.6177 52.3377 50.5947 52.3147C50.5717 52.2917 50.5405 52.2787 50.508 52.2787C50.4754 52.2787 50.4442 52.2917 50.4212 52.3147C50.3982 52.3377 50.3853 52.3689 50.3853 52.4014C50.1247 55.8202 50.8069 54.4711 50.8069 54.4251C50.791 53.7475 50.7321 53.0715 50.6306 52.4014ZM50.7303 48.8063C50.7303 48.6376 50.4466 48.6683 50.416 48.8063C50.3853 48.9442 50.163 51.4125 50.6919 50.7993C50.82 50.137 50.8329 49.4576 50.7303 48.7909V48.8063ZM50.3317 60.4885V61.324C50.3317 61.8759 50.9909 62.3129 50.7073 60.2355C50.6306 59.7296 50.3623 59.7909 50.3317 60.4885ZM94.2166 91.3651C93.0466 91.1105 91.906 90.7355 90.8132 90.246C90.8668 91.4571 90.9281 92.6299 90.9895 93.7951C93.0131 93.7414 93.9943 93.4655 94.2166 91.3805V91.3651ZM122.817 95.9951L123.016 92.4766C121.214 92.6439 119.405 92.7156 117.596 92.6913C118.34 95.6348 119.873 95.9184 122.817 95.9951ZM126.143 143.874C125.599 133.096 125.316 103.944 125.653 92.1623C124.963 92.2697 124.212 92.3616 123.43 92.4383C122.901 110.069 122.663 126.243 123.775 144.081C124.57 144.119 125.367 144.05 126.143 143.874ZM71.1205 71.5958L36.9784 71.0592C35.5986 71.0592 34.1958 70.9749 32.8083 71.0592C32.6473 71.0592 32.6703 71.3122 32.8083 71.3275C34.5024 71.4885 38.3811 71.4961 40.2898 71.5345L71.0822 72.0557C71.3811 72.0557 71.4271 71.5958 71.1205 71.5958Z" fill="#333333"/>
<path d="M117.474 143.989C119.388 144.152 121.311 144.188 123.231 144.096C122.464 128.274 122.173 112.445 122.794 96.57C121.123 96.57 118.363 96.1561 117.543 94.4467C117.254 93.9001 117.119 93.2855 117.152 92.6683C112.208 92.5379 107.562 91.6028 106.321 89.2878C106.046 89.826 105.605 90.2614 105.063 90.5296C105.063 91.4341 104.925 95.7421 105.293 96.4244C105.577 96.9686 106.206 96.8919 106.719 96.9839C106.77 96.9982 106.813 97.0321 106.839 97.0781C106.865 97.124 106.871 97.1784 106.857 97.2292C106.847 97.2618 106.829 97.2914 106.805 97.3155C106.781 97.3396 106.752 97.3573 106.719 97.3672C105.293 97.5972 104.657 96.7616 104.58 95.4355C104.454 93.8794 104.454 92.3156 104.58 90.7596C102.388 91.7944 98.4941 92.2083 94.6153 91.4494C94.6153 93.8104 93.0132 94.4083 90.9742 94.462C92.2773 117.865 95.4049 132.276 99.3526 144.058C99.4829 144.433 107.585 144.349 107.57 143.989C106.972 130.789 106.65 119.206 108.099 107.654L107.332 101.522C105.263 100.633 105.646 99.9888 105.991 100.211L107.248 100.978C107.532 101.108 107.769 101.093 107.754 101.453C109.831 115.672 113.166 129.248 117.474 143.989ZM43.4021 65.8313C41.2036 65.7468 39.002 65.798 36.8098 65.9847C36.3192 66.0383 36.1965 66.092 36.1965 66.5826C36.1965 67.2725 36.1965 68.7059 36.5108 68.5219C36.5568 68.7059 41.708 68.6676 43.1338 68.5909C43.5248 68.5909 43.6014 68.338 43.3791 68.246C43.5554 68.223 43.6167 65.9233 43.4021 65.8313ZM36.5645 68.361C36.6028 67.6742 36.6028 66.9857 36.5645 66.2989C38.6878 66.2453 41.0488 66.2989 43.1108 66.1533C43.1108 66.4369 42.9958 68.0697 43.1951 68.223C42.3749 68.1693 36.6948 68.2996 36.5645 68.361Z" fill="#333333"/>
<path d="M119.038 47.8097C119.574 50.3723 119.927 52.9698 120.095 55.5825C120.226 57.4453 120.502 56.97 117.42 57.5219C116.822 57.6292 116.232 57.7672 115.634 57.8439C115.964 58.2425 118.225 60.9101 117.305 61.0021C116.063 62.6578 107.67 68.7672 105.485 69.986C105.37 70.7526 105.286 71.4655 105.24 72.2167C105.134 72.221 105.031 72.247 104.936 72.2932C104.841 72.3394 104.756 72.4046 104.688 72.485C104.695 71.5861 104.772 70.6891 104.918 69.802C101.315 67.2494 97.8884 61.4926 97.3365 60.0515C97.0759 59.377 98.448 58.4494 98.8696 58.0355C97.9497 57.269 95.5888 56.2571 95.7037 55.8815C96.528 53.432 97.6478 51.0921 99.0382 48.9136C98.1721 49.4429 97.3233 50.0002 96.4933 50.5846C96.1713 38.2432 96.179 25.5185 95.4355 13.2307H97.4208C97.7658 13.2307 97.7428 12.3415 97.4208 12.3415H95.3511C90.6062 11.4983 85.8612 10.6627 81.1393 9.68153C73.7881 8.14843 66.3066 6.27805 58.963 4.90592V3.99373C58.963 3.79443 58.1505 3.77143 58.1505 3.99373V4.8446C47.7177 7.55819 37.1547 9.82717 26.6529 12.1498C25.3098 12.3742 23.9793 12.6684 22.6669 13.0314L20.1143 13.085C19.8306 13.085 19.8383 13.8516 20.1143 13.8516H22.7665C22.3832 34.3798 22.3449 54.8927 22.1839 75.4055C22.1839 75.8501 21.9846 79.3303 22.3756 79.3303C26.7909 79.4223 57.8362 79.3303 57.8362 79.3303C57.8362 99.5978 57.8106 119.868 57.7595 140.141C51.5121 143.445 42.9268 148.051 41.4933 148.902C41.2327 148.971 19.0871 148.902 16.2432 148.971C16.0745 148.971 16.0745 149.293 16.2432 149.293C19.9609 149.424 130.559 149.477 130.559 149.477C130.865 149.477 130.927 148.964 130.62 148.964H125.546C125.375 147.49 125.08 146.034 124.664 144.61C122.918 144.786 121.159 144.786 119.413 144.61C118.194 145.047 113.38 146.909 113.189 148.941H107.723C107.592 147.519 107.32 146.115 106.911 144.748C105.031 145.182 103.082 145.227 101.185 144.878C100.364 145.169 95.6884 146.863 95.3435 148.956H76.2794C75.8194 148.496 59.3769 140.47 59.101 140.378V79.3533H89.809C89.533 83.186 89.418 89.1958 89.5943 89.2724C97.4975 92.6376 105.102 91.2884 106.067 88.7512C104.212 86.1986 104.358 79.4299 104.373 78.1574C104.521 78.3926 104.693 78.611 104.887 78.809C104.787 81.1087 104.787 88.2069 107.884 90.2536C111.165 92.4306 121.866 92.6376 126.504 91.4648C126.55 89.2724 126.442 86.4362 126.343 84.9567C122.265 84.6325 118.218 83.9918 114.239 83.0404C113.817 82.9484 110.912 82.4118 110.866 82.0668C110.82 81.7219 110.766 81.2543 110.736 80.8404L109.203 80.4954C109.196 78.5463 109.392 76.6017 109.785 74.6926L110.966 74.6466C111.027 74.248 110.966 73.5198 111.433 73.5198C112.562 73.1473 113.715 72.8503 114.883 72.6306C116.84 72.2167 118.792 71.8206 120.739 71.4425C120.235 69.3781 119.902 67.2758 119.743 65.1568C119.743 64.9115 120.095 64.8501 120.118 65.0954C120.37 67.2048 120.764 69.2946 121.299 71.3505C123.535 70.8833 125.798 70.5531 128.075 70.3616C128.115 70.37 128.15 70.3917 128.176 70.4231C128.201 70.4545 128.215 70.4937 128.215 70.5341C128.215 70.5745 128.201 70.6137 128.176 70.6451C128.15 70.6765 128.115 70.6982 128.075 70.7066C122.602 71.1435 116.96 72.6306 111.594 73.9031C111.126 76.5201 110.989 79.1857 111.188 81.8369C114.605 82.7342 118.071 83.438 121.567 83.9449C127.27 84.6425 135.71 86.0299 136.898 78.1574C138.784 66.4216 129.547 52.5777 119.038 47.8097ZM57.7595 148.918H43.6933C48.3616 146.365 53.0836 144.073 57.7979 141.421L57.7595 148.918ZM92.7985 12.3261L59.0703 12.6711C59.0703 10.1798 59.0167 8.07177 58.9707 5.56516C69.894 8.07177 81.7142 10.3714 92.7985 12.3261ZM58.1275 5.61881C58.0815 8.10244 58.0355 10.2181 58.0048 12.6864C46.6829 12.7937 36.0355 12.8244 24.7136 13.0314C36.0968 10.8084 58.1275 5.61881 58.1275 5.61881ZM74.041 148.964H59.0243V141.497C63.478 144.05 69.3191 146.794 74.041 148.925V148.964ZM94.9142 57.9742C91.848 64.3519 90.3992 71.8334 89.8396 78.8933C67.6097 78.8933 44.9505 78.3567 22.7819 78.8397C22.9122 77.1763 22.6669 74.432 22.6822 72.6459C22.8355 53.0376 23.4871 33.5519 23.4104 13.9129C32.517 13.9129 94.7762 13.2537 94.7762 13.2537C95.1978 24.8746 96.018 50.3777 96.0717 50.9296C91.7176 54.0432 87.8013 57.7275 84.4278 61.8836C85.8775 62.1464 87.3088 62.5023 88.7128 62.9491C88.7597 62.9694 88.7971 63.007 88.817 63.0541C88.837 63.1012 88.8381 63.1542 88.8201 63.2021C88.803 63.2447 88.7711 63.2797 88.7303 63.3008C88.6895 63.322 88.6425 63.3277 88.5978 63.317C85.6926 62.6271 75.0606 60.3735 70.2006 60.9024C70.0856 60.9024 70.1086 61.1017 70.147 61.3393C69.6931 61.2465 69.2275 61.2258 68.7672 61.278C67.4257 59.469 66.0076 57.4453 63.685 58.9784C62.6501 57.0313 53.7735 40.0522 53.4285 40.0216C52.9992 39.393 52.501 40.0216 52.7846 40.5505L62.7114 60.5575C61.9449 61.2167 61.8299 62.2362 62.4815 62.4508C62.0829 63.2787 62.6348 64.2599 62.9107 64.1449C62.6118 65.678 64.8884 67.0961 65.908 66.9045C66.0459 67.1651 66.6745 68.5066 66.9428 68.4912C67.0905 68.607 67.2736 68.6681 67.4612 68.6641C67.6488 68.6602 67.8292 68.5914 67.9719 68.4695C68.1145 68.3476 68.2106 68.1801 68.2438 67.9955C68.277 67.8108 68.2452 67.6203 68.1539 67.4564L68.7978 67.8014C68.6139 68.108 68.5066 68.2689 68.5602 68.3303C71.7261 72.025 79.5909 76.6013 82.6034 77.0689C85.041 77.4446 87.9079 77.5212 89.3414 77.1149C90.0006 70.8062 91.5107 63.3937 94.5539 57.7519C94.5654 57.7281 94.5814 57.7069 94.6012 57.6893C94.6209 57.6718 94.6439 57.6584 94.6688 57.6498C94.6938 57.6413 94.7202 57.6378 94.7465 57.6395C94.7729 57.6412 94.7986 57.6482 94.8222 57.6599C94.847 57.6713 94.8692 57.6876 94.8873 57.7079C94.9055 57.7283 94.9194 57.7521 94.928 57.7779C94.9366 57.8038 94.9399 57.8312 94.9375 57.8583C94.9351 57.8855 94.9272 57.9119 94.9142 57.9359V57.9742ZM66.1532 62.7498C66.1041 62.6568 66.0316 62.5782 65.9429 62.5218C65.8542 62.4653 65.7523 62.433 65.6473 62.4278C65.7331 62.374 65.8062 62.3023 65.8617 62.2176C65.9173 62.133 65.954 62.0373 65.9693 61.9372C66.2606 62.2515 66.3449 62.0446 66.2606 61.9372C65.862 61.3623 65.494 59.7679 65.1721 59.9136C64.8731 59.8062 63.9532 60.1129 63.4473 60.0669C63.248 60.0669 63.0947 59.9366 63.248 59.7219C63.827 59.0909 64.6247 58.7044 65.4787 58.6411C66.6132 58.8404 68.016 60.7414 68.6139 61.6C69.2808 63.3784 68.1539 66.0996 67.694 66.5519L66.0766 63.4014C66.1481 63.3103 66.1931 63.2013 66.2067 63.0864C66.2202 62.9714 66.2017 62.8549 66.1532 62.7498ZM62.9031 60.0209L52.9916 40.2285C52.9916 39.7686 53.3212 40.1672 53.4668 40.4049C54.3254 42.1296 63.432 59.1853 63.432 59.1853C63.2829 59.2715 63.1568 59.3925 63.0647 59.538C62.9726 59.6835 62.9171 59.8492 62.9031 60.0209ZM63.156 60.6648C63.6083 60.4271 64.9038 60.0362 65.2257 60.6188C65.264 60.8028 65.3024 60.9791 65.333 61.163C64.8256 61.0695 64.3021 61.1206 63.8223 61.3103C63.3425 61.5001 62.9257 61.8209 62.6195 62.2362C62.1519 61.6996 62.6118 60.9331 63.156 60.6648ZM62.6961 62.7268C62.9797 61.9602 64.6201 61.0557 65.3637 61.508C66.1073 61.9602 65.1567 62.2745 65.0188 62.4662C64.5669 62.4968 64.1337 62.6579 63.7717 62.9301C63.4097 63.2023 63.1346 63.5737 62.9797 63.9993C62.816 63.8363 62.7024 63.6299 62.6521 63.4044C62.6018 63.179 62.6171 62.9439 62.6961 62.7268ZM64.3902 62.9338C64.7121 62.8111 66.3296 62.4202 65.793 63.2787C65.0264 63.3477 64.3749 63.9303 64.7581 64.6815C65.0801 65.3101 65.4097 65.9386 65.747 66.5595C63.5776 66.3219 61.9755 63.8306 64.3902 62.9338ZM64.9268 64.0989C65.004 63.9545 65.1132 63.8298 65.2461 63.7341C65.3789 63.6384 65.5319 63.5744 65.6933 63.547C65.9769 64.0989 67.901 67.6787 67.901 67.9623C67.901 68.246 67.2724 68.4836 67.1344 68.223C66.3577 66.8687 65.6167 65.494 64.9114 64.0989H64.9268ZM67.8167 66.7512C69.0048 65.8773 69.3498 63.1714 69.0048 61.531L70.2696 61.7149C70.4513 63.73 70.004 65.7519 68.9895 67.5024C68.7442 67.3491 67.9163 66.9811 67.8013 66.7512H67.8167ZM108.973 79.5756C107.938 79.5142 106.895 79.7289 105.776 79.0696C104.948 78.579 104.097 77.5365 104.373 76.563C104.68 76.977 104.833 76.6167 104.718 76.4864C104.509 76.258 104.365 75.9764 104.305 75.6723C104.244 75.3681 104.268 75.0531 104.373 74.7616C104.626 75.2752 104.872 74.9763 104.78 74.8153C104.404 74.1177 104.32 72.8682 105.217 72.5156C105.148 74.2787 107.079 74.5317 106.941 74.0487C106.941 74.0487 106.175 70.6989 107.041 70.8676C107.463 72.002 108.038 74.478 109.341 74.823C109.044 76.389 108.915 77.9822 108.957 79.5756H108.973Z" fill="#333333"/>
<path d="M31.6891 70.0857C37.5762 61.6536 45.0961 48.8139 50.0173 39.8989C50.2031 40.0138 50.4174 40.0741 50.6358 40.073C50.8542 40.0719 51.0678 40.0094 51.2525 39.8928C51.4371 39.7761 51.5852 39.6099 51.6799 39.4131C51.7746 39.2163 51.8121 38.9968 51.788 38.7798C57.7518 40.3129 63.9685 41.2097 69.9936 42.5512C70.1086 44.1533 72.3622 43.5401 72.0173 42.2292C77.0152 37.1854 82.3964 31.8195 87.2793 26.8216L87.4633 26.8983C87.751 26.9933 88.0646 26.9709 88.3359 26.8359C88.6072 26.701 88.8142 26.4645 88.9121 26.1777C89.0119 25.9085 89.0044 25.6113 88.8913 25.3474C88.7781 25.0836 88.5679 24.8733 88.304 24.7601C88.0402 24.6469 87.743 24.6394 87.4738 24.7392C87.2046 24.8389 86.984 25.0384 86.8577 25.2962C86.749 25.5008 86.7034 25.7331 86.7266 25.9636C86.7498 26.1942 86.8408 26.4127 86.988 26.5916C82.0514 31.5972 76.5629 36.7484 71.8793 41.9226C71.7555 41.7527 71.5851 41.6222 71.3887 41.547C71.1263 41.4523 70.8372 41.4642 70.5835 41.5803C70.3298 41.6964 70.1318 41.9074 70.0319 42.1679C66.9657 41.547 53.1678 38.5268 51.7267 38.4732C51.1671 36.8174 48.5609 38.2509 49.6877 39.6306C43.9156 50.1017 37.7372 59.7909 31.4285 69.9094C31.178 69.7888 30.8943 69.7557 30.6227 69.8155C30.3512 69.8753 30.1076 70.0244 29.9309 70.2391C29.7543 70.4538 29.6547 70.7215 29.6483 70.9994C29.6418 71.2774 29.7288 71.5495 29.8954 71.7721C30.9149 73.2209 33.0689 71.3352 31.6891 70.0857ZM87.7852 19.6007C87.5016 19.639 87.6013 20.03 87.6166 20.2216C87.9385 23.4564 88.4751 19.5317 87.7852 19.6007Z" fill="#333333"/>
<path d="M71.1282 34.4257C70.6606 34.3798 70.9749 36.2041 71.0209 36.6334C71.0236 36.6516 71.03 36.6691 71.0397 36.6848C71.0493 36.7006 71.0621 36.7142 71.0771 36.7249C71.0921 36.7356 71.1091 36.7432 71.1271 36.7473C71.1451 36.7513 71.1637 36.7517 71.1818 36.7484C71.2112 36.7451 71.2386 36.7319 71.2595 36.711C71.2803 36.6901 71.2935 36.6628 71.2968 36.6334C71.2891 36.3038 71.5114 34.4947 71.1282 34.4257ZM71.2891 40.3742C71.5498 36.963 70.8675 38.3045 70.8675 38.3505C70.8841 39.0255 70.943 39.6989 71.0439 40.3665C71.0428 40.399 71.0548 40.4306 71.0771 40.4544C71.0993 40.4781 71.1301 40.492 71.1627 40.493C71.1952 40.494 71.2268 40.4821 71.2505 40.4598C71.2742 40.4375 71.2881 40.4067 71.2891 40.3742ZM71.0515 27.1895C70.7679 27.2278 70.8675 27.6188 70.8905 27.8104C71.2355 31.0453 71.7414 27.1205 71.0515 27.1895ZM87.6397 22.6515C87.4404 24.5296 88.1532 24.6982 88.0613 23.3108C88.0613 23.0118 87.9693 22.7129 87.9309 22.4139C87.9309 22.2836 87.6857 22.1763 87.6397 22.6515ZM80.1581 23.5714C81.5839 23.717 84.6348 23.6251 84.8188 23.6174C85.9686 23.6174 85.8536 23.6174 85.7693 22.5136C85.7693 21.931 85.6926 21.2947 85.4243 21.3714L79.6675 21.2488C79.2153 21.1261 79.3839 21.8773 79.4069 22.3603C79.4529 23.2341 79.1463 23.4641 80.1581 23.5714ZM79.7825 21.5707L85.4013 21.7393L85.4473 23.2111H79.7749L79.7825 21.5707ZM70.9749 21.7087C70.9855 21.7429 71.0091 21.7717 71.0405 21.7888C71.072 21.806 71.1089 21.8103 71.1435 21.8007C71.1661 21.794 71.1868 21.7822 71.2041 21.7663C71.2213 21.7503 71.2347 21.7306 71.2432 21.7087C71.3603 21.0429 71.3759 20.3631 71.2891 19.6927C71.2793 19.6694 71.2647 19.6485 71.2464 19.6311C71.2281 19.6137 71.2064 19.6003 71.1827 19.5917C71.1589 19.583 71.1337 19.5794 71.1085 19.5809C71.0833 19.5825 71.0587 19.5892 71.0362 19.6007C71.0084 19.6149 70.9846 19.636 70.9672 19.662C70.8558 20.332 70.8558 21.0157 70.9672 21.6857L70.9749 21.7087ZM71.1205 23.4488C70.7449 23.4488 70.8905 24.177 70.9059 24.3839C71.0439 27.1972 71.8411 23.4641 71.1205 23.4488ZM40.4278 37.6069C40.4278 37.7219 40.6348 37.7372 40.9491 37.7372C42.2906 37.7372 47.1352 38.1205 47.2195 37.5839C47.4954 37.5839 47.3958 35.9205 47.3575 35.5986C47.7024 34.7784 41.1484 35.3839 40.6731 35.3456C40.4585 35.2843 40.3589 35.5219 40.3972 35.8745C40.4585 36.4724 40.3972 37.331 40.4278 37.6069ZM40.7575 35.6752C42.8271 35.6752 45.0271 35.7289 47.0892 35.6752V37.446C44.9275 37.5303 42.8348 37.446 40.7268 37.5073C40.768 36.8975 40.7782 36.286 40.7575 35.6752ZM30.4704 21.862C30.3554 27.8641 30.4014 59.2466 30.4167 68.9358C30.4167 69.2425 30.8996 69.2808 30.8996 68.9358C30.8996 62.7114 30.9686 31.2982 30.7693 21.816C30.9993 21.816 31.8042 21.7777 31.9651 21.517C32.1261 21.2564 30.9993 18.2745 30.8306 17.8299C30.7693 17.6766 30.57 17.784 30.5393 17.8913C30.1714 19.1101 29.7728 20.3059 29.4508 21.54C29.3589 21.9157 30.2327 21.8697 30.4704 21.862ZM71.3428 32.1951V31.3519C71.3428 30.8076 70.6836 30.363 70.9672 32.4481C71.0439 32.9616 71.2891 32.9616 71.3428 32.1951ZM50.3317 36.3421C50.3777 36.6564 50.8223 36.6257 50.7993 36.0585C50.7303 34.2648 50.324 34.2341 50.3163 35.131C50.2857 35.5341 50.2857 35.939 50.3163 36.3421H50.3317ZM50.5923 21.9846C51.0139 21.9463 50.6843 20.0376 50.5923 19.685C50.5923 19.5547 50.3547 19.524 50.347 19.685C50.347 20.3749 50.3317 21.0648 50.301 21.7547C50.2997 21.7908 50.3069 21.8267 50.3221 21.8596C50.3373 21.8924 50.36 21.9211 50.3883 21.9435C50.4167 21.9659 50.45 21.9813 50.4854 21.9885C50.5208 21.9956 50.5575 21.9943 50.5923 21.9846ZM50.324 27.8258V28.6843C50.324 29.2285 50.9832 29.6578 50.6996 27.5881C50.5923 27.0592 50.3547 27.1052 50.324 27.8258ZM50.5386 25.6411C51.0139 25.6871 50.6919 23.8627 50.646 23.4258C50.646 23.3892 50.6314 23.3541 50.6055 23.3282C50.5797 23.3023 50.5446 23.2878 50.508 23.2878C50.4714 23.2878 50.4363 23.3023 50.4104 23.3282C50.3845 23.3541 50.37 23.3892 50.37 23.4258C50.37 23.763 50.1554 25.6028 50.5386 25.6411Z" fill="#333333"/>
</svg>
