<svg width="154" height="154" viewBox="0 0 154 154" fill="none" xmlns="http://www.w3.org/2000/svg">
<path fill-rule="evenodd" clip-rule="evenodd" d="M66.9488 65.5079C66.8415 65.7148 66.5272 67.8074 67.7613 67.8074C67.9769 67.8079 68.1855 67.7307 68.3488 67.5899C68.5121 67.4491 68.6192 67.2542 68.6505 67.0409C68.9111 64.6953 67.3781 64.703 66.9488 65.5079ZM78.0635 65.4772C78.1325 66.2897 78.2245 67.0103 79.037 67.0103C79.2526 67.0107 79.4611 66.9335 79.6244 66.7927C79.7877 66.6519 79.8948 66.457 79.9262 66.2437C79.9427 65.7505 79.8885 65.2575 79.7652 64.7797C79.3206 63.9595 77.9485 64.1588 78.0635 65.4772ZM72.6978 72.8819C72.9354 72.8819 74.9974 72.7822 75.4803 72.4066C75.6259 72.2993 75.6106 72.0924 75.6106 71.9007C75.5646 69.7264 75.3545 67.5586 74.9821 65.4159C74.9821 65.3009 74.8824 65.2779 74.8211 65.2932C74.7598 65.3086 74.7291 65.4159 74.7368 65.5998C74.7368 66.2284 74.6831 66.443 74.9054 69.9614C75.051 72.261 74.9897 71.6171 75.0357 72.0004C74.3169 72.2637 73.5788 72.4713 72.8281 72.6213C72.3299 72.7286 72.6825 72.8819 72.6978 72.8819ZM75.12 78.1863C74.5513 78.4912 73.9242 78.6715 73.2804 78.7152C73.2478 78.7152 73.2166 78.7281 73.1936 78.7511C73.1706 78.7741 73.1577 78.8053 73.1577 78.8378C73.1577 78.8703 73.1706 78.9015 73.1936 78.9245C73.2166 78.9475 73.2478 78.9605 73.2804 78.9605C73.6405 79.09 74.0252 79.1366 74.4058 79.0968C74.7865 79.0571 75.1532 78.932 75.4789 78.7309C75.8045 78.5298 76.0805 78.2578 76.2865 77.9353C76.4924 77.6127 76.623 77.2478 76.6684 76.8678C76.6724 76.8522 76.6734 76.836 76.6711 76.82C76.6689 76.8041 76.6635 76.7887 76.6553 76.7748C76.6471 76.761 76.6363 76.7488 76.6234 76.7391C76.6105 76.7295 76.5959 76.7224 76.5803 76.7184C76.5647 76.7143 76.5484 76.7134 76.5325 76.7157C76.5165 76.7179 76.5012 76.7233 76.4873 76.7315C76.4734 76.7397 76.4613 76.7505 76.4516 76.7634C76.4419 76.7763 76.4348 76.7909 76.4308 76.8065C76.1204 77.372 75.6688 77.8473 75.12 78.1863ZM40.7641 19.0714C42.7341 25.6559 49.7019 25.334 50.5144 25.8246C50.5144 25.9012 52.1088 32.0411 52.7527 32.8843C53.1129 33.3519 53.9791 33.1679 54.554 33.0606C55.9031 32.7923 57.4668 32.708 58.609 31.7958C58.9002 31.5582 58.7316 30.5924 58.6549 30.2628C58.411 28.8845 58.0729 27.5246 57.6431 26.1925C57.4741 25.7906 57.3307 25.3784 57.2139 24.9584C57.7428 24.4898 58.3181 24.0763 58.9309 23.7243C59.9423 23.0353 60.842 22.1951 61.5984 21.233C63.0621 19.0889 63.7237 16.4977 63.4672 13.9143C63.2106 11.3309 62.0524 8.92038 60.1957 7.10589C54.5157 1.53321 44.2442 3.34989 40.9098 10.379C39.7676 12.8165 39.9899 16.5112 40.7641 19.0714ZM58.2564 31.4279C57.2369 32.2481 55.7345 32.3554 54.4237 32.6237C54.0711 32.7003 53.2356 32.9073 53.0133 32.6237C52.5796 31.9976 52.2675 31.2955 52.0934 30.5541C54.079 30.2742 56.0211 29.7436 57.8731 28.975C58.1236 29.7687 58.2529 30.5956 58.2564 31.4279ZM57.7888 28.6607C55.8301 29.0258 53.9067 29.5592 52.0398 30.2551C51.8418 29.3655 51.5858 28.4897 51.2733 27.6336C53.2537 27.4262 55.196 26.9464 57.0452 26.2078C57.3545 27.0181 57.6106 27.8477 57.8118 28.6914L57.7888 28.6607ZM41.3927 10.6166C44.6044 3.97845 54.4237 2.29974 59.7894 7.55048C61.5334 9.26105 62.6244 11.5276 62.8736 13.9577C63.1227 16.3878 62.5144 18.8285 61.1538 20.8574C59.8277 22.7278 57.1449 24.0156 56.731 24.6901C56.5853 24.9277 56.8536 25.5333 57.0222 25.9625C56.1484 26.1312 55.1902 26.3381 54.3317 26.5298C54.1018 25.4796 53.0286 21.2407 52.63 20.2442C52.4767 19.8456 52.3387 19.8763 51.9325 19.9913C49.6942 19.9913 47.2336 19.424 46.4441 17.3161C46.3487 17.069 46.2819 16.8118 46.2448 16.5495C46.1375 15.4457 47.0113 14.158 47.9772 14.25C47.8392 15.0931 47.9772 16.7029 48.6977 17.1858C49.4183 17.6687 50.2308 16.9022 50.2308 16.2123C50.1899 15.7148 50.0282 15.2348 49.7597 14.814C49.4912 14.3932 49.124 14.0444 48.6901 13.7977C48.8105 13.5241 48.9891 13.2799 49.2134 13.0821C49.4376 12.8844 49.7022 12.7377 49.9888 12.6524C50.2754 12.5671 50.5771 12.5451 50.873 12.588C51.1689 12.6309 51.452 12.7377 51.7025 12.9009C51.097 14.0813 51.7025 16.7872 52.7757 16.151C53.8488 15.5147 53.4962 13.951 52.8293 13.0848C52.5074 12.6632 52.4384 12.7782 52.5994 12.6556C53.8488 11.7434 55.2669 12.8012 55.8648 14.1886C56.7233 16.0973 54.8836 18.4505 53.7185 19.1634C53.69 19.1807 53.6696 19.2086 53.6617 19.2409C53.6538 19.2733 53.6591 19.3074 53.6763 19.3359C53.6936 19.3643 53.7215 19.3848 53.7538 19.3927C53.7862 19.4006 53.8203 19.3953 53.8488 19.378C55.2745 18.5425 57.0759 16.082 56.2557 14.0123C55.4355 11.9427 53.3736 11.1455 52.0705 12.3796C51.7423 12.1545 51.3679 12.0058 50.9747 11.9446C50.5815 11.8834 50.1796 11.9112 49.7986 12.026C49.4176 12.1407 49.0671 12.3395 48.7731 12.6077C48.4791 12.8758 48.249 13.2065 48.0998 13.5754C46.6741 13.3914 45.4706 15.0548 45.6316 16.5649C45.7182 17.2323 45.9705 17.8674 46.3654 18.4124C46.7604 18.9573 47.2855 19.3947 47.8929 19.6847C48.6134 20.0296 51.1736 20.6582 52.1854 20.3669C52.538 21.1334 53.8181 25.6329 54.0481 26.5758C50.6447 27.3423 51.3346 27.7026 51.1659 27.2043C50.9666 26.5834 50.844 25.6713 50.6754 25.6099C46.4441 24.6518 42.6268 23.9466 41.201 18.9258C40.5035 16.4959 40.3195 12.8932 41.3927 10.6166ZM48.5061 14.4033C48.7965 14.6094 49.0393 14.8755 49.2178 15.1837C49.3964 15.4918 49.5066 15.8348 49.5409 16.1893C49.5409 16.3962 49.0733 16.9558 48.7744 16.3426C48.5455 15.7234 48.4641 15.0594 48.5367 14.4033H48.5061ZM52.1241 13.2305C52.7373 13.8284 53.1206 15.2234 52.4537 15.6297C52.2226 15.28 52.0729 14.8829 52.0159 14.4676C51.9588 14.0523 51.9958 13.6295 52.1241 13.2305ZM29.1282 42.4889C32.248 41.5154 36.027 42.3586 37.4834 45.808C40.0053 51.649 33.3364 54.6231 33.4054 54.9297C33.5587 55.6963 33.8347 57.0377 33.9497 57.8119C33.9588 57.8769 33.9934 57.9357 34.0459 57.9752C34.0984 58.0148 34.1644 58.0318 34.2294 58.0227C34.2945 58.0135 34.3533 57.9789 34.3928 57.9265C34.4323 57.874 34.4494 57.808 34.4402 57.7429C34.3483 56.9764 34.2486 55.8726 34.1413 55.0754C35.2251 54.6406 36.2279 54.0265 37.1078 53.2587C42.5195 46.8735 36.4792 38.8173 28.7603 41.3391C27.538 41.6955 26.457 42.4235 25.6672 43.4221C24.8774 44.4207 24.418 45.6403 24.3527 46.9118C24.1074 49.932 26.5143 52.5382 30.4006 52.2009C30.4592 52.1906 30.5123 52.1599 30.5505 52.1144C30.5888 52.0688 30.6097 52.0112 30.6097 51.9518C30.6097 51.8923 30.5888 51.8347 30.5505 51.7891C30.5123 51.7436 30.4592 51.713 30.4006 51.7026C26.9512 51.8789 25.1039 49.403 25.4335 47.0268C25.5099 45.9829 25.9053 44.9877 26.5661 44.176C27.227 43.3643 28.1214 42.7753 29.1282 42.4889ZM86.3804 22.4902C86.4454 22.5074 86.5147 22.4982 86.5729 22.4644C86.6311 22.4306 86.6735 22.3751 86.6908 22.31C86.7081 22.245 86.6988 22.1757 86.665 22.1175C86.6313 22.0593 86.5757 22.0169 86.5107 21.9996C83.1916 21.0644 82.2334 18.1286 83.3066 15.9746C83.7245 15.0126 84.4282 14.2025 85.3223 13.654C86.2163 13.1055 87.2574 12.8452 88.3044 12.9085C94.0687 13.0542 96.5982 18.3586 94.4366 22.1452C93.0032 24.7361 91.0869 25.4336 88.634 25.7556C88.5565 25.7665 88.4847 25.8023 88.4294 25.8576C88.374 25.9129 88.3382 25.9847 88.3274 26.0622C88.243 26.7674 88.0591 28.1548 87.9211 28.9597C87.9079 29.0237 87.9206 29.0904 87.9566 29.145C87.9925 29.1996 88.0487 29.2377 88.1127 29.251C88.1768 29.2642 88.2434 29.2514 88.2981 29.2155C88.3527 29.1795 88.3908 29.1234 88.404 29.0593C88.5803 28.2315 88.8179 27.258 88.9789 26.4378C90.1434 26.3752 91.2889 26.116 92.367 25.6713C94.9655 24.1382 96.5446 21.716 96.3376 18.6498C95.8547 11.4521 85.3532 8.87658 82.3331 15.5837C81.1603 18.3126 82.586 21.6316 86.3804 22.4902ZM128.969 58.4558C128.881 57.0349 128.374 55.6719 127.512 54.5388C126.683 53.606 125.672 52.8528 124.541 52.3255C123.41 51.7982 122.183 51.5079 120.936 51.4727C119.666 51.4138 118.409 51.751 117.339 52.4377C116.27 53.1243 115.44 54.1264 114.964 55.3053C113.761 58.0878 115.21 61.3303 118.989 62.2501C119.022 62.2653 119.059 62.2729 119.096 62.2724C119.133 62.2719 119.169 62.2633 119.202 62.2473C119.236 62.2312 119.265 62.2081 119.288 62.1795C119.312 62.1509 119.328 62.1175 119.338 62.0817C119.347 62.0459 119.348 62.0086 119.341 61.9723C119.334 61.936 119.319 61.9017 119.298 61.8717C119.276 61.8417 119.248 61.8168 119.216 61.7988C119.184 61.7807 119.148 61.7699 119.111 61.7672C115.815 60.7707 114.834 57.9345 115.915 55.7423C116.333 54.7803 117.036 53.9701 117.93 53.4216C118.825 52.8731 119.866 52.6129 120.913 52.6761C121.976 52.7057 123.022 52.9505 123.987 53.3958C124.953 53.8411 125.819 54.4777 126.531 55.267C127.249 56.2041 127.676 57.3317 127.758 58.5094C128.302 65.2702 121.02 65.2932 120.951 65.8298C120.859 66.5963 120.69 67.9454 120.545 68.7273C120.531 68.7913 120.544 68.858 120.58 68.9126C120.616 68.9672 120.672 69.0054 120.736 69.0186C120.8 69.0318 120.867 69.019 120.922 68.9831C120.976 68.9471 121.014 68.891 121.028 68.8269C121.212 68.0067 121.441 67.0256 121.602 66.2054C122.769 66.1399 123.917 65.8808 124.998 65.4389C127.558 63.9365 129.176 61.5526 128.969 58.4558ZM37.3607 63.6222C37.6903 62.2578 36.7015 60.8244 35.7204 60.9393C35.084 60.8705 34.4432 60.8526 33.804 60.8857C32.1407 61.2843 31.3588 63.4612 32.9225 64.5267C34.7162 65.7225 37.0388 64.8946 37.3607 63.6222ZM36.1726 63.4689C35.9004 63.696 35.567 63.8374 35.2144 63.8751C33.1295 64.1664 32.6849 62.3421 34.0876 61.7442L35.7357 61.4376C36.4486 61.4989 36.6095 63.0243 36.1726 63.4306V63.4689ZM87.2849 31.8878C85.4989 31.2363 83.5672 33.2522 84.832 34.9539C86.0967 36.6556 88.6033 36.6556 89.3238 35.5212C90.0444 34.3867 89.6075 32.6697 88.6416 32.4551C88.5573 32.4167 87.8904 32.1101 87.2849 31.8878ZM88.2507 34.9539C87.9078 35.0706 87.5406 35.0967 87.1846 35.0295C86.8287 34.9624 86.4962 34.8043 86.2194 34.5707C85.9929 34.408 85.8067 34.1956 85.6752 33.9498C85.4529 33.3289 86.2501 32.6927 86.8326 32.6544L88.4883 32.892C89.1322 33.2369 88.8103 34.7393 88.2507 34.9769V34.9539ZM121.242 72.2687C121.089 72.1997 120.299 71.8701 119.893 71.7168C118.099 71.0652 116.175 73.0812 117.44 74.7829C118.705 76.4846 121.204 76.4846 121.932 75.3501C122.66 74.2156 122.216 72.4833 121.242 72.2687ZM120.851 74.8059C120.508 74.9218 120.141 74.9475 119.785 74.8803C119.43 74.8132 119.097 74.6556 118.82 74.4226C118.595 74.2547 118.41 74.0403 118.276 73.794C118.061 73.1808 118.851 72.5446 119.433 72.5063L121.089 72.7439C121.733 73.0658 121.411 74.5606 120.851 74.8059Z" fill="#333333"/>
<path fill-rule="evenodd" clip-rule="evenodd" d="M114.98 114.551C113.447 107.008 107.483 95.3872 100.324 92.4208L98.8825 89.4083C98.8722 89.3865 98.8573 89.3671 98.8389 89.3515C98.8205 89.3358 98.7989 89.3244 98.7756 89.3178C98.7523 89.3113 98.728 89.3098 98.7041 89.3135C98.6802 89.3172 98.6574 89.326 98.6372 89.3393L97.1042 90.3281C96.6172 87.0745 95.1305 84.0528 92.8499 81.6817C94.4443 79.2211 96.9968 78.4699 99.6337 78.3549C101.818 78.263 103.428 78.1326 104.693 76.2623C107.199 72.5676 106.609 68.9649 103.666 65.5309C99.1815 60.3031 97.4184 61.8669 95.2338 58.977C91.0792 53.55 90.1364 45.5244 84.0195 41.3468C76.2009 36.0501 71.985 40.3197 70.3446 41.6381C67.9453 40.1817 62.595 40.6876 60.2954 42.6576C58.3407 44.3286 55.7498 46.4903 54.7457 48.9048C52.6071 54.0023 52.837 60.0349 49.7096 64.657C48.943 65.8068 47.6323 66.581 46.7048 67.6695C45.4317 69.2657 44.3487 71.0047 43.4777 72.8513C42.3432 74.9975 41.477 77.3814 42.5119 79.6044C43.8993 82.5785 47.0037 85.4147 50.3151 85.2001C52.2315 85.0698 54.7687 83.92 56.57 84.6788C57.6432 85.1234 58.0571 86.1582 58.8696 87.0244C60.7093 89.071 65.0019 89.6919 67.3781 88.2738C64.7642 91.6006 60.7783 91.4856 53.8258 95.3183C43.1557 101.19 39.2618 107.859 38.1196 114.688C37.6827 116.813 37.3603 118.96 37.1538 121.12C36.4946 132.257 39.875 146.377 50.8364 148.715C53.8412 149.359 57.2829 149.773 60.257 149.029C65.891 147.626 72.6135 143.832 77.55 140.751C79.8496 139.317 88.358 133.576 92.3133 132.825C92.5514 134.87 93.0672 136.874 93.8464 138.781C97.0122 145.288 102.079 149.136 109.177 147.465C113.776 146.385 115.087 141.486 115.21 136.795C117.517 131.843 115.685 118.153 114.98 114.551ZM88.4577 78.6616C89.8221 78.9145 90.7573 80.1946 91.7691 81.2371C94.4443 83.9123 96.284 86.7791 96.8359 90.4355C94.6206 91.8459 93.1795 92.7351 93.1489 92.781C93.1182 92.827 92.0527 90.1135 91.4088 89.7839C90.4455 89.3056 89.5717 88.6652 88.8256 87.8906C88.2507 87.2544 87.5455 86.1352 87.6375 85.292C88.0449 85.0753 88.4897 84.9374 88.9483 84.8858V84.4105C86.5797 84.4795 85.7672 86.6411 85.5525 87.1241C85.3992 87.469 85.1846 87.8139 84.694 87.7603C84.2034 87.7066 84.0271 87.1394 84.2111 86.6335C84.3951 86.1276 84.8397 83.9046 87.9748 83.4217C88.014 83.4162 88.0518 83.403 88.086 83.3828C88.1201 83.3627 88.15 83.336 88.1738 83.3043C88.1977 83.2727 88.215 83.2366 88.2249 83.1982C88.2349 83.1598 88.2371 83.1199 88.2316 83.0806C88.226 83.0413 88.2128 83.0036 88.1927 82.9694C88.1725 82.9353 88.1459 82.9054 88.1142 82.8816C88.0825 82.8577 88.0465 82.8403 88.0081 82.8304C87.9697 82.8205 87.9297 82.8183 87.8905 82.8238C87.2343 82.9072 86.5984 83.1071 86.0125 83.414C85.4858 83.6712 85.0183 84.035 84.6396 84.4823C84.2609 84.9296 83.9792 85.4507 83.8125 86.0126C83.4446 87.0627 82.1568 86.5951 82.4634 85.6906C82.772 84.8107 83.231 83.9911 83.8202 83.2684C84.4744 82.6447 85.2602 82.1759 86.1198 81.8963C86.7943 81.6204 87.3692 81.7507 87.5225 81.5284C87.6758 81.3061 87.3156 80.5625 87.1316 80.3403C86.1428 79.1598 83.2989 80.1793 82.2105 78.8609C81.5129 77.9947 82.977 77.964 83.5672 77.8874C85.2229 77.7034 86.7943 78.3473 88.4577 78.6616ZM91.2709 97.6562C89.0797 98.3704 86.8443 98.9414 84.579 99.3655C85.3456 95.004 85.8668 91.2633 85.7902 89.9066C87.5762 90.2515 89.6228 90.4968 91.8611 90.8647C92.4667 91.8689 92.7963 92.7121 92.9419 92.9497L91.4548 93.8925C91.3782 93.9922 91.3935 93.5782 91.2709 97.6562ZM82.9463 119.801C83.2858 121.273 83.5265 122.766 83.6669 124.27C80.5241 124.071 78.1249 124.109 76.9444 124.063C76.9904 121.909 77.0134 121.242 77.0517 120.79C78.9862 120.3 80.9577 119.969 82.9463 119.801ZM70.8888 100.922C75.2373 100.953 79.5801 100.599 83.8662 99.8638C82.5018 107.222 80.4245 116.068 79.4433 117.839C77.1897 111.691 77.4197 111.668 70.8888 100.922ZM80.0872 117.739C81.329 114.957 83.2146 106.655 84.4717 99.7411C86.7598 99.3123 89.016 98.7284 91.2249 97.9935C90.9873 106.272 90.9183 116.605 91.4165 124.906C89.9601 124.776 87.8445 124.592 85.7902 124.431C85.6599 123.189 85.1463 118.866 84.7094 117.732C84.5944 117.425 84.4564 117.302 83.9428 117.287C82.661 117.343 81.385 117.494 80.1255 117.739H80.0872ZM82.8237 88.4961C82.0474 88.0423 81.4272 87.3633 81.0453 86.5492C81.4002 86.6988 81.7703 86.8093 82.1491 86.8788C82.2928 87.0405 82.4782 87.1597 82.6851 87.2232C82.8919 87.2868 83.1122 87.2922 83.3219 87.239C83.6669 87.1317 83.4446 87.0857 83.6286 87.5686C83.6992 87.7632 83.8182 87.9365 83.9744 88.0723C84.1306 88.2081 84.3188 88.3019 84.5212 88.3449C84.7237 88.3878 84.9338 88.3785 85.1316 88.3178C85.3295 88.2571 85.5087 88.147 85.6522 87.9979C85.9511 87.7296 85.9741 87.4077 86.3344 86.7178C86.687 86.6488 87.032 86.5568 87.3692 86.4572C88.2814 88.8487 91.1406 90.0062 91.3399 90.1825C87.9748 89.6843 84.993 89.37 82.862 88.4961H82.8237ZM68.1293 87.5763C69.969 85.4454 69.5934 83.92 67.7 82.4099C63.8674 79.4051 64.3426 80.2099 62.7329 76.8525C60.8396 71.4025 62.4723 62.8174 63.8751 57.2294C64.2583 55.6963 66.8722 54.0559 68.7732 54.3012C71.4101 54.6385 70.3063 56.0259 72.5599 56.8154C72.9511 56.9298 73.3558 56.9917 73.7633 56.9994C73.7875 57.0069 73.8129 57.0097 73.8381 57.0074C73.8633 57.0051 73.8878 56.9979 73.9102 56.9862C73.9326 56.9744 73.9525 56.9584 73.9688 56.9389C73.985 56.9195 73.9972 56.8971 74.0048 56.8729C74.0123 56.8488 74.015 56.8234 74.0128 56.7981C74.0105 56.7729 74.0033 56.7484 73.9915 56.726C73.9798 56.7036 73.9637 56.6837 73.9443 56.6675C73.9249 56.6512 73.9024 56.639 73.8783 56.6315C72.6828 55.9144 71.5808 55.0519 70.5975 54.0636C71.0651 52.1549 72.2532 51.1124 74.4838 51.0971C76.0169 51.0971 77.228 52.2622 78.3165 53.2587C79.6349 54.4622 81.053 57.7123 80.9457 59.4983C80.7032 61.5678 81.1883 63.6572 82.3178 65.4082C83.0843 66.742 84.5254 67.8995 85.3839 69.0263C85.8592 69.6548 85.5832 72.4603 85.3073 73.6944C84.947 74.7752 84.1805 76.8372 84.0041 77.3048C80.8001 77.4198 80.938 79.1368 82.4711 79.8727C81.0377 81.5897 77.5346 83.4984 80.0412 85.9053C80.5778 87.0321 81.4363 88.5728 82.5861 89.0404C83.402 89.3711 84.246 89.6276 85.108 89.8069C85.2766 90.995 84.7247 94.9273 83.8815 99.5035C79.4822 100.235 75.0262 100.571 70.5669 100.508C67.7997 95.9775 65.0478 91.6849 64.3503 90.995C65.899 90.2077 67.215 89.0292 68.1676 87.5763H68.1293ZM62.9016 91.6159C64.4346 91.041 63.6681 91.1407 64.036 91.4243C64.404 91.7079 66.9335 95.7169 69.8693 100.477C66.3893 100.423 62.4723 100.163 60.9929 99.9941C61.4375 99.6415 60.2877 93.5859 59.8431 92.8194C60.9546 92.3748 61.9817 91.9839 62.9399 91.6159H62.9016ZM59.2759 93.057C59.9061 95.3141 60.3345 97.6228 60.556 99.9558C57.2484 99.4817 54.0039 98.641 50.8824 97.4492C53.5573 95.7382 56.379 94.2684 59.3142 93.057H59.2759ZM59.9734 148.477C57.0989 149.198 53.7339 148.776 50.8364 148.155C46.3062 147.182 43.1711 144.154 41.1321 140.275C37.8897 134.143 36.9238 125.029 37.9127 118.644C38.112 117.364 38.3649 116.099 38.5796 114.811C39.7983 107.506 44.2365 102.002 50.4301 97.8401C56.5087 100.071 60.5943 100.853 70.1453 100.906C76.7604 111.638 76.9061 112.711 78.7994 117.962C78.2168 118.069 75.5187 118.613 75.0587 118.989C74.8748 119.134 74.8748 119.426 75.0587 124.032C68.0833 124.17 61.2612 125.259 54.8453 129.398C54.0788 123.872 54.9603 122.2 56.7463 119.035C59.5518 114.06 59.0459 113.14 57.2752 110.312C56.9833 109.93 56.7745 109.491 56.662 109.024C56.662 108.84 55.8955 108.587 56.9763 110.488C58.5093 113.278 58.9233 113.937 56.2098 118.728C54.2244 122.239 53.4119 124.04 54.6077 129.559C54.0711 129.919 53.4579 130.326 52.8677 130.801C51.966 131.436 51.1197 132.146 50.3381 132.924C50.3229 132.954 50.32 132.988 50.33 133.02C50.3401 133.051 50.3623 133.078 50.3918 133.093C50.4213 133.108 50.4556 133.111 50.4872 133.101C50.5188 133.091 50.5452 133.069 50.5604 133.039C50.798 132.618 54.761 129.973 55.8265 129.429C61.7748 126.432 68.3516 123.841 79.1214 124.554C78.9857 129.111 79.4574 133.666 80.5241 138.098C74.9898 141.594 67.1252 146.699 60.0117 148.477H59.9734ZM80.9994 137.792C80.0146 133.469 79.5793 129.039 79.7039 124.607C91.3399 125.374 87.6912 125.129 91.4472 125.374C91.5851 127.612 91.7921 130.042 92.0987 132.273C89.0939 132.832 83.6899 136.128 81.0377 137.792H80.9994ZM108.855 146.913C102.087 148.515 97.2805 144.821 94.2297 138.566C90.8569 131.667 91.4165 101.703 91.6081 94.0688L98.6142 89.7303C108.073 110.158 109.208 112.09 111.331 118.858C114.075 127.482 117.693 144.874 108.893 146.913H108.855ZM115.033 135.186C114.856 131.081 114.223 127.009 113.148 123.044C110.718 113.592 108.089 108.855 100.814 93.5629L101.029 93.4479C107.452 96.882 112.895 107.544 114.32 114.665C115.102 118.383 116.597 130.54 115.072 135.186H115.033Z" fill="#333333"/>
</svg>
