<svg width="444" height="206" viewBox="0 0 444 206" fill="none" xmlns="http://www.w3.org/2000/svg">
<path d="M54.6406 172.5C47.7406 172.5 41.4906 171.7 35.8906 170.1C30.3906 168.4 25.4906 166 21.1906 162.9C16.8906 159.7 13.0406 155.95 9.64063 151.65L25.0906 134.1C30.0906 140.8 35.0906 145.3 40.0906 147.6C45.1906 149.9 50.4406 151.05 55.8406 151.05C58.5406 151.05 60.9906 150.7 63.1906 150C65.3906 149.3 67.0906 148.3 68.2906 147C69.4906 145.6 70.0906 143.9 70.0906 141.9C70.0906 140.4 69.6906 139.05 68.8906 137.85C68.1906 136.65 67.1906 135.6 65.8906 134.7C64.5906 133.8 63.0406 133 61.2406 132.3C59.4406 131.5 57.5406 130.85 55.5406 130.35C53.5406 129.75 51.4906 129.25 49.3906 128.85C43.5906 127.55 38.5406 125.95 34.2406 124.05C29.9406 122.15 26.3406 119.85 23.4406 117.15C20.6406 114.35 18.5406 111.2 17.1406 107.7C15.7406 104.1 15.0406 100.1 15.0406 95.7C15.0406 91 16.0906 86.7 18.1906 82.8C20.3906 78.8 23.2906 75.4 26.8906 72.6C30.5906 69.7 34.8406 67.5 39.6406 66C44.4406 64.4 49.4406 63.6 54.6406 63.6C61.5406 63.6 67.4406 64.35 72.3406 65.85C77.3406 67.25 81.5906 69.3 85.0906 72C88.6906 74.7 91.7406 77.95 94.2406 81.75L78.4906 96.9C76.3906 94.3 74.0906 92.15 71.5906 90.45C69.1906 88.75 66.5906 87.45 63.7906 86.55C61.0906 85.65 58.2906 85.2 55.3906 85.2C52.3906 85.2 49.7906 85.6 47.5906 86.4C45.4906 87.1 43.8406 88.15 42.6406 89.55C41.4406 90.85 40.8406 92.45 40.8406 94.35C40.8406 96.05 41.3406 97.5 42.3406 98.7C43.3406 99.9 44.6906 101 46.3906 102C48.0906 102.9 50.0406 103.7 52.2406 104.4C54.4406 105 56.7406 105.5 59.1406 105.9C64.6406 107 69.5906 108.45 73.9906 110.25C78.4906 112.05 82.3406 114.25 85.5406 116.85C88.8406 119.45 91.3406 122.55 93.0406 126.15C94.8406 129.65 95.7406 133.75 95.7406 138.45C95.7406 145.75 93.9406 151.95 90.3406 157.05C86.8406 162.05 81.9906 165.9 75.7906 168.6C69.6906 171.2 62.6406 172.5 54.6406 172.5ZM113.709 171V91.35H137.709V171H113.709ZM125.709 75.6C121.209 75.6 117.659 74.55 115.059 72.45C112.559 70.25 111.309 67.15 111.309 63.15C111.309 59.55 112.609 56.6 115.209 54.3C117.809 52 121.309 50.85 125.709 50.85C130.209 50.85 133.709 51.95 136.209 54.15C138.709 56.25 139.959 59.25 139.959 63.15C139.959 66.85 138.659 69.85 136.059 72.15C133.559 74.45 130.109 75.6 125.709 75.6ZM209.309 171L192.359 145.35L184.559 134.4L153.059 91.35H181.859L198.209 115.8L206.759 127.5L237.809 171H209.309ZM152.309 171L184.409 126.3L197.309 141.75L180.659 171H152.309ZM204.959 136.35L192.209 121.05L207.959 91.35H236.309L204.959 136.35ZM257.826 171V71.25H281.826V171H257.826ZM243.726 112.35V91.35H297.276V112.35H243.726ZM321.042 205.5L339.192 162.75L339.492 175.05L301.092 91.35H328.242L345.042 131.4C345.942 133.4 346.792 135.55 347.592 137.85C348.392 140.15 348.992 142.35 349.392 144.45L346.092 146.4C346.692 144.9 347.342 143.05 348.042 140.85C348.842 138.55 349.692 136.1 350.592 133.5L365.292 91.35H392.592L358.692 171L344.892 205.5H321.042Z" fill="#ffffff"/>
<path d="M413.034 92V24.2L418.794 24.8L390.234 59.72L388.914 57.56H442.314V71.12H380.514L374.034 58.64L415.794 7.76H428.034V92H413.034Z" fill="#ffffff"/>
</svg>
