<svg width="255" height="177" viewBox="0 0 255 177" fill="none" xmlns="http://www.w3.org/2000/svg">
<rect x="82.2426" y="70.7107" width="94" height="144" rx="13" transform="rotate(-45 82.2426 70.7107)" stroke="#FBE93C" stroke-opacity="0.6" stroke-width="6"/>
<rect x="44.2426" y="70.7107" width="94" height="144" rx="13" transform="rotate(-45 44.2426 70.7107)" stroke="#F43516" stroke-opacity="0.6" stroke-width="6"/>
<rect x="11.2426" y="70.7107" width="94" height="144" rx="13" transform="rotate(-45 11.2426 70.7107)" stroke="#79AFFF" stroke-opacity="0.6" stroke-width="6"/>
<path d="M0 42H253V128H0V42Z" fill="white"/>
<mask id="path-5-outside-1_148_22" maskUnits="userSpaceOnUse" x="9" y="42" width="237" height="88" fill="black">
<rect fill="white" x="9" y="42" width="237" height="88"/>
<path d="M37.3789 122C33.7789 122 30.4789 121.1 27.4789 119.3C24.5456 117.433 22.1789 115 20.3789 112C18.6456 108.933 17.7789 105.567 17.7789 101.9V97.3C17.7789 96.9667 17.9456 96.8 18.2789 96.8H29.4789C29.7456 96.8 29.8789 96.9667 29.8789 97.3V101.9C29.8789 104.1 30.6122 106 32.0789 107.6C33.5456 109.133 35.3122 109.9 37.3789 109.9C39.4456 109.9 41.2122 109.1 42.6789 107.5C44.1456 105.9 44.8789 104.033 44.8789 101.9C44.8789 99.4333 43.2789 97.3 40.0789 95.5C39.0122 94.9 37.3456 93.9667 35.0789 92.7C32.8122 91.4333 30.6789 90.2333 28.6789 89.1C25.0122 86.9667 22.2789 84.3 20.4789 81.1C18.7456 77.8333 17.8789 74.1667 17.8789 70.1C17.8789 66.3667 18.7789 63.0333 20.5789 60.1C22.3789 57.1 24.7456 54.7333 27.6789 53C30.6789 51.2667 33.9122 50.4 37.3789 50.4C40.9122 50.4 44.1456 51.3 47.0789 53.1C50.0789 54.8333 52.4456 57.2 54.1789 60.2C55.9789 63.1333 56.8789 66.4333 56.8789 70.1V78.3C56.8789 78.5667 56.7456 78.7 56.4789 78.7H45.2789C45.0122 78.7 44.8789 78.5667 44.8789 78.3L44.7789 70.1C44.7789 67.7667 44.0456 65.8667 42.5789 64.4C41.1122 62.9333 39.3789 62.2 37.3789 62.2C35.3122 62.2 33.5456 63 32.0789 64.6C30.6122 66.1333 29.8789 67.9667 29.8789 70.1C29.8789 72.3 30.3456 74.1333 31.2789 75.6C32.2122 77.0667 33.9122 78.4667 36.3789 79.8C36.7122 80 37.3456 80.3667 38.2789 80.9C39.2789 81.3667 40.3456 81.9333 41.4789 82.6C42.6122 83.2 43.6122 83.7333 44.4789 84.2C45.4122 84.6667 45.9789 84.9667 46.1789 85.1C49.5122 86.9667 52.1456 89.2667 54.0789 92C56.0122 94.6667 56.9789 97.9667 56.9789 101.9C56.9789 105.7 56.0789 109.133 54.2789 112.2C52.5456 115.2 50.1789 117.6 47.1789 119.4C44.2456 121.133 40.9789 122 37.3789 122ZM64.4336 121C64.1003 121 63.9336 120.833 63.9336 120.5L64.0336 51.8C64.0336 51.5333 64.1669 51.4 64.4336 51.4H75.6336C75.9003 51.4 76.0336 51.5333 76.0336 51.8L76.1336 120.5C76.1336 120.833 76.0003 121 75.7336 121H64.4336ZM81.8297 121C81.563 121 81.463 120.833 81.5297 120.5L92.9297 84.8L81.7297 51.8C81.663 51.5333 81.763 51.4 82.0297 51.4H93.2297C93.563 51.4 93.763 51.5333 93.8297 51.8L100.53 75.6L107.33 51.8C107.396 51.5333 107.596 51.4 107.93 51.4H119.03C119.296 51.4 119.396 51.5333 119.33 51.8L108.13 84.7L119.43 120.5C119.563 120.833 119.463 121 119.13 121H107.93C107.663 121 107.463 120.833 107.33 120.5L100.53 94.7L93.6297 120.5C93.563 120.833 93.363 121 93.0297 121H81.8297ZM135.359 121C135.093 121 134.959 120.833 134.959 120.5V63.5H121.959C121.626 63.5 121.459 63.3333 121.459 63L121.559 51.8C121.559 51.5333 121.693 51.4 121.959 51.4H159.959C160.293 51.4 160.459 51.5333 160.459 51.8V63C160.459 63.3333 160.326 63.5 160.059 63.5H146.959L147.059 120.5C147.059 120.833 146.926 121 146.659 121H135.359ZM174.698 121C174.498 121 174.398 120.867 174.398 120.6L174.498 92.2L161.098 51.8C161.032 51.5333 161.132 51.4 161.398 51.4H172.498C172.832 51.4 173.032 51.5333 173.098 51.8L180.498 78.7L187.998 51.8C188.065 51.5333 188.232 51.4 188.498 51.4H199.698C199.965 51.4 200.065 51.5333 199.998 51.8L186.498 91.8L186.598 120.6C186.598 120.867 186.465 121 186.198 121H174.698ZM218.304 121C218.037 121 217.904 120.833 217.904 120.5V108.8H196.304C196.037 108.8 195.904 108.633 195.904 108.3V97.3L217.704 51.8C217.837 51.5333 218.037 51.4 218.304 51.4H229.604C229.804 51.4 229.904 51.5333 229.904 51.8L230.004 96.9H237.004C237.337 96.9 237.504 97.0667 237.504 97.4V108.3C237.504 108.633 237.371 108.8 237.104 108.8H230.004V120.5C230.004 120.833 229.871 121 229.604 121H218.304ZM207.704 96.9H217.904V75.1L207.704 96.9Z"/>
</mask>
<path d="M37.3789 122C33.7789 122 30.4789 121.1 27.4789 119.3C24.5456 117.433 22.1789 115 20.3789 112C18.6456 108.933 17.7789 105.567 17.7789 101.9V97.3C17.7789 96.9667 17.9456 96.8 18.2789 96.8H29.4789C29.7456 96.8 29.8789 96.9667 29.8789 97.3V101.9C29.8789 104.1 30.6122 106 32.0789 107.6C33.5456 109.133 35.3122 109.9 37.3789 109.9C39.4456 109.9 41.2122 109.1 42.6789 107.5C44.1456 105.9 44.8789 104.033 44.8789 101.9C44.8789 99.4333 43.2789 97.3 40.0789 95.5C39.0122 94.9 37.3456 93.9667 35.0789 92.7C32.8122 91.4333 30.6789 90.2333 28.6789 89.1C25.0122 86.9667 22.2789 84.3 20.4789 81.1C18.7456 77.8333 17.8789 74.1667 17.8789 70.1C17.8789 66.3667 18.7789 63.0333 20.5789 60.1C22.3789 57.1 24.7456 54.7333 27.6789 53C30.6789 51.2667 33.9122 50.4 37.3789 50.4C40.9122 50.4 44.1456 51.3 47.0789 53.1C50.0789 54.8333 52.4456 57.2 54.1789 60.2C55.9789 63.1333 56.8789 66.4333 56.8789 70.1V78.3C56.8789 78.5667 56.7456 78.7 56.4789 78.7H45.2789C45.0122 78.7 44.8789 78.5667 44.8789 78.3L44.7789 70.1C44.7789 67.7667 44.0456 65.8667 42.5789 64.4C41.1122 62.9333 39.3789 62.2 37.3789 62.2C35.3122 62.2 33.5456 63 32.0789 64.6C30.6122 66.1333 29.8789 67.9667 29.8789 70.1C29.8789 72.3 30.3456 74.1333 31.2789 75.6C32.2122 77.0667 33.9122 78.4667 36.3789 79.8C36.7122 80 37.3456 80.3667 38.2789 80.9C39.2789 81.3667 40.3456 81.9333 41.4789 82.6C42.6122 83.2 43.6122 83.7333 44.4789 84.2C45.4122 84.6667 45.9789 84.9667 46.1789 85.1C49.5122 86.9667 52.1456 89.2667 54.0789 92C56.0122 94.6667 56.9789 97.9667 56.9789 101.9C56.9789 105.7 56.0789 109.133 54.2789 112.2C52.5456 115.2 50.1789 117.6 47.1789 119.4C44.2456 121.133 40.9789 122 37.3789 122ZM64.4336 121C64.1003 121 63.9336 120.833 63.9336 120.5L64.0336 51.8C64.0336 51.5333 64.1669 51.4 64.4336 51.4H75.6336C75.9003 51.4 76.0336 51.5333 76.0336 51.8L76.1336 120.5C76.1336 120.833 76.0003 121 75.7336 121H64.4336ZM81.8297 121C81.563 121 81.463 120.833 81.5297 120.5L92.9297 84.8L81.7297 51.8C81.663 51.5333 81.763 51.4 82.0297 51.4H93.2297C93.563 51.4 93.763 51.5333 93.8297 51.8L100.53 75.6L107.33 51.8C107.396 51.5333 107.596 51.4 107.93 51.4H119.03C119.296 51.4 119.396 51.5333 119.33 51.8L108.13 84.7L119.43 120.5C119.563 120.833 119.463 121 119.13 121H107.93C107.663 121 107.463 120.833 107.33 120.5L100.53 94.7L93.6297 120.5C93.563 120.833 93.363 121 93.0297 121H81.8297ZM135.359 121C135.093 121 134.959 120.833 134.959 120.5V63.5H121.959C121.626 63.5 121.459 63.3333 121.459 63L121.559 51.8C121.559 51.5333 121.693 51.4 121.959 51.4H159.959C160.293 51.4 160.459 51.5333 160.459 51.8V63C160.459 63.3333 160.326 63.5 160.059 63.5H146.959L147.059 120.5C147.059 120.833 146.926 121 146.659 121H135.359ZM174.698 121C174.498 121 174.398 120.867 174.398 120.6L174.498 92.2L161.098 51.8C161.032 51.5333 161.132 51.4 161.398 51.4H172.498C172.832 51.4 173.032 51.5333 173.098 51.8L180.498 78.7L187.998 51.8C188.065 51.5333 188.232 51.4 188.498 51.4H199.698C199.965 51.4 200.065 51.5333 199.998 51.8L186.498 91.8L186.598 120.6C186.598 120.867 186.465 121 186.198 121H174.698ZM218.304 121C218.037 121 217.904 120.833 217.904 120.5V108.8H196.304C196.037 108.8 195.904 108.633 195.904 108.3V97.3L217.704 51.8C217.837 51.5333 218.037 51.4 218.304 51.4H229.604C229.804 51.4 229.904 51.5333 229.904 51.8L230.004 96.9H237.004C237.337 96.9 237.504 97.0667 237.504 97.4V108.3C237.504 108.633 237.371 108.8 237.104 108.8H230.004V120.5C230.004 120.833 229.871 121 229.604 121H218.304ZM207.704 96.9H217.904V75.1L207.704 96.9Z" fill="#333333"/>
<path d="M27.4789 119.3L23.1839 126.049L23.2727 126.106L23.3629 126.16L27.4789 119.3ZM20.3789 112L13.4144 115.936L13.4655 116.027L13.519 116.116L20.3789 112ZM32.0789 107.6L26.1817 113.006L26.2391 113.068L26.2978 113.13L32.0789 107.6ZM42.6789 107.5L36.7817 102.094L36.7817 102.094L42.6789 107.5ZM40.0789 95.5L44.001 88.5274L44.001 88.5274L40.0789 95.5ZM35.0789 92.7L38.9815 85.7165L38.9815 85.7164L35.0789 92.7ZM28.6789 89.1L24.6558 96.0148L24.6952 96.0377L24.7348 96.0602L28.6789 89.1ZM20.4789 81.1L13.4121 84.8497L13.4582 84.9365L13.5063 85.0221L20.4789 81.1ZM20.5789 60.1L27.3975 64.2841L27.4183 64.2501L27.4389 64.216L20.5789 60.1ZM27.6789 53L23.6767 46.0731L23.6428 46.0927L23.6091 46.1126L27.6789 53ZM47.0789 53.1L42.8948 59.9186L42.985 59.974L43.0767 60.0269L47.0789 53.1ZM54.1789 60.2L47.252 64.2022L47.305 64.2939L47.3603 64.3841L54.1789 60.2ZM44.8789 78.3H52.8789V78.2512L52.8783 78.2024L44.8789 78.3ZM44.7789 70.1H36.7789V70.1488L36.7795 70.1976L44.7789 70.1ZM42.5789 64.4L48.2358 58.7431L48.2358 58.7431L42.5789 64.4ZM32.0789 64.6L37.86 70.1298L37.9187 70.0684L37.9761 70.0058L32.0789 64.6ZM31.2789 75.6L38.0282 71.305L38.0282 71.305L31.2789 75.6ZM36.3789 79.8L40.4949 72.9401L40.341 72.8477L40.183 72.7623L36.3789 79.8ZM38.2789 80.9L34.3098 87.8459L34.5965 88.0098L34.8958 88.1495L38.2789 80.9ZM41.4789 82.6L37.4227 89.4955L37.5773 89.5864L37.7358 89.6703L41.4789 82.6ZM44.4789 84.2L40.6861 91.2438L40.7928 91.3012L40.9012 91.3554L44.4789 84.2ZM46.1789 85.1L41.7413 91.7564L41.9994 91.9285L42.2701 92.08L46.1789 85.1ZM54.0789 92L47.5476 96.6197L47.5746 96.6579L47.602 96.6957L54.0789 92ZM54.2789 112.2L47.3796 108.15L47.3657 108.174L47.352 108.198L54.2789 112.2ZM47.1789 119.4L51.2487 126.287L51.2719 126.274L51.2949 126.26L47.1789 119.4ZM37.3789 114C35.1847 114 33.3143 113.472 31.5949 112.44L23.3629 126.16C27.6436 128.728 32.3731 130 37.3789 130V114ZM31.7739 112.551C29.8951 111.355 28.404 109.826 27.2389 107.884L13.519 116.116C15.9538 120.174 19.196 123.512 23.1839 126.049L31.7739 112.551ZM27.3434 108.064C26.3172 106.248 25.7789 104.246 25.7789 101.9H9.77891C9.77891 106.887 10.974 111.619 13.4144 115.936L27.3434 108.064ZM25.7789 101.9V97.3H9.77891V101.9H25.7789ZM25.7789 97.3C25.7789 98.3665 25.5069 100.636 23.5608 102.582C21.6147 104.528 19.3454 104.8 18.2789 104.8V88.8C16.8791 88.8 14.3598 89.1554 12.2471 91.2681C10.1343 93.3809 9.77891 95.9002 9.77891 97.3H25.7789ZM18.2789 104.8H29.4789V88.8H18.2789V104.8ZM29.4789 104.8C27.8466 104.8 25.3551 104.201 23.532 101.923C21.9815 99.9845 21.8789 97.9881 21.8789 97.3H37.8789C37.8789 96.2786 37.7096 94.0321 36.0259 91.9274C34.0694 89.4819 31.3779 88.8 29.4789 88.8V104.8ZM21.8789 97.3V101.9H37.8789V97.3H21.8789ZM21.8789 101.9C21.8789 106.071 23.3423 109.908 26.1817 113.006L37.9761 102.194C37.9192 102.132 37.8953 102.096 37.8895 102.086C37.8842 102.078 37.8876 102.082 37.8923 102.094C37.8969 102.106 37.8952 102.106 37.8914 102.085C37.8874 102.063 37.8789 102.004 37.8789 101.9H21.8789ZM26.2978 113.13C29.2282 116.193 33.064 117.9 37.3789 117.9V101.9C37.3591 101.9 37.3881 101.898 37.4541 101.912C37.5216 101.925 37.6034 101.949 37.6887 101.986C37.7736 102.023 37.836 102.061 37.8723 102.087C37.9072 102.112 37.9015 102.114 37.86 102.07L26.2978 113.13ZM37.3789 117.9C41.8121 117.9 45.6801 116.065 48.5761 112.906L36.7817 102.094C36.6911 102.193 36.7424 102.108 36.9538 102.012C37.051 101.968 37.1495 101.937 37.2383 101.919C37.2807 101.91 37.3153 101.905 37.3405 101.903C37.3656 101.9 37.3789 101.9 37.3789 101.9V117.9ZM48.5761 112.906C51.3692 109.859 52.8789 106.073 52.8789 101.9H36.8789C36.8789 101.973 36.8728 102.006 36.8726 102.007C36.8725 102.008 36.8753 101.994 36.8829 101.975C36.8904 101.956 36.8949 101.951 36.8868 101.963C36.878 101.977 36.8482 102.022 36.7817 102.094L48.5761 112.906ZM52.8789 101.9C52.8789 95.2717 48.3715 90.9858 44.001 88.5274L36.1568 102.473C36.6232 102.735 36.9258 102.951 37.1083 103.1C37.2899 103.249 37.3214 103.307 37.2789 103.25C37.2307 103.186 37.1184 103.015 37.0229 102.741C36.9252 102.46 36.8789 102.166 36.8789 101.9H52.8789ZM44.001 88.5274C42.924 87.9216 41.2491 86.9837 38.9815 85.7165L31.1763 99.6835C33.442 100.95 35.1005 101.878 36.1568 102.473L44.001 88.5274ZM38.9815 85.7164C36.7269 84.4566 34.6076 83.2644 32.623 82.1398L24.7348 96.0602C26.7503 97.2023 28.8975 98.4101 31.1763 99.6835L38.9815 85.7164ZM32.7021 82.1852C30.0734 80.6558 28.4501 78.9531 27.4515 77.1779L13.5063 85.0221C16.1077 89.6469 19.9511 93.2775 24.6558 96.0148L32.7021 82.1852ZM27.5457 77.3503C26.4846 75.3505 25.8789 72.9922 25.8789 70.1H9.87891C9.87891 75.3411 11.0066 80.3162 13.4121 84.8497L27.5457 77.3503ZM25.8789 70.1C25.8789 67.7139 26.4352 65.8523 27.3975 64.2841L13.7603 55.9159C11.1226 60.2144 9.87891 65.0195 9.87891 70.1H25.8789ZM27.4389 64.216C28.573 62.3257 29.9931 60.9248 31.7487 59.8874L23.6091 46.1126C19.498 48.5418 16.1848 51.8743 13.719 55.984L27.4389 64.216ZM31.6811 59.9269C33.4637 58.897 35.3166 58.4 37.3789 58.4V42.4C32.5079 42.4 27.8941 43.6364 23.6767 46.0731L31.6811 59.9269ZM37.3789 58.4C39.4767 58.4 41.2552 58.9125 42.8948 59.9186L51.263 46.2814C47.0359 43.6875 42.3478 42.4 37.3789 42.4V58.4ZM43.0767 60.0269C44.8623 61.0586 46.2203 62.4166 47.252 64.2022L61.1058 56.1978C58.6708 51.9834 55.2955 48.6081 51.0811 46.1731L43.0767 60.0269ZM47.3603 64.3841C48.3368 65.9754 48.8789 67.8097 48.8789 70.1H64.8789C64.8789 65.057 63.621 60.2912 60.9975 56.0159L47.3603 64.3841ZM48.8789 70.1V78.3H64.8789V70.1H48.8789ZM48.8789 78.3C48.8789 77.2002 49.1593 74.9059 51.1221 72.9431C53.0848 70.9804 55.3791 70.7 56.4789 70.7V86.7C57.8454 86.7 60.3397 86.353 62.4358 84.2569C64.5319 82.1607 64.8789 79.6665 64.8789 78.3H48.8789ZM56.4789 70.7H45.2789V86.7H56.4789V70.7ZM45.2789 70.7C46.3787 70.7 48.673 70.9804 50.6358 72.9432C52.5985 74.9059 52.8789 77.2002 52.8789 78.3H36.8789C36.8789 79.6665 37.2259 82.1607 39.322 84.2568C41.4181 86.353 43.9124 86.7 45.2789 86.7V70.7ZM52.8783 78.2024L52.7783 70.0024L36.7795 70.1976L36.8795 78.3976L52.8783 78.2024ZM52.7789 70.1C52.7789 65.9343 51.3957 61.903 48.2358 58.7431L36.9221 70.0568C36.9111 70.0459 36.8805 70.0125 36.8445 69.9575C36.8083 69.902 36.7819 69.8479 36.7655 69.8056C36.7497 69.7646 36.7519 69.757 36.7588 69.7967C36.766 69.8382 36.7789 69.9355 36.7789 70.1H52.7789ZM48.2358 58.7431C45.3309 55.8383 41.5869 54.2 37.3789 54.2V70.2C37.3877 70.2 37.3535 70.2006 37.2869 70.1875C37.2192 70.1742 37.141 70.1512 37.0618 70.1177C36.983 70.0844 36.927 70.0507 36.8967 70.0298C36.8677 70.0099 36.8776 70.0124 36.9221 70.0569L48.2358 58.7431ZM37.3789 54.2C32.9457 54.2 29.0777 56.0349 26.1817 59.1942L37.9761 70.0058C38.0667 69.907 38.0154 69.9919 37.804 70.0876C37.7068 70.1316 37.6083 70.1628 37.5195 70.1813C37.4771 70.1901 37.4425 70.1949 37.4173 70.1975C37.3922 70.2 37.3789 70.2 37.3789 70.2V54.2ZM26.2978 59.0702C23.3984 62.1013 21.8789 65.9189 21.8789 70.1H37.8789C37.8789 70.0626 37.8805 70.0376 37.8817 70.0238C37.883 70.0101 37.8839 70.0061 37.8831 70.0106C37.8823 70.0152 37.88 70.0261 37.8754 70.0421C37.8708 70.0581 37.8646 70.0765 37.8567 70.0961C37.8489 70.1158 37.8404 70.1339 37.8322 70.1498C37.8239 70.1656 37.8172 70.1766 37.8133 70.1825C37.8096 70.1882 37.81 70.187 37.8165 70.1787C37.8232 70.1704 37.837 70.1539 37.86 70.1298L26.2978 59.0702ZM21.8789 70.1C21.8789 73.4204 22.5879 76.8438 24.5296 79.895L38.0282 71.305C38.1032 71.4229 37.8789 71.1796 37.8789 70.1H21.8789ZM24.5296 79.895C26.5128 83.0114 29.5678 85.2122 32.5748 86.8377L40.183 72.7623C39.2872 72.2781 38.7006 71.8719 38.3396 71.5746C37.9746 71.274 37.9407 71.1675 38.0282 71.305L24.5296 79.895ZM32.2629 86.6599C32.6798 86.9101 33.3842 87.317 34.3098 87.8459L42.248 73.954C41.3069 73.4163 40.7446 73.0899 40.4949 72.9401L32.2629 86.6599ZM34.8958 88.1495C35.6275 88.4909 36.4681 88.9339 37.4227 89.4955L45.5351 75.7045C44.2231 74.9328 42.9303 74.2424 41.662 73.6505L34.8958 88.1495ZM37.7358 89.6703C38.8572 90.264 39.84 90.7882 40.6861 91.2438L48.2717 77.1562C47.3844 76.6785 46.3673 76.136 45.222 75.5297L37.7358 89.6703ZM40.9012 91.3554C41.3421 91.5758 41.6553 91.7365 41.8608 91.8453C41.9639 91.8999 42.0134 91.9274 42.0237 91.9332C42.0278 91.9356 42.0079 91.9244 41.9707 91.9021C41.939 91.8831 41.8551 91.8322 41.7413 91.7564L50.6165 78.4436C49.9026 77.9677 48.7983 77.4154 48.0566 77.0446L40.9012 91.3554ZM42.2701 92.08C44.7113 93.4471 46.3928 94.9872 47.5476 96.6197L60.6102 87.3803C57.8983 83.5462 54.3132 80.4862 50.0877 78.1199L42.2701 92.08ZM47.602 96.6957C48.3648 97.7479 48.9789 99.3174 48.9789 101.9H64.9789C64.9789 96.616 63.6597 91.5854 60.5558 87.3043L47.602 96.6957ZM48.9789 101.9C48.9789 104.378 48.4092 106.396 47.3796 108.15L61.1782 116.25C63.7486 111.871 64.9789 107.022 64.9789 101.9H48.9789ZM47.352 108.198C46.3049 110.01 44.9105 111.432 43.0629 112.54L51.2949 126.26C55.4473 123.768 58.7863 120.39 61.2058 116.202L47.352 108.198ZM43.1091 112.513C41.479 113.476 39.6315 114 37.3789 114V130C42.3263 130 47.0122 128.791 51.2487 126.287L43.1091 112.513ZM63.9336 120.5L55.9336 120.488V120.5H63.9336ZM64.0336 51.8L72.0336 51.8116V51.8H64.0336ZM76.0336 51.8L68.0336 51.8L68.0336 51.8116L76.0336 51.8ZM76.1336 120.5L84.1336 120.5L84.1336 120.488L76.1336 120.5ZM64.4336 113C65.5001 113 67.7693 113.272 69.7154 115.218C71.6616 117.164 71.9336 119.434 71.9336 120.5H55.9336C55.9336 121.9 56.289 124.419 58.4017 126.532C60.5145 128.645 63.0338 129 64.4336 129V113ZM71.9336 120.512L72.0336 51.8116L56.0336 51.7884L55.9336 120.488L71.9336 120.512ZM72.0336 51.8C72.0336 52.8998 71.7532 55.1941 69.7905 57.1568C67.8277 59.1196 65.5334 59.4 64.4336 59.4V43.4C63.0671 43.4 60.5728 43.747 58.4767 45.8431C56.3806 47.9393 56.0336 50.4335 56.0336 51.8H72.0336ZM64.4336 59.4H75.6336V43.4H64.4336V59.4ZM75.6336 59.4C74.5338 59.4 72.2395 59.1196 70.2767 57.1569C68.314 55.1941 68.0336 52.8998 68.0336 51.8H84.0336C84.0336 50.4335 83.6866 47.9392 81.5904 45.8431C79.4943 43.747 77.0001 43.4 75.6336 43.4V59.4ZM68.0336 51.8116L68.1336 120.512L84.1336 120.488L84.0336 51.7884L68.0336 51.8116ZM68.1336 120.5C68.1336 119.812 68.2362 117.815 69.7866 115.877C71.6098 113.599 74.1013 113 75.7336 113V129C77.6326 129 80.3241 128.318 82.2805 125.873C83.9643 123.768 84.1336 121.521 84.1336 120.5H68.1336ZM75.7336 113H64.4336V129H75.7336V113ZM81.5297 120.5L73.9088 118.066L73.7728 118.493L73.685 118.931L81.5297 120.5ZM92.9297 84.8L100.551 87.2336L101.352 84.7238L100.505 82.2289L92.9297 84.8ZM81.7297 51.8L73.9685 53.7403L74.0484 54.0595L74.1541 54.3711L81.7297 51.8ZM93.8297 51.8L86.0685 53.7403L86.0971 53.8545L86.129 53.9678L93.8297 51.8ZM100.53 75.6L92.829 77.7678L100.473 104.92L108.222 77.7978L100.53 75.6ZM107.33 51.8L115.022 53.9978L115.058 53.8696L115.091 53.7403L107.33 51.8ZM119.33 51.8L126.903 54.3781L127.01 54.0631L127.091 53.7403L119.33 51.8ZM108.13 84.7L100.556 82.1219L99.7109 84.6058L100.501 87.108L108.13 84.7ZM119.43 120.5L111.801 122.908L111.891 123.193L112.002 123.471L119.43 120.5ZM107.33 120.5L99.5939 122.539L99.7192 123.014L99.9019 123.471L107.33 120.5ZM100.53 94.7L108.266 92.6611L100.586 63.5246L92.8013 92.6331L100.53 94.7ZM93.6297 120.5L85.9013 118.433L85.8352 118.68L85.785 118.931L93.6297 120.5ZM81.8297 113C83.3375 113 86.5047 113.576 88.4146 116.759C89.9212 119.27 89.4644 121.618 89.3743 122.069L73.685 118.931C73.5283 119.715 73.0882 122.313 74.6947 124.991C76.7047 128.341 80.0552 129 81.8297 129V113ZM89.1506 122.934L100.551 87.2336L85.3088 82.3664L73.9088 118.066L89.1506 122.934ZM100.505 82.2289L89.3053 49.2289L74.1541 54.3711L85.3541 87.3711L100.505 82.2289ZM89.4908 49.8597C89.6693 50.5735 90.271 53.4782 88.1547 56.3C85.968 59.2156 82.8902 59.4 82.0297 59.4V43.4C80.9025 43.4 77.6414 43.6511 75.3547 46.7C73.1383 49.6551 73.7234 52.7598 73.9685 53.7403L89.4908 49.8597ZM82.0297 59.4H93.2297V43.4H82.0297V59.4ZM93.2297 59.4C92.4073 59.4 90.8238 59.2442 89.1921 58.1564C87.3982 56.9605 86.4437 55.2409 86.0685 53.7403L101.591 49.8597C101.149 48.0924 100.061 46.1729 98.0673 44.8436C96.2355 43.6224 94.3854 43.4 93.2297 43.4V59.4ZM86.129 53.9678L92.829 77.7678L108.23 73.4322L101.53 49.6322L86.129 53.9678ZM108.222 77.7978L115.022 53.9978L99.6375 49.6022L92.8375 73.4022L108.222 77.7978ZM115.091 53.7403C114.716 55.2409 113.761 56.9605 111.967 58.1564C110.336 59.2442 108.752 59.4 107.93 59.4V43.4C106.774 43.4 104.924 43.6224 103.092 44.8436C101.098 46.1729 100.01 48.0924 99.5686 49.8597L115.091 53.7403ZM107.93 59.4H119.03V43.4H107.93V59.4ZM119.03 59.4C118.169 59.4 115.091 59.2156 112.905 56.3C110.788 53.4782 111.39 50.5735 111.569 49.8597L127.091 53.7403C127.336 52.7598 127.921 49.6551 125.705 46.7C123.418 43.6511 120.157 43.4 119.03 43.4V59.4ZM111.756 49.2219L100.556 82.1219L115.703 87.2781L126.903 54.3781L111.756 49.2219ZM100.501 87.108L111.801 122.908L127.059 118.092L115.759 82.292L100.501 87.108ZM112.002 123.471C111.881 123.169 110.596 120.09 112.595 116.759C114.799 113.086 118.531 113 119.13 113V129C120.062 129 124.011 128.831 126.315 124.991C128.413 121.494 127.112 118.164 126.858 117.529L112.002 123.471ZM119.13 113H107.93V129H119.13V113ZM107.93 113C109.618 113 111.326 113.583 112.701 114.729C113.935 115.757 114.509 116.906 114.757 117.529L99.9019 123.471C100.284 124.427 101.025 125.826 102.458 127.021C104.034 128.334 105.974 129 107.93 129V113ZM115.066 118.461L108.266 92.6611L92.7939 96.7389L99.5939 122.539L115.066 118.461ZM92.8013 92.6331L85.9013 118.433L101.358 122.567L108.258 96.7669L92.8013 92.6331ZM85.785 118.931C85.9995 117.859 86.6251 116.132 88.3082 114.729C90.0097 113.311 91.8603 113 93.0297 113V129C94.5324 129 96.6497 128.605 98.5512 127.021C100.434 125.451 101.193 123.475 101.474 122.069L85.785 118.931ZM93.0297 113H81.8297V129H93.0297V113ZM134.959 63.5H142.959V55.5H134.959V63.5ZM121.459 63L113.46 62.9286L113.459 62.9643V63H121.459ZM121.559 51.8L129.559 51.8714L129.559 51.8357V51.8H121.559ZM146.959 63.5V55.5H138.945L138.959 63.514L146.959 63.5ZM147.059 120.5L155.059 120.5L155.059 120.486L147.059 120.5ZM135.359 113C136.992 113 139.483 113.599 141.306 115.877C142.857 117.815 142.959 119.812 142.959 120.5H126.959C126.959 121.521 127.129 123.768 128.812 125.873C130.769 128.318 133.46 129 135.359 129V113ZM142.959 120.5V63.5H126.959V120.5H142.959ZM134.959 55.5H121.959V71.5H134.959V55.5ZM121.959 55.5C123.026 55.5 125.295 55.772 127.241 57.7181C129.187 59.6642 129.459 61.9335 129.459 63H113.459C113.459 64.3998 113.815 66.9191 115.928 69.0319C118.04 71.1446 120.56 71.5 121.959 71.5V55.5ZM129.459 63.0714L129.559 51.8714L113.56 51.7286L113.46 62.9286L129.459 63.0714ZM129.559 51.8C129.559 52.8998 129.279 55.1941 127.316 57.1568C125.353 59.1196 123.059 59.4 121.959 59.4V43.4C120.593 43.4 118.099 43.747 116.003 45.8431C113.906 47.9393 113.559 50.4335 113.559 51.8H129.559ZM121.959 59.4H159.959V43.4H121.959V59.4ZM159.959 59.4C159.271 59.4 157.275 59.2974 155.337 57.747C153.058 55.9238 152.459 53.4323 152.459 51.8H168.459C168.459 49.901 167.777 47.2095 165.332 45.253C163.227 43.5693 160.981 43.4 159.959 43.4V59.4ZM152.459 51.8V63H168.459V51.8H152.459ZM152.459 63C152.459 62.3119 152.562 60.3154 154.112 58.3774C155.936 56.0985 158.427 55.5 160.059 55.5V71.5C161.958 71.5 164.65 70.8181 166.606 68.3726C168.29 66.2679 168.459 64.0214 168.459 63H152.459ZM160.059 55.5H146.959V71.5H160.059V55.5ZM138.959 63.514L139.059 120.514L155.059 120.486L154.959 63.486L138.959 63.514ZM139.059 120.5C139.059 119.812 139.162 117.815 140.712 115.877C142.536 113.599 145.027 113 146.659 113V129C148.558 129 151.25 128.318 153.206 125.873C154.89 123.768 155.059 121.521 155.059 120.5H139.059ZM146.659 113H135.359V129H146.659V113ZM174.398 120.6L166.398 120.572L166.398 120.586V120.6H174.398ZM174.498 92.2L182.498 92.2282L182.503 90.9216L182.092 89.6815L174.498 92.2ZM161.098 51.8L153.337 53.7403L153.41 54.0326L153.505 54.3185L161.098 51.8ZM173.098 51.8L165.337 53.7403L165.36 53.8314L165.385 53.9219L173.098 51.8ZM180.498 78.7L172.785 80.8219L180.447 108.673L188.205 80.8485L180.498 78.7ZM187.998 51.8L195.705 53.9485L195.733 53.8448L195.76 53.7403L187.998 51.8ZM199.998 51.8L207.578 54.3582L207.681 54.0529L207.76 53.7403L199.998 51.8ZM186.498 91.8L178.919 89.2418L178.494 90.4999L178.498 91.8278L186.498 91.8ZM186.598 120.6H194.598V120.586L194.598 120.572L186.598 120.6ZM174.698 113C176.55 113 179.102 113.739 180.873 116.1C182.32 118.029 182.398 119.964 182.398 120.6H166.398C166.398 121.503 166.527 123.638 168.073 125.7C169.944 128.195 172.646 129 174.698 129V113ZM182.398 120.628L182.498 92.2282L166.498 92.1718L166.398 120.572L182.398 120.628ZM182.092 89.6815L168.692 49.2815L153.505 54.3185L166.905 94.7185L182.092 89.6815ZM168.86 49.8597C169.038 50.5735 169.64 53.4782 167.523 56.3C165.337 59.2156 162.259 59.4 161.398 59.4V43.4C160.271 43.4 157.01 43.6511 154.723 46.7C152.507 49.6551 153.092 52.7598 153.337 53.7403L168.86 49.8597ZM161.398 59.4H172.498V43.4H161.398V59.4ZM172.498 59.4C171.676 59.4 170.093 59.2442 168.461 58.1564C166.667 56.9605 165.712 55.2409 165.337 53.7403L180.86 49.8597C180.418 48.0924 179.33 46.1729 177.336 44.8436C175.504 43.6224 173.654 43.4 172.498 43.4V59.4ZM165.385 53.9219L172.785 80.8219L188.212 76.5781L180.812 49.6781L165.385 53.9219ZM188.205 80.8485L195.705 53.9485L180.292 49.6515L172.792 76.5515L188.205 80.8485ZM195.76 53.7403C195.491 54.8138 194.805 56.4397 193.171 57.747C191.512 59.0743 189.718 59.4 188.498 59.4V43.4C187.012 43.4 185.002 43.7924 183.176 45.253C181.375 46.6936 180.572 48.5195 180.237 49.8597L195.76 53.7403ZM188.498 59.4H199.698V43.4H188.498V59.4ZM199.698 59.4C198.838 59.4 195.76 59.2156 193.573 56.3C191.457 53.4782 192.059 50.5735 192.237 49.8597L207.76 53.7403C208.005 52.7598 208.59 49.6551 206.373 46.7C204.087 43.6511 200.826 43.4 199.698 43.4V59.4ZM192.418 49.2418L178.919 89.2418L194.078 94.3582L207.578 54.3582L192.418 49.2418ZM178.498 91.8278L178.598 120.628L194.598 120.572L194.498 91.7722L178.498 91.8278ZM178.598 120.6C178.598 119.5 178.879 117.206 180.842 115.243C182.804 113.28 185.099 113 186.198 113V129C187.565 129 190.059 128.653 192.155 126.557C194.251 124.461 194.598 121.966 194.598 120.6H178.598ZM186.198 113H174.698V129H186.198V113ZM217.904 108.8H225.904V100.8H217.904V108.8ZM195.904 97.3L188.689 93.8433L187.904 95.4824V97.3H195.904ZM217.704 51.8L210.548 48.2223L210.518 48.2825L210.489 48.3433L217.704 51.8ZM229.904 51.8H221.904V51.8089L221.904 51.8177L229.904 51.8ZM230.004 96.9L222.004 96.9177L222.022 104.9H230.004V96.9ZM230.004 108.8V100.8H222.004V108.8H230.004ZM207.704 96.9L200.458 93.5096L195.128 104.9H207.704V96.9ZM217.904 96.9V104.9H225.904V96.9H217.904ZM217.904 75.1H225.904L210.658 71.7096L217.904 75.1ZM218.304 113C219.936 113 222.428 113.599 224.251 115.877C225.801 117.815 225.904 119.812 225.904 120.5H209.904C209.904 121.521 210.073 123.768 211.757 125.873C213.713 128.318 216.405 129 218.304 129V113ZM225.904 120.5V108.8H209.904V120.5H225.904ZM217.904 100.8H196.304V116.8H217.904V100.8ZM196.304 100.8C197.936 100.8 200.428 101.399 202.251 103.677C203.801 105.615 203.904 107.612 203.904 108.3H187.904C187.904 109.321 188.073 111.568 189.757 113.673C191.713 116.118 194.405 116.8 196.304 116.8V100.8ZM203.904 108.3V97.3H187.904V108.3H203.904ZM203.119 100.757L224.919 55.2567L210.489 48.3433L188.689 93.8433L203.119 100.757ZM224.859 55.3777C224.451 56.1934 223.697 57.2858 222.392 58.1564C221.036 59.0604 219.57 59.4 218.304 59.4V43.4C216.771 43.4 215.072 43.8063 213.516 44.8436C212.01 45.8475 211.09 47.1399 210.548 48.2223L224.859 55.3777ZM218.304 59.4H229.604V43.4H218.304V59.4ZM229.604 59.4C227.752 59.4 225.2 58.6613 223.429 56.3C221.983 54.3715 221.904 52.4359 221.904 51.8H237.904C237.904 50.8974 237.775 48.7618 236.229 46.7C234.358 44.2054 231.656 43.4 229.604 43.4V59.4ZM221.904 51.8177L222.004 96.9177L238.004 96.8823L237.904 51.7823L221.904 51.8177ZM230.004 104.9H237.004V88.9H230.004V104.9ZM237.004 104.9C235.937 104.9 233.668 104.628 231.722 102.682C229.776 100.736 229.504 98.4665 229.504 97.4H245.504C245.504 96.0002 245.149 93.4809 243.036 91.3681C240.923 89.2554 238.404 88.9 237.004 88.9V104.9ZM229.504 97.4V108.3H245.504V97.4H229.504ZM229.504 108.3C229.504 107.612 229.607 105.615 231.157 103.677C232.98 101.399 235.472 100.8 237.104 100.8V116.8C239.003 116.8 241.694 116.118 243.651 113.673C245.335 111.568 245.504 109.321 245.504 108.3H229.504ZM237.104 100.8H230.004V116.8H237.104V100.8ZM222.004 108.8V120.5H238.004V108.8H222.004ZM222.004 120.5C222.004 119.812 222.107 117.815 223.657 115.877C225.48 113.599 227.972 113 229.604 113V129C231.503 129 234.194 128.318 236.151 125.873C237.835 123.768 238.004 121.521 238.004 120.5H222.004ZM229.604 113H218.304V129H229.604V113ZM207.704 104.9H217.904V88.9H207.704V104.9ZM225.904 96.9V75.1H209.904V96.9H225.904ZM210.658 71.7096L200.458 93.5096L214.95 100.29L225.15 78.4904L210.658 71.7096Z" fill="white" mask="url(#path-5-outside-1_148_22)"/>
</svg>
