<svg width="558" height="190" viewBox="0 0 558 190" fill="none" xmlns="http://www.w3.org/2000/svg">
<path d="M133.641 156.5C126.741 156.5 120.491 155.7 114.891 154.1C109.391 152.4 104.491 150 100.191 146.9C95.8906 143.7 92.0406 139.95 88.6406 135.65L104.091 118.1C109.091 124.8 114.091 129.3 119.091 131.6C124.191 133.9 129.441 135.05 134.841 135.05C137.541 135.05 139.991 134.7 142.191 134C144.391 133.3 146.091 132.3 147.291 131C148.491 129.6 149.091 127.9 149.091 125.9C149.091 124.4 148.691 123.05 147.891 121.85C147.191 120.65 146.191 119.6 144.891 118.7C143.591 117.8 142.041 117 140.241 116.3C138.441 115.5 136.541 114.85 134.541 114.35C132.541 113.75 130.491 113.25 128.391 112.85C122.591 111.55 117.541 109.95 113.241 108.05C108.941 106.15 105.341 103.85 102.441 101.15C99.6406 98.35 97.5406 95.2 96.1406 91.7C94.7406 88.1 94.0406 84.1 94.0406 79.7C94.0406 75 95.0906 70.7 97.1906 66.8C99.3906 62.8 102.291 59.4 105.891 56.6C109.591 53.7 113.841 51.5 118.641 50C123.441 48.4 128.441 47.6 133.641 47.6C140.541 47.6 146.441 48.35 151.341 49.85C156.341 51.25 160.591 53.3 164.091 56C167.691 58.7 170.741 61.95 173.241 65.75L157.491 80.9C155.391 78.3 153.091 76.15 150.591 74.45C148.191 72.75 145.591 71.45 142.791 70.55C140.091 69.65 137.291 69.2 134.391 69.2C131.391 69.2 128.791 69.6 126.591 70.4C124.491 71.1 122.841 72.15 121.641 73.55C120.441 74.85 119.841 76.45 119.841 78.35C119.841 80.05 120.341 81.5 121.341 82.7C122.341 83.9 123.691 85 125.391 86C127.091 86.9 129.041 87.7 131.241 88.4C133.441 89 135.741 89.5 138.141 89.9C143.641 91 148.591 92.45 152.991 94.25C157.491 96.05 161.341 98.25 164.541 100.85C167.841 103.45 170.341 106.55 172.041 110.15C173.841 113.65 174.741 117.75 174.741 122.45C174.741 129.75 172.941 135.95 169.341 141.05C165.841 146.05 160.991 149.9 154.791 152.6C148.691 155.2 141.641 156.5 133.641 156.5ZM192.709 155V75.35H216.709V155H192.709ZM204.709 59.6C200.209 59.6 196.659 58.55 194.059 56.45C191.559 54.25 190.309 51.15 190.309 47.15C190.309 43.55 191.609 40.6 194.209 38.3C196.809 36 200.309 34.85 204.709 34.85C209.209 34.85 212.709 35.95 215.209 38.15C217.709 40.25 218.959 43.25 218.959 47.15C218.959 50.85 217.659 53.85 215.059 56.15C212.559 58.45 209.109 59.6 204.709 59.6ZM288.309 155L271.359 129.35L263.559 118.4L232.059 75.35H260.859L277.209 99.8L285.759 111.5L316.809 155H288.309ZM231.309 155L263.409 110.3L276.309 125.75L259.659 155H231.309ZM283.959 120.35L271.209 105.05L286.959 75.35H315.309L283.959 120.35ZM336.826 155V55.25H360.826V155H336.826ZM322.726 96.35V75.35H376.276V96.35H322.726ZM400.042 189.5L418.192 146.75L418.492 159.05L380.092 75.35H407.242L424.042 115.4C424.942 117.4 425.792 119.55 426.592 121.85C427.392 124.15 427.992 126.35 428.392 128.45L425.092 130.4C425.692 128.9 426.342 127.05 427.042 124.85C427.842 122.55 428.692 120.1 429.592 117.5L444.292 75.35H471.592L437.692 155L423.892 189.5H400.042Z" fill="#333333"/>
<path d="M514.034 85V17.2L519.794 17.8L491.234 52.72L489.914 50.56H543.314V64.12H481.514L475.034 51.64L516.794 0.759997H529.034V85H514.034Z" fill="#333333"/>
</svg>
