<svg width="747" height="177" viewBox="0 0 747 177" fill="none" xmlns="http://www.w3.org/2000/svg">
<rect x="77.364" y="70.7107" width="91" height="141" rx="11.5" transform="rotate(-45 77.364 70.7107)" stroke="#333333" stroke-width="9"/>
<rect x="39.364" y="70.7107" width="91" height="141" rx="11.5" transform="rotate(-45 39.364 70.7107)" stroke="#333333" stroke-width="9"/>
<rect x="6.36396" y="70.7107" width="91" height="141" rx="11.5" transform="rotate(-45 6.36396 70.7107)" stroke="#333333" stroke-width="9"/>
<path d="M284.333 120.643C291.033 120.643 296.083 119.143 299.483 116.143C302.983 113.043 304.733 109.093 304.733 104.293C304.733 100.193 303.383 96.7932 300.683 94.0932C298.083 91.3932 293.933 89.2432 288.233 87.6432L275.183 83.7432C270.983 82.4432 267.333 80.7932 264.233 78.7932C261.133 76.6932 258.733 74.1432 257.033 71.1432C255.433 68.0432 254.633 64.4432 254.633 60.3432C254.633 52.6432 257.433 46.6432 263.033 42.3432C268.633 37.9432 276.083 35.7432 285.383 35.7432C290.783 35.7432 295.583 36.3432 299.783 37.5432C304.083 38.6432 307.433 40.0932 309.833 41.8932C312.333 43.6932 313.583 45.5932 313.583 47.5931C313.583 48.8932 313.233 50.0932 312.533 51.1932C311.833 52.1932 310.933 52.9932 309.833 53.5932C307.333 51.5932 303.933 49.8432 299.633 48.3432C295.433 46.8432 290.833 46.0932 285.833 46.0932C280.033 46.0932 275.433 47.3932 272.033 49.9932C268.633 52.4932 266.933 55.9432 266.933 60.3432C266.933 63.8432 268.133 66.6932 270.533 68.8932C273.033 71.0932 277.033 72.9932 282.533 74.5932L291.683 77.2932C299.583 79.4932 305.783 82.6932 310.283 86.8932C314.883 91.0932 317.183 96.8932 317.183 104.293C317.183 112.193 314.283 118.593 308.483 123.493C302.783 128.393 294.733 130.843 284.333 130.843C278.233 130.843 272.883 130.193 268.283 128.893C263.783 127.493 260.233 125.793 257.633 123.793C255.133 121.693 253.883 119.643 253.883 117.643C253.883 115.943 254.383 114.543 255.383 113.443C256.483 112.243 257.733 111.393 259.133 110.893C261.433 113.093 264.683 115.293 268.883 117.493C273.083 119.593 278.233 120.643 284.333 120.643ZM337.799 74.4432H349.949V128.593C349.449 128.793 348.699 128.993 347.699 129.193C346.699 129.493 345.599 129.643 344.399 129.643C342.199 129.643 340.549 129.193 339.449 128.293C338.349 127.393 337.799 125.993 337.799 124.093V74.4432ZM349.949 84.4932H337.799V37.9932C338.299 37.7932 339.049 37.5932 340.049 37.3932C341.149 37.0932 342.299 36.9432 343.499 36.9432C345.699 36.9432 347.299 37.3932 348.299 38.2932C349.399 39.0932 349.949 40.4932 349.949 42.4932V84.4932ZM403.757 85.5432L401.657 84.6432L370.907 42.7932C371.407 41.0932 372.257 39.6932 373.457 38.5931C374.657 37.3932 376.207 36.7932 378.107 36.7932C379.707 36.7932 381.057 37.2932 382.157 38.2932C383.257 39.1932 384.407 40.4932 385.607 42.1932L410.207 77.4432L413.657 80.4432L445.157 124.093C444.757 125.793 443.957 127.193 442.757 128.293C441.657 129.393 440.157 129.943 438.257 129.943C436.657 129.943 435.307 129.543 434.207 128.743C433.207 127.943 432.107 126.643 430.907 124.843L403.757 85.5432ZM413.957 83.7432L410.657 86.7432L379.907 129.643C379.507 129.743 379.007 129.793 378.407 129.793C377.907 129.893 377.407 129.943 376.907 129.943C374.907 129.943 373.307 129.443 372.107 128.443C370.907 127.443 370.307 126.143 370.307 124.543C370.307 123.243 370.607 122.043 371.207 120.943C371.907 119.743 372.757 118.493 373.757 117.193L401.807 80.4432L405.857 76.6932L434.357 37.2432C434.857 37.1432 435.357 37.0932 435.857 37.0932C436.357 36.9932 436.907 36.9432 437.507 36.9432C439.607 36.9432 441.157 37.4432 442.157 38.4432C443.257 39.4432 443.807 40.6932 443.807 42.1932C443.807 43.1932 443.507 44.2432 442.907 45.3432C442.407 46.4432 441.757 47.5432 440.957 48.6432C436.657 54.4432 432.257 60.2932 427.757 66.1932C423.257 71.9932 418.657 77.8432 413.957 83.7432ZM492.062 48.0432L491.312 37.6932H526.262C526.562 38.0932 526.862 38.7432 527.162 39.6432C527.462 40.5432 527.612 41.4932 527.612 42.4932C527.612 44.0932 527.212 45.4432 526.412 46.5432C525.612 47.5432 524.462 48.0432 522.962 48.0432H492.062ZM492.362 37.6932L493.112 48.0432H458.012C457.712 47.5432 457.412 46.8432 457.112 45.9432C456.812 45.0432 456.662 44.0932 456.662 43.0932C456.662 41.3932 457.062 40.0932 457.862 39.1932C458.662 38.1932 459.812 37.6932 461.312 37.6932H492.362ZM486.062 43.9932H498.212V128.593C497.712 128.793 496.912 128.993 495.812 129.193C494.812 129.493 493.762 129.643 492.662 129.643C490.462 129.643 488.812 129.193 487.712 128.293C486.612 127.393 486.062 125.993 486.062 124.093V43.9932ZM579.407 96.1932H568.757C565.957 91.9932 563.007 87.5932 559.907 82.9932C556.907 78.2932 553.907 73.5432 550.907 68.7432C548.007 63.9432 545.207 59.2432 542.507 54.6432C539.907 49.9432 537.557 45.5932 535.457 41.5932C535.857 40.4932 536.607 39.4432 537.707 38.4432C538.807 37.3432 540.257 36.7932 542.057 36.7932C543.957 36.7932 545.407 37.2932 546.407 38.2932C547.507 39.2932 548.607 40.7932 549.707 42.7932C551.307 45.5932 553.157 48.8932 555.257 52.6932C557.457 56.3932 559.707 60.2432 562.007 64.2432C564.307 68.2432 566.457 72.0432 568.457 75.6432C570.557 79.2432 572.357 82.2432 573.857 84.6432H574.457C577.957 78.8432 581.157 73.3432 584.057 68.1432C586.957 62.9432 589.757 57.8432 592.457 52.8432C595.157 47.8432 597.807 42.8432 600.407 37.8432C601.007 37.4432 601.757 37.1932 602.657 37.0932C603.557 36.8932 604.357 36.7932 605.057 36.7932C606.957 36.7932 608.357 37.2432 609.257 38.1432C610.257 39.0432 610.757 40.2932 610.757 41.8932C610.757 42.8932 609.957 45.0432 608.357 48.3432C606.857 51.5432 604.707 55.5932 601.907 60.4932C599.107 65.2932 595.807 70.7432 592.007 76.8432C588.207 82.9432 584.007 89.3932 579.407 96.1932ZM568.007 90.3432H580.157V128.593C579.657 128.793 578.857 128.993 577.757 129.193C576.757 129.493 575.707 129.643 574.607 129.643C572.407 129.643 570.757 129.193 569.657 128.293C568.557 127.393 568.007 125.993 568.007 124.093V90.3432ZM612.839 95.4432L656.489 37.5432C657.389 37.3432 658.389 37.1932 659.489 37.0932C660.689 36.8932 661.739 36.7932 662.639 36.7932C664.039 36.7932 665.339 36.9932 666.539 37.3932C667.839 37.7932 668.889 38.5432 669.689 39.6432C670.489 40.6432 670.889 42.1432 670.889 44.1432V96.6432H685.889C686.189 97.1432 686.489 97.8432 686.789 98.7432C687.089 99.5432 687.239 100.493 687.239 101.593C687.239 103.193 686.839 104.443 686.039 105.343C685.239 106.243 684.089 106.693 682.589 106.693H670.889V129.193C670.389 129.293 669.639 129.443 668.639 129.643C667.739 129.943 666.739 130.093 665.639 130.093C663.539 130.093 661.939 129.643 660.839 128.743C659.739 127.843 659.189 126.543 659.189 124.843V106.693H615.839C614.839 106.193 613.939 105.293 613.139 103.993C612.439 102.693 612.089 101.243 612.089 99.6432C612.089 98.7432 612.139 97.9932 612.239 97.3932C612.439 96.6932 612.639 96.0432 612.839 95.4432ZM659.339 96.6432L659.639 49.3932H659.339L626.039 96.6432H659.339Z" fill="#333333"/>
</svg>
