<svg width="514" height="119" viewBox="0 0 514 119" fill="none" xmlns="http://www.w3.org/2000/svg">
<path d="M0 114.307L5.10401 84.3295C16.1127 87.0547 26.0705 88.4173 34.9775 88.4173C39.481 88.4173 43.4341 88.3668 46.8368 88.2659C50.3395 88.064 53.442 87.7612 56.1441 87.3575V78.2735L39.9314 76.9109C32.6256 76.2044 26.5208 74.9932 21.617 73.2774C16.7131 71.5615 12.76 69.24 9.75767 66.313C6.85539 63.285 4.75373 59.7019 3.45271 55.5636C2.25177 51.3244 1.6513 46.3787 1.6513 40.7265C1.6513 32.9546 2.45193 26.4949 4.05318 21.3473C5.65444 16.0988 8.20645 11.9101 11.7092 8.78117C15.212 5.55131 19.7155 3.28032 25.2198 1.96819C30.8242 0.656062 37.6296 0 45.6359 0C61.5484 0 75.9597 1.51399 88.8698 4.54198L84.3663 33.6107C73.1575 31.7939 64.2004 30.8855 57.4952 30.8855C50.7899 30.8855 45.0854 31.1883 40.3817 31.7939V40.7265L53.2919 41.9377C61.1981 42.7451 67.8033 44.1077 73.1074 46.0254C78.4116 47.8422 82.6649 50.2646 85.8675 53.2926C89.1701 56.3206 91.4719 59.9037 92.7729 64.042C94.174 68.1802 94.8745 72.9241 94.8745 78.2735C94.8745 85.9444 93.8738 92.4042 91.8722 97.6527C89.8706 102.901 87.4687 106.888 84.6665 109.613C82.3647 111.834 79.5125 113.6 76.1098 114.912C72.7071 116.123 69.1043 117.032 65.3013 117.637C61.4983 118.243 57.6453 118.596 53.7422 118.697C49.9392 118.899 46.4865 119 43.3841 119C35.578 119 28.0721 118.596 20.8664 117.789C13.6607 116.981 6.70527 115.821 0 114.307Z" fill="white"/>
<path d="M144.471 115.725L108.443 116V3L144.471 3.27482V115.725Z" fill="white"/>
<path d="M153.531 3H194.363L206.823 33.0051H208.624L221.084 3.27482L260.115 3L235.195 57.5318L260.115 116H220.183L206.673 83.5725H205.021L191.661 116L153.531 115.45L178 58.743L153.531 3Z" fill="white"/>
<path d="M349.279 3.00001V31.5191H323.158V116H287.13V31.5191H261.009V2.72519L349.279 3.00001Z" fill="white"/>
<path d="M350.121 3H389.902L399.81 42.6947H401.161L411.219 3H451L418 85V116H382.546V85.3893L350.121 3Z" fill="white"/>
<path d="M0 114.307L5.10401 84.3295C16.1127 87.0547 26.0705 88.4173 34.9775 88.4173C39.481 88.4173 43.4341 88.3668 46.8368 88.2659C50.3395 88.064 53.442 87.7612 56.1441 87.3575V78.2735L39.9314 76.9109C32.6256 76.2044 26.5208 74.9932 21.617 73.2774C16.7131 71.5615 12.76 69.24 9.75767 66.313C6.85539 63.285 4.75373 59.7019 3.45271 55.5636C2.25177 51.3244 1.6513 46.3787 1.6513 40.7265C1.6513 32.9546 2.45193 26.4949 4.05318 21.3473C5.65444 16.0988 8.20645 11.9101 11.7092 8.78117C15.212 5.55131 19.7155 3.28032 25.2198 1.96819C30.8242 0.656062 37.6296 0 45.6359 0C61.5484 0 75.9597 1.51399 88.8698 4.54198L84.3663 33.6107C73.1575 31.7939 64.2004 30.8855 57.4952 30.8855C50.7899 30.8855 45.0854 31.1883 40.3817 31.7939V40.7265L53.2919 41.9377C61.1981 42.7451 67.8033 44.1077 73.1074 46.0254C78.4116 47.8422 82.6649 50.2646 85.8675 53.2926C89.1701 56.3206 91.4719 59.9037 92.7729 64.042C94.174 68.1802 94.8745 72.9241 94.8745 78.2735C94.8745 85.9444 93.8738 92.4042 91.8722 97.6527C89.8706 102.901 87.4687 106.888 84.6665 109.613C82.3647 111.834 79.5125 113.6 76.1098 114.912C72.7071 116.123 69.1043 117.032 65.3013 117.637C61.4983 118.243 57.6453 118.596 53.7422 118.697C49.9392 118.899 46.4865 119 43.3841 119C35.578 119 28.0721 118.596 20.8664 117.789C13.6607 116.981 6.70527 115.821 0 114.307Z" fill="white"/>
<path d="M144.471 115.725L108.443 116V3L144.471 3.27482V115.725Z" fill="white"/>
<path d="M153.531 3H194.363L206.823 33.0051H208.624L221.084 3.27482L260.115 3L235.195 57.5318L260.115 116H220.183L206.673 83.5725H205.021L191.661 116L153.531 115.45L178 58.743L153.531 3Z" fill="white"/>
<path d="M349.279 3.00001V31.5191H323.158V116H287.13V31.5191H261.009V2.72519L349.279 3.00001Z" fill="white"/>
<path d="M350.064 3H389.846L399.753 42.6947H401.104L411.162 3H514V85.3843L513.999 116H382.49V85.3893L350.064 3Z" fill="white"/>
<path d="M504.585 91H475.614V76.92H431V59.32L453.5 2.5L504.585 2.5V52.7024H514V76.92H504.585V91ZM475.614 24.12H474.166L461.274 52.7024H475.614V24.12Z" fill="#333333"/>
<path d="M432.88 110.57H428.2V116H421V93.5H432.34C437.5 93.5 440.08 96.27 440.08 101.81C440.08 103.03 439.96 104.17 439.72 105.23C439.48 106.29 439.07 107.22 438.49 108.02C437.93 108.8 437.19 109.42 436.27 109.88C435.37 110.34 434.24 110.57 432.88 110.57ZM429.85 99.26H428.2V104.81H429.85C430.73 104.81 431.36 104.72 431.74 104.54C432.14 104.36 432.34 103.94 432.34 103.28V100.76C432.34 100.12 432.14 99.71 431.74 99.53C431.36 99.35 430.73 99.26 429.85 99.26Z" fill="#333333"/>
<path d="M457.96 108.5L461.86 116H453.94L451 109.31H449.44V116H442.24V93.5H453.58C458.74 93.5 461.32 96.13 461.32 101.39C461.32 104.99 460.2 107.36 457.96 108.5ZM451.09 99.26H449.44V103.76H451.09C451.97 103.76 452.6 103.67 452.98 103.49C453.38 103.31 453.58 102.9 453.58 102.26V100.76C453.58 100.12 453.38 99.71 452.98 99.53C452.6 99.35 451.97 99.26 451.09 99.26Z" fill="#333333"/>
<path d="M471.589 116H464.389V93.5H471.589V116Z" fill="#333333"/>
<path d="M495.179 116H488.399L482.909 108.02C482.809 107.88 482.729 107.67 482.669 107.39C482.609 107.11 482.569 106.74 482.549 106.28H482.399V116H475.199V93.5H481.979L487.469 101.48C487.569 101.62 487.649 101.83 487.709 102.11C487.769 102.39 487.809 102.76 487.829 103.22H487.979V93.5H495.179V116Z" fill="#333333"/>
<path d="M514 93.5V99.26H509.583V116H502.383V99.26H497.163V93.5H514Z" fill="#333333"/>
</svg>
