<svg width="248" height="177" viewBox="0 0 248 177" fill="none" xmlns="http://www.w3.org/2000/svg">
<rect x="75.2426" y="70.7107" width="94" height="144" rx="13" transform="rotate(-45 75.2426 70.7107)" stroke="#FBE93C" stroke-opacity="0.6" stroke-width="6"/>
<rect x="37.2426" y="70.7107" width="94" height="144" rx="13" transform="rotate(-45 37.2426 70.7107)" stroke="#F43516" stroke-opacity="0.6" stroke-width="6"/>
<rect x="4.24264" y="70.7107" width="94" height="144" rx="13" transform="rotate(-45 4.24264 70.7107)" stroke="#79AFFF" stroke-opacity="0.6" stroke-width="6"/>
<mask id="path-4-outside-1_147_36710" maskUnits="userSpaceOnUse" x="2" y="42" width="237" height="88" fill="black">
<rect fill="white" x="2" y="42" width="237" height="88"/>
<path d="M30.3789 122C26.7789 122 23.4789 121.1 20.4789 119.3C17.5456 117.433 15.1789 115 13.3789 112C11.6456 108.933 10.7789 105.567 10.7789 101.9V97.3C10.7789 96.9667 10.9456 96.8 11.2789 96.8H22.4789C22.7456 96.8 22.8789 96.9667 22.8789 97.3V101.9C22.8789 104.1 23.6122 106 25.0789 107.6C26.5456 109.133 28.3122 109.9 30.3789 109.9C32.4456 109.9 34.2122 109.1 35.6789 107.5C37.1456 105.9 37.8789 104.033 37.8789 101.9C37.8789 99.4333 36.2789 97.3 33.0789 95.5C32.0122 94.9 30.3456 93.9667 28.0789 92.7C25.8122 91.4333 23.6789 90.2333 21.6789 89.1C18.0122 86.9667 15.2789 84.3 13.4789 81.1C11.7456 77.8333 10.8789 74.1667 10.8789 70.1C10.8789 66.3667 11.7789 63.0333 13.5789 60.1C15.3789 57.1 17.7456 54.7333 20.6789 53C23.6789 51.2667 26.9122 50.4 30.3789 50.4C33.9122 50.4 37.1456 51.3 40.0789 53.1C43.0789 54.8333 45.4456 57.2 47.1789 60.2C48.9789 63.1333 49.8789 66.4333 49.8789 70.1V78.3C49.8789 78.5667 49.7456 78.7 49.4789 78.7H38.2789C38.0122 78.7 37.8789 78.5667 37.8789 78.3L37.7789 70.1C37.7789 67.7667 37.0456 65.8667 35.5789 64.4C34.1122 62.9333 32.3789 62.2 30.3789 62.2C28.3122 62.2 26.5456 63 25.0789 64.6C23.6122 66.1333 22.8789 67.9667 22.8789 70.1C22.8789 72.3 23.3456 74.1333 24.2789 75.6C25.2122 77.0667 26.9122 78.4667 29.3789 79.8C29.7122 80 30.3456 80.3667 31.2789 80.9C32.2789 81.3667 33.3456 81.9333 34.4789 82.6C35.6122 83.2 36.6122 83.7333 37.4789 84.2C38.4122 84.6667 38.9789 84.9667 39.1789 85.1C42.5122 86.9667 45.1456 89.2667 47.0789 92C49.0122 94.6667 49.9789 97.9667 49.9789 101.9C49.9789 105.7 49.0789 109.133 47.2789 112.2C45.5456 115.2 43.1789 117.6 40.1789 119.4C37.2456 121.133 33.9789 122 30.3789 122ZM57.4336 121C57.1003 121 56.9336 120.833 56.9336 120.5L57.0336 51.8C57.0336 51.5333 57.1669 51.4 57.4336 51.4H68.6336C68.9003 51.4 69.0336 51.5333 69.0336 51.8L69.1336 120.5C69.1336 120.833 69.0003 121 68.7336 121H57.4336ZM74.8297 121C74.563 121 74.463 120.833 74.5297 120.5L85.9297 84.8L74.7297 51.8C74.663 51.5333 74.763 51.4 75.0297 51.4H86.2297C86.563 51.4 86.763 51.5333 86.8297 51.8L93.5297 75.6L100.33 51.8C100.396 51.5333 100.596 51.4 100.93 51.4H112.03C112.296 51.4 112.396 51.5333 112.33 51.8L101.13 84.7L112.43 120.5C112.563 120.833 112.463 121 112.13 121H100.93C100.663 121 100.463 120.833 100.33 120.5L93.5297 94.7L86.6297 120.5C86.563 120.833 86.363 121 86.0297 121H74.8297ZM128.359 121C128.093 121 127.959 120.833 127.959 120.5V63.5H114.959C114.626 63.5 114.459 63.3333 114.459 63L114.559 51.8C114.559 51.5333 114.693 51.4 114.959 51.4H152.959C153.293 51.4 153.459 51.5333 153.459 51.8V63C153.459 63.3333 153.326 63.5 153.059 63.5H139.959L140.059 120.5C140.059 120.833 139.926 121 139.659 121H128.359ZM167.698 121C167.498 121 167.398 120.867 167.398 120.6L167.498 92.2L154.098 51.8C154.032 51.5333 154.132 51.4 154.398 51.4H165.498C165.832 51.4 166.032 51.5333 166.098 51.8L173.498 78.7L180.998 51.8C181.065 51.5333 181.232 51.4 181.498 51.4H192.698C192.965 51.4 193.065 51.5333 192.998 51.8L179.498 91.8L179.598 120.6C179.598 120.867 179.465 121 179.198 121H167.698ZM211.304 121C211.037 121 210.904 120.833 210.904 120.5V108.8H189.304C189.037 108.8 188.904 108.633 188.904 108.3V97.3L210.704 51.8C210.837 51.5333 211.037 51.4 211.304 51.4H222.604C222.804 51.4 222.904 51.5333 222.904 51.8L223.004 96.9H230.004C230.337 96.9 230.504 97.0667 230.504 97.4V108.3C230.504 108.633 230.371 108.8 230.104 108.8H223.004V120.5C223.004 120.833 222.871 121 222.604 121H211.304ZM200.704 96.9H210.904V75.1L200.704 96.9Z"/>
</mask>
<path d="M30.3789 122C26.7789 122 23.4789 121.1 20.4789 119.3C17.5456 117.433 15.1789 115 13.3789 112C11.6456 108.933 10.7789 105.567 10.7789 101.9V97.3C10.7789 96.9667 10.9456 96.8 11.2789 96.8H22.4789C22.7456 96.8 22.8789 96.9667 22.8789 97.3V101.9C22.8789 104.1 23.6122 106 25.0789 107.6C26.5456 109.133 28.3122 109.9 30.3789 109.9C32.4456 109.9 34.2122 109.1 35.6789 107.5C37.1456 105.9 37.8789 104.033 37.8789 101.9C37.8789 99.4333 36.2789 97.3 33.0789 95.5C32.0122 94.9 30.3456 93.9667 28.0789 92.7C25.8122 91.4333 23.6789 90.2333 21.6789 89.1C18.0122 86.9667 15.2789 84.3 13.4789 81.1C11.7456 77.8333 10.8789 74.1667 10.8789 70.1C10.8789 66.3667 11.7789 63.0333 13.5789 60.1C15.3789 57.1 17.7456 54.7333 20.6789 53C23.6789 51.2667 26.9122 50.4 30.3789 50.4C33.9122 50.4 37.1456 51.3 40.0789 53.1C43.0789 54.8333 45.4456 57.2 47.1789 60.2C48.9789 63.1333 49.8789 66.4333 49.8789 70.1V78.3C49.8789 78.5667 49.7456 78.7 49.4789 78.7H38.2789C38.0122 78.7 37.8789 78.5667 37.8789 78.3L37.7789 70.1C37.7789 67.7667 37.0456 65.8667 35.5789 64.4C34.1122 62.9333 32.3789 62.2 30.3789 62.2C28.3122 62.2 26.5456 63 25.0789 64.6C23.6122 66.1333 22.8789 67.9667 22.8789 70.1C22.8789 72.3 23.3456 74.1333 24.2789 75.6C25.2122 77.0667 26.9122 78.4667 29.3789 79.8C29.7122 80 30.3456 80.3667 31.2789 80.9C32.2789 81.3667 33.3456 81.9333 34.4789 82.6C35.6122 83.2 36.6122 83.7333 37.4789 84.2C38.4122 84.6667 38.9789 84.9667 39.1789 85.1C42.5122 86.9667 45.1456 89.2667 47.0789 92C49.0122 94.6667 49.9789 97.9667 49.9789 101.9C49.9789 105.7 49.0789 109.133 47.2789 112.2C45.5456 115.2 43.1789 117.6 40.1789 119.4C37.2456 121.133 33.9789 122 30.3789 122ZM57.4336 121C57.1003 121 56.9336 120.833 56.9336 120.5L57.0336 51.8C57.0336 51.5333 57.1669 51.4 57.4336 51.4H68.6336C68.9003 51.4 69.0336 51.5333 69.0336 51.8L69.1336 120.5C69.1336 120.833 69.0003 121 68.7336 121H57.4336ZM74.8297 121C74.563 121 74.463 120.833 74.5297 120.5L85.9297 84.8L74.7297 51.8C74.663 51.5333 74.763 51.4 75.0297 51.4H86.2297C86.563 51.4 86.763 51.5333 86.8297 51.8L93.5297 75.6L100.33 51.8C100.396 51.5333 100.596 51.4 100.93 51.4H112.03C112.296 51.4 112.396 51.5333 112.33 51.8L101.13 84.7L112.43 120.5C112.563 120.833 112.463 121 112.13 121H100.93C100.663 121 100.463 120.833 100.33 120.5L93.5297 94.7L86.6297 120.5C86.563 120.833 86.363 121 86.0297 121H74.8297ZM128.359 121C128.093 121 127.959 120.833 127.959 120.5V63.5H114.959C114.626 63.5 114.459 63.3333 114.459 63L114.559 51.8C114.559 51.5333 114.693 51.4 114.959 51.4H152.959C153.293 51.4 153.459 51.5333 153.459 51.8V63C153.459 63.3333 153.326 63.5 153.059 63.5H139.959L140.059 120.5C140.059 120.833 139.926 121 139.659 121H128.359ZM167.698 121C167.498 121 167.398 120.867 167.398 120.6L167.498 92.2L154.098 51.8C154.032 51.5333 154.132 51.4 154.398 51.4H165.498C165.832 51.4 166.032 51.5333 166.098 51.8L173.498 78.7L180.998 51.8C181.065 51.5333 181.232 51.4 181.498 51.4H192.698C192.965 51.4 193.065 51.5333 192.998 51.8L179.498 91.8L179.598 120.6C179.598 120.867 179.465 121 179.198 121H167.698ZM211.304 121C211.037 121 210.904 120.833 210.904 120.5V108.8H189.304C189.037 108.8 188.904 108.633 188.904 108.3V97.3L210.704 51.8C210.837 51.5333 211.037 51.4 211.304 51.4H222.604C222.804 51.4 222.904 51.5333 222.904 51.8L223.004 96.9H230.004C230.337 96.9 230.504 97.0667 230.504 97.4V108.3C230.504 108.633 230.371 108.8 230.104 108.8H223.004V120.5C223.004 120.833 222.871 121 222.604 121H211.304ZM200.704 96.9H210.904V75.1L200.704 96.9Z" fill="#333333"/>
<path d="M20.4789 119.3L16.1839 126.049L16.2727 126.106L16.3629 126.16L20.4789 119.3ZM13.3789 112L6.4144 115.936L6.46552 116.027L6.51896 116.116L13.3789 112ZM25.0789 107.6L19.1817 113.006L19.2391 113.068L19.2978 113.13L25.0789 107.6ZM35.6789 107.5L29.7817 102.094L29.7817 102.094L35.6789 107.5ZM33.0789 95.5L37.001 88.5274L37.001 88.5274L33.0789 95.5ZM28.0789 92.7L31.9815 85.7165L31.9815 85.7164L28.0789 92.7ZM21.6789 89.1L17.6558 96.0148L17.6952 96.0377L17.7348 96.0602L21.6789 89.1ZM13.4789 81.1L6.41211 84.8497L6.45815 84.9365L6.5063 85.0221L13.4789 81.1ZM13.5789 60.1L20.3975 64.2841L20.4183 64.2501L20.4389 64.216L13.5789 60.1ZM20.6789 53L16.6767 46.0731L16.6428 46.0927L16.6091 46.1126L20.6789 53ZM40.0789 53.1L35.8948 59.9186L35.985 59.974L36.0767 60.0269L40.0789 53.1ZM47.1789 60.2L40.252 64.2022L40.305 64.2939L40.3603 64.3841L47.1789 60.2ZM37.8789 78.3H45.8789V78.2512L45.8783 78.2024L37.8789 78.3ZM37.7789 70.1H29.7789V70.1488L29.7795 70.1976L37.7789 70.1ZM35.5789 64.4L41.2358 58.7431L41.2358 58.7431L35.5789 64.4ZM25.0789 64.6L30.86 70.1298L30.9187 70.0684L30.9761 70.0058L25.0789 64.6ZM24.2789 75.6L31.0282 71.305L31.0282 71.305L24.2789 75.6ZM29.3789 79.8L33.4949 72.9401L33.341 72.8477L33.183 72.7623L29.3789 79.8ZM31.2789 80.9L27.3098 87.8459L27.5965 88.0098L27.8958 88.1495L31.2789 80.9ZM34.4789 82.6L30.4227 89.4955L30.5773 89.5864L30.7358 89.6703L34.4789 82.6ZM37.4789 84.2L33.6861 91.2438L33.7928 91.3012L33.9012 91.3554L37.4789 84.2ZM39.1789 85.1L34.7413 91.7564L34.9994 91.9285L35.2701 92.08L39.1789 85.1ZM47.0789 92L40.5476 96.6197L40.5746 96.6579L40.602 96.6957L47.0789 92ZM47.2789 112.2L40.3796 108.15L40.3657 108.174L40.352 108.198L47.2789 112.2ZM40.1789 119.4L44.2487 126.287L44.2719 126.274L44.2949 126.26L40.1789 119.4ZM30.3789 114C28.1847 114 26.3143 113.472 24.5949 112.44L16.3629 126.16C20.6436 128.728 25.3731 130 30.3789 130V114ZM24.7739 112.551C22.8951 111.355 21.404 109.826 20.2389 107.884L6.51896 116.116C8.95381 120.174 12.196 123.512 16.1839 126.049L24.7739 112.551ZM20.3434 108.064C19.3172 106.248 18.7789 104.246 18.7789 101.9H2.77891C2.77891 106.887 3.97397 111.619 6.4144 115.936L20.3434 108.064ZM18.7789 101.9V97.3H2.77891V101.9H18.7789ZM18.7789 97.3C18.7789 98.3665 18.5069 100.636 16.5608 102.582C14.6147 104.528 12.3454 104.8 11.2789 104.8V88.8C9.87908 88.8 7.35983 89.1554 5.24706 91.2681C3.13428 93.3809 2.77891 95.9002 2.77891 97.3H18.7789ZM11.2789 104.8H22.4789V88.8H11.2789V104.8ZM22.4789 104.8C20.8466 104.8 18.3551 104.201 16.532 101.923C14.9815 99.9845 14.8789 97.9881 14.8789 97.3H30.8789C30.8789 96.2786 30.7096 94.0321 29.0259 91.9274C27.0694 89.4819 24.3779 88.8 22.4789 88.8V104.8ZM14.8789 97.3V101.9H30.8789V97.3H14.8789ZM14.8789 101.9C14.8789 106.071 16.3423 109.908 19.1817 113.006L30.9761 102.194C30.9192 102.132 30.8953 102.096 30.8895 102.086C30.8842 102.078 30.8876 102.082 30.8923 102.094C30.8969 102.106 30.8952 102.106 30.8914 102.085C30.8874 102.063 30.8789 102.004 30.8789 101.9H14.8789ZM19.2978 113.13C22.2282 116.193 26.064 117.9 30.3789 117.9V101.9C30.3591 101.9 30.3881 101.898 30.4541 101.912C30.5216 101.925 30.6034 101.949 30.6887 101.986C30.7736 102.023 30.836 102.061 30.8723 102.087C30.9072 102.112 30.9015 102.114 30.86 102.07L19.2978 113.13ZM30.3789 117.9C34.8121 117.9 38.6801 116.065 41.5761 112.906L29.7817 102.094C29.6911 102.193 29.7424 102.108 29.9538 102.012C30.051 101.968 30.1495 101.937 30.2383 101.919C30.2807 101.91 30.3153 101.905 30.3405 101.903C30.3656 101.9 30.3789 101.9 30.3789 101.9V117.9ZM41.5761 112.906C44.3692 109.859 45.8789 106.073 45.8789 101.9H29.8789C29.8789 101.973 29.8728 102.006 29.8726 102.007C29.8725 102.008 29.8753 101.994 29.8829 101.975C29.8904 101.956 29.8949 101.951 29.8868 101.963C29.878 101.977 29.8482 102.022 29.7817 102.094L41.5761 112.906ZM45.8789 101.9C45.8789 95.2717 41.3715 90.9858 37.001 88.5274L29.1568 102.473C29.6232 102.735 29.9258 102.951 30.1083 103.1C30.2899 103.249 30.3214 103.307 30.2789 103.25C30.2307 103.186 30.1184 103.015 30.0229 102.741C29.9252 102.46 29.8789 102.166 29.8789 101.9H45.8789ZM37.001 88.5274C35.924 87.9216 34.2491 86.9837 31.9815 85.7165L24.1763 99.6835C26.442 100.95 28.1005 101.878 29.1568 102.473L37.001 88.5274ZM31.9815 85.7164C29.7269 84.4566 27.6076 83.2644 25.623 82.1398L17.7348 96.0602C19.7503 97.2023 21.8975 98.4101 24.1763 99.6835L31.9815 85.7164ZM25.7021 82.1852C23.0734 80.6558 21.4501 78.9531 20.4515 77.1779L6.5063 85.0221C9.10774 89.6469 12.9511 93.2775 17.6558 96.0148L25.7021 82.1852ZM20.5457 77.3503C19.4846 75.3505 18.8789 72.9922 18.8789 70.1H2.87891C2.87891 75.3411 4.00657 80.3162 6.41211 84.8497L20.5457 77.3503ZM18.8789 70.1C18.8789 67.7139 19.4352 65.8523 20.3975 64.2841L6.76032 55.9159C4.12261 60.2144 2.87891 65.0195 2.87891 70.1H18.8789ZM20.4389 64.216C21.573 62.3257 22.9931 60.9248 24.7487 59.8874L16.6091 46.1126C12.498 48.5418 9.18479 51.8743 6.71896 55.984L20.4389 64.216ZM24.6811 59.9269C26.4637 58.897 28.3166 58.4 30.3789 58.4V42.4C25.5079 42.4 20.8941 43.6364 16.6767 46.0731L24.6811 59.9269ZM30.3789 58.4C32.4767 58.4 34.2552 58.9125 35.8948 59.9186L44.263 46.2814C40.0359 43.6875 35.3478 42.4 30.3789 42.4V58.4ZM36.0767 60.0269C37.8623 61.0586 39.2203 62.4166 40.252 64.2022L54.1058 56.1978C51.6708 51.9834 48.2955 48.6081 44.0811 46.1731L36.0767 60.0269ZM40.3603 64.3841C41.3368 65.9754 41.8789 67.8097 41.8789 70.1H57.8789C57.8789 65.057 56.621 60.2912 53.9975 56.0159L40.3603 64.3841ZM41.8789 70.1V78.3H57.8789V70.1H41.8789ZM41.8789 78.3C41.8789 77.2002 42.1593 74.9059 44.1221 72.9431C46.0848 70.9804 48.3791 70.7 49.4789 70.7V86.7C50.8454 86.7 53.3397 86.353 55.4358 84.2569C57.5319 82.1607 57.8789 79.6665 57.8789 78.3H41.8789ZM49.4789 70.7H38.2789V86.7H49.4789V70.7ZM38.2789 70.7C39.3787 70.7 41.673 70.9804 43.6358 72.9432C45.5985 74.9059 45.8789 77.2002 45.8789 78.3H29.8789C29.8789 79.6665 30.2259 82.1607 32.322 84.2568C34.4181 86.353 36.9124 86.7 38.2789 86.7V70.7ZM45.8783 78.2024L45.7783 70.0024L29.7795 70.1976L29.8795 78.3976L45.8783 78.2024ZM45.7789 70.1C45.7789 65.9343 44.3957 61.903 41.2358 58.7431L29.9221 70.0568C29.9111 70.0459 29.8805 70.0125 29.8445 69.9575C29.8083 69.902 29.7819 69.8479 29.7655 69.8056C29.7497 69.7646 29.7519 69.757 29.7588 69.7967C29.766 69.8382 29.7789 69.9355 29.7789 70.1H45.7789ZM41.2358 58.7431C38.3309 55.8383 34.5869 54.2 30.3789 54.2V70.2C30.3877 70.2 30.3535 70.2006 30.2869 70.1875C30.2192 70.1742 30.141 70.1512 30.0618 70.1177C29.983 70.0844 29.927 70.0507 29.8967 70.0298C29.8677 70.0099 29.8776 70.0124 29.9221 70.0569L41.2358 58.7431ZM30.3789 54.2C25.9457 54.2 22.0777 56.0349 19.1817 59.1942L30.9761 70.0058C31.0667 69.907 31.0154 69.9919 30.804 70.0876C30.7068 70.1316 30.6083 70.1628 30.5195 70.1813C30.4771 70.1901 30.4425 70.1949 30.4173 70.1975C30.3922 70.2 30.3789 70.2 30.3789 70.2V54.2ZM19.2978 59.0702C16.3984 62.1013 14.8789 65.9189 14.8789 70.1H30.8789C30.8789 70.0626 30.8805 70.0376 30.8817 70.0238C30.883 70.0101 30.8839 70.0061 30.8831 70.0106C30.8823 70.0152 30.88 70.0261 30.8754 70.0421C30.8708 70.0581 30.8646 70.0765 30.8567 70.0961C30.8489 70.1158 30.8404 70.1339 30.8322 70.1498C30.8239 70.1656 30.8172 70.1766 30.8133 70.1825C30.8096 70.1882 30.81 70.187 30.8165 70.1787C30.8232 70.1704 30.837 70.1539 30.86 70.1298L19.2978 59.0702ZM14.8789 70.1C14.8789 73.4204 15.5879 76.8438 17.5296 79.895L31.0282 71.305C31.1032 71.4229 30.8789 71.1796 30.8789 70.1H14.8789ZM17.5296 79.895C19.5128 83.0114 22.5678 85.2122 25.5748 86.8377L33.183 72.7623C32.2872 72.2781 31.7006 71.8719 31.3396 71.5746C30.9746 71.274 30.9407 71.1675 31.0282 71.305L17.5296 79.895ZM25.2629 86.6599C25.6798 86.9101 26.3842 87.317 27.3098 87.8459L35.248 73.954C34.3069 73.4163 33.7446 73.0899 33.4949 72.9401L25.2629 86.6599ZM27.8958 88.1495C28.6275 88.4909 29.4681 88.9339 30.4227 89.4955L38.5351 75.7045C37.2231 74.9328 35.9303 74.2424 34.662 73.6505L27.8958 88.1495ZM30.7358 89.6703C31.8572 90.264 32.84 90.7882 33.6861 91.2438L41.2717 77.1562C40.3844 76.6785 39.3673 76.136 38.222 75.5297L30.7358 89.6703ZM33.9012 91.3554C34.3421 91.5758 34.6553 91.7365 34.8608 91.8453C34.9639 91.8999 35.0134 91.9274 35.0237 91.9332C35.0278 91.9356 35.0079 91.9244 34.9707 91.9021C34.939 91.8831 34.8551 91.8322 34.7413 91.7564L43.6165 78.4436C42.9026 77.9677 41.7983 77.4154 41.0566 77.0446L33.9012 91.3554ZM35.2701 92.08C37.7113 93.4471 39.3928 94.9872 40.5476 96.6197L53.6102 87.3803C50.8983 83.5462 47.3132 80.4862 43.0877 78.1199L35.2701 92.08ZM40.602 96.6957C41.3648 97.7479 41.9789 99.3174 41.9789 101.9H57.9789C57.9789 96.616 56.6597 91.5854 53.5558 87.3043L40.602 96.6957ZM41.9789 101.9C41.9789 104.378 41.4092 106.396 40.3796 108.15L54.1782 116.25C56.7486 111.871 57.9789 107.022 57.9789 101.9H41.9789ZM40.352 108.198C39.3049 110.01 37.9105 111.432 36.0629 112.54L44.2949 126.26C48.4473 123.768 51.7863 120.39 54.2058 116.202L40.352 108.198ZM36.1091 112.513C34.479 113.476 32.6315 114 30.3789 114V130C35.3263 130 40.0122 128.791 44.2487 126.287L36.1091 112.513ZM56.9336 120.5L48.9336 120.488V120.5H56.9336ZM57.0336 51.8L65.0336 51.8116V51.8H57.0336ZM69.0336 51.8L61.0336 51.8L61.0336 51.8116L69.0336 51.8ZM69.1336 120.5L77.1336 120.5L77.1336 120.488L69.1336 120.5ZM57.4336 113C58.5001 113 60.7693 113.272 62.7154 115.218C64.6616 117.164 64.9336 119.434 64.9336 120.5H48.9336C48.9336 121.9 49.289 124.419 51.4017 126.532C53.5145 128.645 56.0338 129 57.4336 129V113ZM64.9336 120.512L65.0336 51.8116L49.0336 51.7884L48.9336 120.488L64.9336 120.512ZM65.0336 51.8C65.0336 52.8998 64.7532 55.1941 62.7905 57.1568C60.8277 59.1196 58.5334 59.4 57.4336 59.4V43.4C56.0671 43.4 53.5728 43.747 51.4767 45.8431C49.3806 47.9393 49.0336 50.4335 49.0336 51.8H65.0336ZM57.4336 59.4H68.6336V43.4H57.4336V59.4ZM68.6336 59.4C67.5338 59.4 65.2395 59.1196 63.2767 57.1569C61.314 55.1941 61.0336 52.8998 61.0336 51.8H77.0336C77.0336 50.4335 76.6866 47.9392 74.5904 45.8431C72.4943 43.747 70.0001 43.4 68.6336 43.4V59.4ZM61.0336 51.8116L61.1336 120.512L77.1336 120.488L77.0336 51.7884L61.0336 51.8116ZM61.1336 120.5C61.1336 119.812 61.2362 117.815 62.7866 115.877C64.6098 113.599 67.1013 113 68.7336 113V129C70.6326 129 73.3241 128.318 75.2805 125.873C76.9643 123.768 77.1336 121.521 77.1336 120.5H61.1336ZM68.7336 113H57.4336V129H68.7336V113ZM74.5297 120.5L66.9088 118.066L66.7728 118.493L66.685 118.931L74.5297 120.5ZM85.9297 84.8L93.5506 87.2336L94.352 84.7238L93.5053 82.2289L85.9297 84.8ZM74.7297 51.8L66.9685 53.7403L67.0484 54.0595L67.1541 54.3711L74.7297 51.8ZM86.8297 51.8L79.0685 53.7403L79.0971 53.8545L79.129 53.9678L86.8297 51.8ZM93.5297 75.6L85.829 77.7678L93.4727 104.92L101.222 77.7978L93.5297 75.6ZM100.33 51.8L108.022 53.9978L108.058 53.8696L108.091 53.7403L100.33 51.8ZM112.33 51.8L119.903 54.3781L120.01 54.0631L120.091 53.7403L112.33 51.8ZM101.13 84.7L93.5565 82.1219L92.7109 84.6058L93.5007 87.108L101.13 84.7ZM112.43 120.5L104.801 122.908L104.891 123.193L105.002 123.471L112.43 120.5ZM100.33 120.5L92.5939 122.539L92.7192 123.014L92.9019 123.471L100.33 120.5ZM93.5297 94.7L101.266 92.6611L93.5861 63.5246L85.8013 92.6331L93.5297 94.7ZM86.6297 120.5L78.9013 118.433L78.8352 118.68L78.785 118.931L86.6297 120.5ZM74.8297 113C76.3375 113 79.5047 113.576 81.4146 116.759C82.9212 119.27 82.4644 121.618 82.3743 122.069L66.685 118.931C66.5283 119.715 66.0882 122.313 67.6947 124.991C69.7047 128.341 73.0552 129 74.8297 129V113ZM82.1506 122.934L93.5506 87.2336L78.3088 82.3664L66.9088 118.066L82.1506 122.934ZM93.5053 82.2289L82.3053 49.2289L67.1541 54.3711L78.3541 87.3711L93.5053 82.2289ZM82.4908 49.8597C82.6693 50.5735 83.271 53.4782 81.1547 56.3C78.968 59.2156 75.8902 59.4 75.0297 59.4V43.4C73.9025 43.4 70.6414 43.6511 68.3547 46.7C66.1383 49.6551 66.7234 52.7598 66.9685 53.7403L82.4908 49.8597ZM75.0297 59.4H86.2297V43.4H75.0297V59.4ZM86.2297 59.4C85.4073 59.4 83.8238 59.2442 82.1921 58.1564C80.3982 56.9605 79.4437 55.2409 79.0685 53.7403L94.5908 49.8597C94.149 48.0924 93.0612 46.1729 91.0673 44.8436C89.2355 43.6224 87.3854 43.4 86.2297 43.4V59.4ZM79.129 53.9678L85.829 77.7678L101.23 73.4322L94.5304 49.6322L79.129 53.9678ZM101.222 77.7978L108.022 53.9978L92.6375 49.6022L85.8375 73.4022L101.222 77.7978ZM108.091 53.7403C107.716 55.2409 106.761 56.9605 104.967 58.1564C103.336 59.2442 101.752 59.4 100.93 59.4V43.4C99.774 43.4 97.9238 43.6224 96.0921 44.8436C94.0982 46.1729 93.0104 48.0924 92.5686 49.8597L108.091 53.7403ZM100.93 59.4H112.03V43.4H100.93V59.4ZM112.03 59.4C111.169 59.4 108.091 59.2156 105.905 56.3C103.788 53.4782 104.39 50.5735 104.569 49.8597L120.091 53.7403C120.336 52.7598 120.921 49.6551 118.705 46.7C116.418 43.6511 113.157 43.4 112.03 43.4V59.4ZM104.756 49.2219L93.5565 82.1219L108.703 87.2781L119.903 54.3781L104.756 49.2219ZM93.5007 87.108L104.801 122.908L120.059 118.092L108.759 82.292L93.5007 87.108ZM105.002 123.471C104.881 123.169 103.596 120.09 105.595 116.759C107.799 113.086 111.531 113 112.13 113V129C113.062 129 117.011 128.831 119.315 124.991C121.413 121.494 120.112 118.164 119.858 117.529L105.002 123.471ZM112.13 113H100.93V129H112.13V113ZM100.93 113C102.618 113 104.326 113.583 105.701 114.729C106.935 115.757 107.509 116.906 107.757 117.529L92.9019 123.471C93.2842 124.427 94.0245 125.826 95.4582 127.021C97.0336 128.334 98.9745 129 100.93 129V113ZM108.066 118.461L101.266 92.6611L85.7939 96.7389L92.5939 122.539L108.066 118.461ZM85.8013 92.6331L78.9013 118.433L94.3581 122.567L101.258 96.7669L85.8013 92.6331ZM78.785 118.931C78.9995 117.859 79.6251 116.132 81.3082 114.729C83.0097 113.311 84.8603 113 86.0297 113V129C87.5324 129 89.6497 128.605 91.5512 127.021C93.4343 125.451 94.1932 123.475 94.4743 122.069L78.785 118.931ZM86.0297 113H74.8297V129H86.0297V113ZM127.959 63.5H135.959V55.5H127.959V63.5ZM114.459 63L106.46 62.9286L106.459 62.9643V63H114.459ZM114.559 51.8L122.559 51.8714L122.559 51.8357V51.8H114.559ZM139.959 63.5V55.5H131.945L131.959 63.514L139.959 63.5ZM140.059 120.5L148.059 120.5L148.059 120.486L140.059 120.5ZM128.359 113C129.992 113 132.483 113.599 134.306 115.877C135.857 117.815 135.959 119.812 135.959 120.5H119.959C119.959 121.521 120.129 123.768 121.812 125.873C123.769 128.318 126.46 129 128.359 129V113ZM135.959 120.5V63.5H119.959V120.5H135.959ZM127.959 55.5H114.959V71.5H127.959V55.5ZM114.959 55.5C116.026 55.5 118.295 55.772 120.241 57.7181C122.187 59.6642 122.459 61.9335 122.459 63H106.459C106.459 64.3998 106.815 66.9191 108.928 69.0319C111.04 71.1446 113.56 71.5 114.959 71.5V55.5ZM122.459 63.0714L122.559 51.8714L106.56 51.7286L106.46 62.9286L122.459 63.0714ZM122.559 51.8C122.559 52.8998 122.279 55.1941 120.316 57.1568C118.353 59.1196 116.059 59.4 114.959 59.4V43.4C113.593 43.4 111.099 43.747 109.003 45.8431C106.906 47.9393 106.559 50.4335 106.559 51.8H122.559ZM114.959 59.4H152.959V43.4H114.959V59.4ZM152.959 59.4C152.271 59.4 150.275 59.2974 148.337 57.747C146.058 55.9238 145.459 53.4323 145.459 51.8H161.459C161.459 49.901 160.777 47.2095 158.332 45.253C156.227 43.5693 153.981 43.4 152.959 43.4V59.4ZM145.459 51.8V63H161.459V51.8H145.459ZM145.459 63C145.459 62.3119 145.562 60.3154 147.112 58.3774C148.936 56.0985 151.427 55.5 153.059 55.5V71.5C154.958 71.5 157.65 70.8181 159.606 68.3726C161.29 66.2679 161.459 64.0214 161.459 63H145.459ZM153.059 55.5H139.959V71.5H153.059V55.5ZM131.959 63.514L132.059 120.514L148.059 120.486L147.959 63.486L131.959 63.514ZM132.059 120.5C132.059 119.812 132.162 117.815 133.712 115.877C135.536 113.599 138.027 113 139.659 113V129C141.558 129 144.25 128.318 146.206 125.873C147.89 123.768 148.059 121.521 148.059 120.5H132.059ZM139.659 113H128.359V129H139.659V113ZM167.398 120.6L159.398 120.572L159.398 120.586V120.6H167.398ZM167.498 92.2L175.498 92.2282L175.503 90.9216L175.092 89.6815L167.498 92.2ZM154.098 51.8L146.337 53.7403L146.41 54.0326L146.505 54.3185L154.098 51.8ZM166.098 51.8L158.337 53.7403L158.36 53.8314L158.385 53.9219L166.098 51.8ZM173.498 78.7L165.785 80.8219L173.447 108.673L181.205 80.8485L173.498 78.7ZM180.998 51.8L188.705 53.9485L188.733 53.8448L188.76 53.7403L180.998 51.8ZM192.998 51.8L200.578 54.3582L200.681 54.0529L200.76 53.7403L192.998 51.8ZM179.498 91.8L171.919 89.2418L171.494 90.4999L171.498 91.8278L179.498 91.8ZM179.598 120.6H187.598V120.586L187.598 120.572L179.598 120.6ZM167.698 113C169.55 113 172.102 113.739 173.873 116.1C175.32 118.029 175.398 119.964 175.398 120.6H159.398C159.398 121.503 159.527 123.638 161.073 125.7C162.944 128.195 165.646 129 167.698 129V113ZM175.398 120.628L175.498 92.2282L159.498 92.1718L159.398 120.572L175.398 120.628ZM175.092 89.6815L161.692 49.2815L146.505 54.3185L159.905 94.7185L175.092 89.6815ZM161.86 49.8597C162.038 50.5735 162.64 53.4782 160.523 56.3C158.337 59.2156 155.259 59.4 154.398 59.4V43.4C153.271 43.4 150.01 43.6511 147.723 46.7C145.507 49.6551 146.092 52.7598 146.337 53.7403L161.86 49.8597ZM154.398 59.4H165.498V43.4H154.398V59.4ZM165.498 59.4C164.676 59.4 163.093 59.2442 161.461 58.1564C159.667 56.9605 158.712 55.2409 158.337 53.7403L173.86 49.8597C173.418 48.0924 172.33 46.1729 170.336 44.8436C168.504 43.6224 166.654 43.4 165.498 43.4V59.4ZM158.385 53.9219L165.785 80.8219L181.212 76.5781L173.812 49.6781L158.385 53.9219ZM181.205 80.8485L188.705 53.9485L173.292 49.6515L165.792 76.5515L181.205 80.8485ZM188.76 53.7403C188.491 54.8138 187.805 56.4397 186.171 57.747C184.512 59.0743 182.718 59.4 181.498 59.4V43.4C180.012 43.4 178.002 43.7924 176.176 45.253C174.375 46.6936 173.572 48.5195 173.237 49.8597L188.76 53.7403ZM181.498 59.4H192.698V43.4H181.498V59.4ZM192.698 59.4C191.838 59.4 188.76 59.2156 186.573 56.3C184.457 53.4782 185.059 50.5735 185.237 49.8597L200.76 53.7403C201.005 52.7598 201.59 49.6551 199.373 46.7C197.087 43.6511 193.826 43.4 192.698 43.4V59.4ZM185.418 49.2418L171.919 89.2418L187.078 94.3582L200.578 54.3582L185.418 49.2418ZM171.498 91.8278L171.598 120.628L187.598 120.572L187.498 91.7722L171.498 91.8278ZM171.598 120.6C171.598 119.5 171.879 117.206 173.842 115.243C175.804 113.28 178.099 113 179.198 113V129C180.565 129 183.059 128.653 185.155 126.557C187.251 124.461 187.598 121.966 187.598 120.6H171.598ZM179.198 113H167.698V129H179.198V113ZM210.904 108.8H218.904V100.8H210.904V108.8ZM188.904 97.3L181.689 93.8433L180.904 95.4824V97.3H188.904ZM210.704 51.8L203.548 48.2223L203.518 48.2825L203.489 48.3433L210.704 51.8ZM222.904 51.8H214.904V51.8089L214.904 51.8177L222.904 51.8ZM223.004 96.9L215.004 96.9177L215.022 104.9H223.004V96.9ZM223.004 108.8V100.8H215.004V108.8H223.004ZM200.704 96.9L193.458 93.5096L188.128 104.9H200.704V96.9ZM210.904 96.9V104.9H218.904V96.9H210.904ZM210.904 75.1H218.904L203.658 71.7096L210.904 75.1ZM211.304 113C212.936 113 215.428 113.599 217.251 115.877C218.801 117.815 218.904 119.812 218.904 120.5H202.904C202.904 121.521 203.073 123.768 204.757 125.873C206.713 128.318 209.405 129 211.304 129V113ZM218.904 120.5V108.8H202.904V120.5H218.904ZM210.904 100.8H189.304V116.8H210.904V100.8ZM189.304 100.8C190.936 100.8 193.428 101.399 195.251 103.677C196.801 105.615 196.904 107.612 196.904 108.3H180.904C180.904 109.321 181.073 111.568 182.757 113.673C184.713 116.118 187.405 116.8 189.304 116.8V100.8ZM196.904 108.3V97.3H180.904V108.3H196.904ZM196.119 100.757L217.919 55.2567L203.489 48.3433L181.689 93.8433L196.119 100.757ZM217.859 55.3777C217.451 56.1934 216.697 57.2858 215.392 58.1564C214.036 59.0604 212.57 59.4 211.304 59.4V43.4C209.771 43.4 208.072 43.8063 206.516 44.8436C205.01 45.8475 204.09 47.1399 203.548 48.2223L217.859 55.3777ZM211.304 59.4H222.604V43.4H211.304V59.4ZM222.604 59.4C220.752 59.4 218.2 58.6613 216.429 56.3C214.983 54.3715 214.904 52.4359 214.904 51.8H230.904C230.904 50.8974 230.775 48.7618 229.229 46.7C227.358 44.2054 224.656 43.4 222.604 43.4V59.4ZM214.904 51.8177L215.004 96.9177L231.004 96.8823L230.904 51.7823L214.904 51.8177ZM223.004 104.9H230.004V88.9H223.004V104.9ZM230.004 104.9C228.937 104.9 226.668 104.628 224.722 102.682C222.776 100.736 222.504 98.4665 222.504 97.4H238.504C238.504 96.0002 238.149 93.4809 236.036 91.3681C233.923 89.2554 231.404 88.9 230.004 88.9V104.9ZM222.504 97.4V108.3H238.504V97.4H222.504ZM222.504 108.3C222.504 107.612 222.607 105.615 224.157 103.677C225.98 101.399 228.472 100.8 230.104 100.8V116.8C232.003 116.8 234.694 116.118 236.651 113.673C238.335 111.568 238.504 109.321 238.504 108.3H222.504ZM230.104 100.8H223.004V116.8H230.104V100.8ZM215.004 108.8V120.5H231.004V108.8H215.004ZM215.004 120.5C215.004 119.812 215.107 117.815 216.657 115.877C218.48 113.599 220.972 113 222.604 113V129C224.503 129 227.194 128.318 229.151 125.873C230.835 123.768 231.004 121.521 231.004 120.5H215.004ZM222.604 113H211.304V129H222.604V113ZM200.704 104.9H210.904V88.9H200.704V104.9ZM218.904 96.9V75.1H202.904V96.9H218.904ZM203.658 71.7096L193.458 93.5096L207.95 100.29L218.15 78.4904L203.658 71.7096Z" fill="white" mask="url(#path-4-outside-1_147_36710)"/>
</svg>
